<?xml version="1.0" encoding="UTF-8" standalone="no"?>
<!-- Created with Inkscape (http://www.inkscape.org/) -->
<svg
   xmlns:svg="http://www.w3.org/2000/svg"
   xmlns="http://www.w3.org/2000/svg"
   version="1.0"
   width="600.00018"
   height="600"
   id="svg2372">
  <defs
     id="defs2374" />
  <g
     transform="translate(-154.60867,-188.64287)"
     id="layer1">
    <g
       transform="matrix(0.9897853,0,0,0.989785,562.77366,285.51786)"
       style="fill-rule:evenodd"
       id="g2328">
      <path
         d="M 105,122.747 C 119.2205,122.747 130.753,134.2795 130.753,148.5 C 130.753,162.7206 119.2205,174.253 105,174.253 C 90.7794,174.253 79.247,162.7206 79.247,148.5 C 79.247,134.2795 90.7794,122.747 105,122.747 L 105,122.747 z "
         transform="matrix(11.751966,0,0,11.751966,-1343.2376,-1539.9456)"
         style="fill:#f2da00;stroke:#ffffff;stroke-width:0.0762;stroke-linecap:round;stroke-linejoin:round"
         id="_144287464" />
      <circle
         cx="105"
         cy="148.5"
         r="21.9844"
         transform="matrix(11.751966,0,0,11.751966,-1343.2376,-1539.9456)"
         style="fill:#0093ca;stroke:#1f1a17;stroke-width:0.0762;stroke-linecap:round;stroke-linejoin:round"
         id="_144297960" />
      <path
         d="M 110.14,132.666 L 121.45,138.3453 C 120.3418,136.6088 118.9636,135.0528 117.3809,133.7353 L 110.4991,132.005 C 110.7635,131.4289 110.9304,130.8041 110.9801,130.1487 C 109.0328,129.4924 106.9622,129.1359 104.8309,129.1359 C 102.7272,129.1359 100.6966,129.484 98.7928,130.124 C 98.8358,130.7277 98.9782,131.3059 99.2046,131.8443 L 92.1448,133.9755 C 90.8449,135.1238 89.6982,136.4435 88.7405,137.8979 L 99.7545,132.8477 C 99.8558,132.995 99.9641,133.1379 100.079,133.2755 L 86.8961,144.7312 L 88.7091,144.9999 C 89.0315,144.9362 89.3516,144.8448 89.6518,144.676 C 90.6614,144.1082 91.1576,143.149 92.3822,143.0944 C 92.6618,143.0819 92.9693,143.0656 93.2847,143.0484 L 100.9546,134.1272 C 101.3069,134.4062 101.693,134.6485 102.1066,134.8477 L 97.9744,142.3639 C 98.7004,142.3627 99.4713,142.4546 99.743,142.7103 C 100.0705,143.0183 99.581,143.7077 100.1627,144.1535 L 102.8845,135.1597 C 103.317,135.3009 103.7716,135.3977 104.2421,135.4442 L 103.6592,146.2291 C 104.1737,145.9458 104.6979,145.6385 105.1886,145.5683 C 105.5212,145.8282 105.9515,146.0289 106.4307,146.0953 L 105.9873,135.383 C 106.3977,135.3128 106.7938,135.2039 107.1712,135.0608 L 110.0912,144.038 C 110.9623,143.0741 111.0803,142.4889 111.6465,142.169 L 107.7867,134.7891 C 108.066,134.6472 108.3322,134.4853 108.5831,134.3057 L 116.7202,143.0964 C 116.7958,143.1156 116.2238,142.5221 116.2768,142.535 C 117.2291,142.6759 116.2754,143.4879 118.113,143.2286 C 118.6562,143.1482 119.0291,143.253 119.2285,143.4038 C 119.428,143.5547 119.4541,143.7517 119.6414,144.0811 C 119.8342,144.3945 120.1903,144.1662 120.4045,144.2979 C 120.6042,144.4207 120.6363,144.5517 120.6513,144.672 L 123.7597,145.2907 L 109.4039,133.5999 C 109.6813,133.3136 109.9281,133.0007 110.14,132.666 L 110.14,132.666 z "
         transform="matrix(11.751966,0,0,11.751966,-1343.2376,-1539.9456)"
         style="fill:#f2da00"
         id="_144295800" />
      <path
         d="M 98.6554,130.17 L 98.6605,130.2312 L 98.6671,130.3011 L 98.6747,130.371 L 98.6831,130.4405 C 98.7353,130.8307 98.8246,131.2085 98.9527,131.5807 L 98.9756,131.645 L 98.9995,131.7091 L 99.0168,131.7541 L 92.4053,133.7501 C 92.318,133.8245 92.2315,133.8996 92.1456,133.9755 L 99.205,131.8444 C 98.9786,131.306 98.8362,130.7278 98.7932,130.1241 C 100.3989,129.5843 102.0947,129.2522 103.8486,129.1615 C 102.0446,129.2546 100.3017,129.6027 98.6554,130.17 L 98.6554,130.17 z M 88.5963,138.1192 L 99.7071,133.0245 L 99.7181,133.04 C 99.7586,133.0955 99.7998,133.1506 99.8418,133.205 L 99.863,133.2322 L 99.8841,133.2588 L 86.5733,144.8257 L 88.2604,145.0757 C 88.4094,145.0532 88.5597,145.0296 88.7095,145 L 86.8965,144.7313 L 100.0794,133.2756 C 99.9645,133.138 99.8562,132.9951 99.7549,132.8478 L 88.7409,137.898 C 88.7409,137.898 88.5334,137.8711 88.5963,138.1192 z M 93.4799,143.0379 L 100.9746,134.3205 L 101.0044,134.3429 L 101.0392,134.3687 C 101.3091,134.5662 101.5919,134.7419 101.8887,134.8962 L 101.9129,134.9087 L 97.8132,142.3658 C 97.8667,142.3647 97.9206,142.3641 97.9748,142.364 L 102.107,134.8478 C 101.6934,134.6486 101.3073,134.4063 100.955,134.1273 L 93.2851,143.0485 L 93.4799,143.0379 z M 100.2856,144.2345 L 102.9784,135.3368 L 103.0081,135.3457 L 103.0502,135.358 L 103.0923,135.37 C 103.3778,135.4496 103.6667,135.51 103.96,135.5524 L 104.0046,135.5584 L 104.0492,135.5642 L 104.0939,135.5698 L 104.0947,135.5698 L 103.5143,146.3084 C 103.5627,146.2823 103.6111,146.2559 103.6596,146.2291 L 104.2425,135.4443 C 103.772,135.3978 103.3174,135.301 102.8849,135.1598 L 100.1631,144.1536 C 100.1996,144.1816 100.2402,144.2086 100.2856,144.2345 L 100.2856,144.2345 z M 106.5726,146.1109 L 106.1334,135.4998 L 106.1681,135.4932 C 106.4511,135.4369 106.7289,135.3627 107.0025,135.2711 L 107.0394,135.2585 L 107.076,135.2458 L 107.0829,135.2433 L 109.9568,144.1839 C 109.9944,144.1438 110.0564,144.0768 110.0915,144.038 L 107.1716,135.0609 C 106.7942,135.204 106.3981,135.3129 105.9877,135.3831 L 106.4311,146.0954 C 106.4778,146.1019 106.525,146.107 106.5726,146.1109 L 106.5726,146.1109 z M 111.8206,142.0855 L 107.9771,134.8488 L 108.0101,134.831 L 108.0625,134.8021 L 108.1147,134.7728 C 108.2353,134.7034 108.3537,134.6308 108.4701,134.5546 L 108.5195,134.5217 L 108.5632,134.4919 L 115.8328,142.422 C 115.9242,142.4457 116.4919,142.8665 116.5663,142.8855 L 108.5835,134.3058 C 108.3326,134.4854 108.0664,134.6473 107.7871,134.7892 L 111.6469,142.1691 C 111.6865,142.1468 111.7763,142.1053 111.8206,142.0855 z M 120.6063,145.489 L 122.5889,145.4914 C 122.8947,145.502 124.7674,145.8257 125.0548,145.8676 L 109.6088,133.5885 L 109.6104,133.5868 L 109.6362,133.5587 L 109.6619,133.5303 C 109.8399,133.3308 110.0041,133.1211 110.1551,132.9005 L 110.1763,132.869 L 110.1899,132.8485 L 121.5955,138.5757 C 120.4056,136.6529 118.9027,134.9404 117.1422,133.5228 L 110.6956,131.9093 L 110.7158,131.8611 C 110.8181,131.608 110.9029,131.3517 110.9709,131.0872 C 111.0243,130.8674 111.0653,130.647 111.0948,130.4227 L 111.1035,130.3473 L 111.1114,130.2718 L 111.1181,130.1963 C 111.0723,130.1805 111.0264,130.1649 110.9805,130.1495 C 110.9307,130.8046 110.7638,131.4292 110.4995,132.0051 L 117.3813,133.7354 C 118.964,135.0529 120.3422,136.6089 121.4504,138.3454 L 110.1404,132.6661 C 109.9285,133.0008 109.6817,133.3137 109.4043,133.6 L 123.5574,145.1258 L 120.6517,144.6721 C 120.6582,144.7235 120.5945,145.443 120.6063,145.489 L 120.6063,145.489 z M 105.1963,129.1396 C 105.1412,129.1386 105.086,129.1377 105.0308,129.1371 M 104.0411,129.1525 C 104.017,129.1534 103.9929,129.1546 103.9689,129.1557 L 104.0411,129.1525 z "
         transform="matrix(11.751966,0,0,11.751966,-1343.2376,-1539.9456)"
         style="fill:#ffffff"
         id="_144287040" />
      <path
         d="M 104.8,124.136 C 118.0865,124.136 129.4992,135.1278 129.4992,148.5068 C 129.4992,161.8858 118.051,172.9133 104.7645,172.9133 C 91.478,172.9133 80.5257,161.8858 80.5257,148.5068 C 80.5257,135.1278 91.5135,124.136 104.8,124.136 z M 86.3748,146.4907 C 86.8317,145.8228 87.0369,145.2983 87.9422,145.1508 C 88.5116,145.0581 89.1209,145.0061 89.6647,144.7003 C 90.6743,144.1325 91.1705,143.1733 92.3951,143.1187 C 93.1715,143.0839 94.1633,143.0211 94.9394,142.9863 C 97.2313,142.9775 95.7437,142.5779 97.4143,142.4086 C 98.2556,142.3492 99.41,142.4091 99.7559,142.7346 C 100.1283,143.0849 99.4438,143.9284 100.4802,144.346 C 102.2944,145.0768 100.8996,146.2959 102.1312,146.7641 C 103.0461,146.8793 104.1945,145.7367 105.2015,145.5926 C 105.7779,146.0431 106.6475,146.3158 107.5574,146.0194 C 108.1801,145.8166 108.6534,145.2076 109.4855,144.6834 C 111.705,142.6445 110.6315,141.9375 113.5303,141.8773 C 114.1857,142.0009 115.7914,142.4384 116.2897,142.5593 C 117.242,142.7002 116.2883,143.5122 118.1259,143.2529 C 118.6691,143.1725 119.042,143.2773 119.2414,143.4281 C 119.4409,143.579 119.467,143.776 119.6543,144.1054 C 119.8471,144.4188 120.2032,144.1905 120.4174,144.3222 C 120.9726,144.6635 120.2335,145.0691 121.4279,145.1288 C 122.3269,145.1846 123.4776,145.1054 124.2041,145.4747 C 122.679,136.2746 114.3683,129.1602 104.8438,129.1602 C 94.8375,129.1602 86.4747,137.0123 85.6399,146.8859 C 85.8246,146.752 86.0627,146.6206 86.3748,146.4907 L 86.3748,146.4907 z "
         transform="matrix(11.751966,0,0,11.751966,-1343.2376,-1539.9456)"
         style="fill:#ffffff"
         id="_144282752" />
      <path
         d="M 104.182,153.646 L 106.149,153.7079 L 107.1201,151.9577 L 106.3419,140.5602 L 105.2426,139.6893 L 103.981,140.4707 L 103.1165,151.7302 L 104.182,153.646 L 104.182,153.646 z M 106.3255,153.9206 L 103.9699,153.9206 L 103.9282,153.9206 L 103.9081,153.8839 L 102.9451,151.7592 L 103.8434,140.4258 L 103.8461,140.3912 L 103.8761,140.3726 L 105.2102,139.5463 L 105.2527,139.5201 L 105.2916,139.5509 L 106.4539,140.4718 L 106.478,140.4908 L 106.48,140.5209 L 107.2913,151.9626 L 106.3863,153.886 L 106.3659,153.9206 L 106.3255,153.9206 L 106.3255,153.9206 z "
         transform="matrix(11.751966,0,0,11.751966,-1343.2376,-1539.9456)"
         style="fill:#383431;fill-rule:nonzero"
         id="_144281400" />
      <path
         d="M 93.782,154.474 C 101.2629,154.4996 108.9971,154.5252 116.478,154.5508 C 113.7784,159.0688 109.2902,161.0107 104.9925,160.9998 C 100.3389,160.9939 95.7412,158.4631 93.782,154.474 z "
         transform="matrix(11.751966,0,0,11.751966,-1343.2376,-1539.9456)"
         style="fill:#0093dd"
         id="_143621488" />
      <path
         d="M 123.427,143.451 C 121.9865,150.7613 110.0141,146.063 106.4195,154.3087 C 105.5699,154.3165 104.7194,154.2914 103.8689,154.2648 C 103.7779,154.0518 103.6304,153.7094 103.6139,153.6698 C 100.0981,145.2364 88.2303,150.2101 86.6911,142.6323 C 84.943,147.2965 86.6305,149.9927 88.2171,151.2204 C 92.8837,154.927 97.6193,152.2662 101.3303,154.341 C 101.3169,154.3482 101.3071,154.3529 101.3038,154.3531 C 101.3038,154.3531 101.3038,154.353 101.3038,154.3529 C 101.3038,154.3529 101.3037,154.3529 101.3037,154.3529 C 101.3037,154.353 101.3037,154.3531 101.3037,154.3531 C 101.3037,154.3531 101.3037,154.3531 101.3036,154.3531 C 101.0148,154.3528 100.7611,154.4257 100.5052,154.4425 C 100.2819,154.4571 100.0286,154.5 99.7827,154.5036 C 99.7676,154.5038 99.7526,154.5041 99.7375,154.5043 C 99.7363,154.5193 99.7351,154.5342 99.7339,154.5492 C 99.691,155.0857 99.7846,155.2553 99.7419,155.7903 C 100.0925,156.0424 100.4245,156.2156 100.8666,156.3264 C 101.0837,156.3808 101.1601,156.4263 101.3495,156.548 C 101.6073,156.7136 101.8718,156.8457 102.1284,157.0312 C 102.5293,157.321 102.9865,157.5827 103.425,157.9274 C 103.425,157.9273 103.425,157.9273 103.425,157.9273 C 103.4422,157.9419 103.4609,157.9552 103.4814,157.9696 C 103.5985,158.0324 103.7556,158.2969 103.7604,158.4698 C 103.7643,158.6131 103.6516,158.6732 103.4357,158.6868 C 103.3367,158.684 103.3782,158.6812 103.3235,158.6812 C 103.3054,158.6812 103.2874,158.6812 103.2693,158.6812 C 103.2709,158.6992 103.2724,158.7172 103.274,158.7352 C 103.2813,158.819 103.2886,158.9029 103.2959,158.9868 C 103.2972,159.002 103.2985,159.0171 103.2998,159.0322 C 103.315,159.0322 103.3302,159.0322 103.3453,159.0322 C 103.5248,159.0322 103.7043,159.0322 103.8837,159.0322 C 103.8883,159.1878 103.8929,159.3433 103.8975,159.4989 C 103.898,159.5154 103.8984,159.5319 103.8989,159.5484 C 103.9154,159.548 103.9318,159.5475 103.9483,159.547 C 104.1012,159.5419 104.2541,159.5369 104.4069,159.5319 C 104.423,159.5314 104.4392,159.5309 104.4553,159.5304 C 104.4553,159.5144 104.4553,159.4984 104.4553,159.4824 C 104.4553,159.3322 104.4553,159.1821 104.4553,159.032 C 104.6609,159.032 104.8665,159.032 105.072,159.032 C 105.0901,159.032 105.1081,159.032 105.1262,159.032 C 105.1246,159.0141 105.1231,158.9962 105.1215,158.9783 C 105.1142,158.8944 105.1069,158.8105 105.0996,158.7266 C 105.0985,158.7139 105.0974,158.7013 105.0963,158.6886 C 105.0838,158.6864 105.0712,158.6842 105.0587,158.682 C 104.6961,158.6182 104.6548,158.4324 104.6916,158.2236 C 104.7049,158.1481 104.7279,158.0682 104.7505,157.9896 C 104.7741,157.9075 104.7975,157.8266 104.8102,157.7496 C 105.0747,157.7561 105.31,157.7564 105.5454,157.7566 C 105.7709,157.7568 106.0988,157.7373 106.3514,157.7431 C 106.3909,157.8156 106.4102,157.999 106.3964,158.0715 C 106.3627,158.2485 106.1312,158.3285 105.9661,158.3272 C 105.9507,158.3271 105.9353,158.327 105.9199,158.3269 C 105.9187,158.3422 105.9175,158.3575 105.9162,158.3728 C 105.9061,158.499 105.896,158.6252 105.8859,158.7515 C 105.8845,158.7693 105.8831,158.7872 105.8816,158.805 C 105.8996,158.805 105.9175,158.805 105.9354,158.805 C 106.1098,158.805 106.2842,158.805 106.4586,158.805 C 106.4631,158.9505 106.4677,159.0959 106.4722,159.2414 C 106.4727,159.2575 106.4732,159.2736 106.4737,159.2897 C 106.4897,159.2897 106.5057,159.2897 106.5217,159.2897 C 106.6645,159.2897 106.8074,159.2897 106.9502,159.2897 C 106.9657,159.2897 106.9813,159.2897 106.9968,159.2897 C 106.9978,159.2741 106.9987,159.2585 106.9997,159.2429 C 107.0048,159.1608 107.0022,159.0786 106.9997,158.9965 C 106.9997,158.9964 106.9997,158.9963 106.9997,158.9963 C 106.9977,158.9325 106.9957,158.8688 106.9976,158.805 C 107.2343,158.805 107.4709,158.805 107.7075,158.805 C 107.7206,158.805 107.7337,158.805 107.7468,158.805 C 107.7498,158.7922 107.7529,158.7794 107.7558,158.7666 C 107.7679,158.7154 107.7623,158.6682 107.7568,158.621 C 107.7568,158.6209 107.7568,158.6209 107.7568,158.6208 C 107.7523,158.5823 107.7477,158.5436 107.7558,158.5091 C 107.7598,158.4924 107.7637,158.4758 107.7676,158.4591 C 107.7508,158.4558 107.7339,158.4525 107.717,158.4492 C 107.5822,158.4226 107.4694,158.3852 107.3773,158.3399 C 107.246,158.2753 107.1565,158.1949 107.105,158.1073 C 107.0554,158.0227 107.0412,157.9304 107.0592,157.8391 C 107.0668,157.8007 107.0798,157.7625 107.0981,157.7255 C 107.3328,157.2481 107.4436,156.5639 107.4244,156.0473 C 107.4244,156.0453 107.4243,156.0434 107.4242,156.0415 C 111.2614,152.2975 115.7824,156.3142 121.2497,152.0515 C 122.9593,150.7313 125.1705,147.4646 123.427,143.451 L 123.427,143.451 z M 102.4335,155.2038 C 102.4248,155.2052 102.4161,155.2065 102.4074,155.2079 C 102.403,155.2085 102.3986,155.2092 102.3942,155.2099 C 102.3941,155.21 102.394,155.2101 102.3938,155.2102 C 102.392,155.2104 102.3901,155.2107 102.3882,155.211 C 102.3606,155.215 102.333,155.2182 102.3063,155.2208 C 102.276,155.2237 102.254,155.2254 102.233,155.227 C 102.2329,155.227 102.2329,155.227 102.2329,155.227 C 102.177,155.2313 102.27,155.2351 102.2331,155.2452 C 102.2045,155.253 102.1816,155.2649 102.1651,155.2844 C 102.1927,155.3317 102.2461,155.3737 102.301,155.4076 C 102.3627,155.4457 102.4826,155.4736 102.5154,155.4879 C 102.5155,155.4879 102.5155,155.4879 102.5155,155.4879 C 102.5201,155.4899 102.5247,155.4919 102.5292,155.4939 C 102.5293,155.494 102.5293,155.494 102.5293,155.494 C 102.5341,155.4962 102.5376,155.4978 102.5392,155.4986 C 102.547,155.5028 102.5548,155.5069 102.5626,155.5111 C 102.5808,155.5207 102.5989,155.5304 102.617,155.5401 C 102.5973,155.5457 102.5776,155.5513 102.5578,155.5569 C 102.5493,155.5593 102.5408,155.5618 102.5322,155.5642 C 102.532,155.5643 102.5318,155.5643 102.5317,155.5644 C 102.5311,155.5645 102.5306,155.5647 102.5301,155.5648 C 102.4732,155.5812 102.2869,155.6213 102.2079,155.6711 C 101.5386,156.0924 102.116,155.725 101.9912,155.9134 C 101.9993,155.921 101.7495,155.9539 101.7583,155.96 C 101.7583,155.96 101.7583,155.96 101.7582,155.9601 C 101.7742,155.9713 101.7923,155.9806 101.8138,155.9888 C 101.8384,155.9981 101.8677,156.006 101.9035,156.0135 C 101.9392,156.021 102.1798,156.0282 102.2327,156.0363 C 102.2374,156.037 102.2421,156.0377 102.2467,156.0384 C 102.2576,156.0401 102.2684,156.0417 102.2793,156.0434 C 102.2747,156.0533 102.2701,156.0633 102.2655,156.0732 C 102.2636,156.0775 102.2616,156.0818 102.2596,156.0861 C 102.2596,156.0862 102.2596,156.0862 102.2596,156.0863 C 102.2595,156.0864 102.2595,156.0865 102.2594,156.0866 C 102.2594,156.0867 102.2594,156.0867 102.2594,156.0868 C 102.2534,156.0996 102.2423,156.1135 102.2275,156.1278 C 102.214,156.1409 102.1126,156.1548 102.0935,156.169 C 102.0135,156.2286 101.8932,156.2953 101.8304,156.3287 C 101.895,156.3984 102.0441,156.4682 102.1087,156.5379 C 102.1087,156.5379 102.1088,156.5379 102.1088,156.5379 C 102.1088,156.5379 102.1088,156.5379 102.1088,156.5379 C 102.109,156.5381 102.1092,156.5383 102.1094,156.5386 C 102.1099,156.5391 102.1103,156.5396 102.1106,156.5401 C 102.1113,156.5409 102.112,156.5417 102.1126,156.5426 C 102.1127,156.5427 102.1128,156.5428 102.1129,156.5429 C 102.1132,156.5434 102.1136,156.5439 102.1139,156.5445 C 102.1283,156.5664 102.143,156.5735 102.1275,156.5878 C 102.1178,156.5967 101.8757,156.6639 101.8438,156.6692 C 101.8438,156.6692 101.8438,156.6692 101.8438,156.6692 C 101.8189,156.6733 101.7619,156.6771 101.7324,156.6807 C 101.8788,156.7611 102.0586,156.7899 102.2425,156.9228 C 102.6468,157.215 103.0512,157.5074 103.4863,157.8494 C 103.4869,157.8499 103.4875,157.8504 103.488,157.8509 C 103.5011,157.8622 103.5189,157.8748 103.5385,157.8885 C 103.6208,157.9464 103.6841,158.0519 103.8051,158.2155 C 103.9326,158.4842 103.928,158.7518 103.5738,158.7857 C 103.5048,158.7838 103.4358,158.7818 103.3777,158.781 C 103.3821,158.8316 103.3865,158.8822 103.3909,158.9329 C 103.5524,158.9329 103.7139,158.9329 103.8755,158.9329 C 103.9196,158.9329 103.9638,158.9329 104.008,158.9329 C 104.0085,158.949 104.0089,158.9651 104.0094,158.9812 C 104.014,159.1363 104.0185,159.2915 104.0231,159.4466 C 104.134,159.4425 104.245,159.4384 104.3559,159.4343 C 104.3559,159.2837 104.3559,159.1331 104.3559,158.9826 C 104.3559,158.9661 104.3559,158.9496 104.3559,158.9331 C 104.3725,158.9331 104.389,158.9331 104.4056,158.9331 C 104.5816,158.9331 104.7575,158.9331 104.9334,158.9331 C 104.9288,158.8795 104.9241,158.826 104.9195,158.7725 C 104.6681,158.7945 104.5404,158.7212 104.4804,158.6022 C 104.4526,158.5472 104.5612,157.8376 104.5769,157.6952 C 104.5769,157.6952 104.5769,157.6952 104.5769,157.6952 C 104.577,157.6948 104.577,157.6943 104.577,157.6939 C 104.5787,157.6787 104.5803,157.6635 104.5819,157.6484 C 104.5971,157.6488 104.6123,157.6492 104.6275,157.6496 C 104.9102,157.6572 105.2982,157.6575 105.5454,157.6577 C 105.7937,157.6579 106.0421,157.6582 106.3248,157.6658 C 106.3519,157.6665 106.379,157.6672 106.4061,157.6679 C 106.5503,157.7513 106.5787,157.8837 106.5438,158.0882 C 106.527,158.1866 106.5098,158.271 106.4385,158.3478 C 106.3408,158.4532 106.1541,158.5199 106.0117,158.537 C 106.0136,158.5932 106.0154,158.6494 106.0173,158.7057 C 106.1804,158.7057 106.3434,158.7057 106.5065,158.7057 C 106.5225,158.7057 106.5385,158.7057 106.5545,158.7057 C 106.555,158.7218 106.5555,158.7379 106.556,158.754 C 106.5605,158.8994 106.5651,159.0449 106.5696,159.1904 C 106.6807,159.1904 106.7918,159.1904 106.9029,159.1904 C 106.9047,159.1267 106.9027,159.063 106.9007,158.9994 C 106.8982,158.917 106.8956,158.8346 106.9007,158.7523 C 106.9017,158.7367 106.9027,158.7212 106.9037,158.7057 C 106.9192,158.7057 106.9347,158.7057 106.9502,158.7057 C 107.1505,158.7057 107.3508,158.7057 107.5511,158.7057 C 107.5516,158.682 107.5486,158.6572 107.5457,158.6325 C 107.5457,158.6325 107.5457,158.6325 107.5456,158.6325 C 107.5419,158.6011 107.5383,158.5696 107.5398,158.537 C 107.4207,158.5105 107.2267,158.4638 107.103,158.3619 C 107.0156,158.2899 106.9821,158.1824 106.9582,158.0756 C 106.9361,157.9768 106.9449,157.906 106.9618,157.82 C 106.9709,157.7738 106.9869,157.7275 107.0092,157.682 C 107.2239,157.2456 107.3316,156.629 107.3275,156.1382 C 107.2469,156.2196 107.1665,156.3037 107.0865,156.3925 C 105.6867,156.1342 104.2869,155.876 102.887,155.6177 C 102.7696,155.5193 102.6101,155.3666 102.4335,155.2038 L 102.4335,155.2038 z M 101.6691,156.5481 C 101.6944,156.5443 101.7086,156.5593 101.7368,156.5558 C 101.7393,156.5555 101.7417,156.5552 101.7441,156.5549 C 101.7719,156.5515 101.7993,156.5481 101.8215,156.545 C 101.7591,156.4776 101.6966,156.4102 101.6341,156.3428 C 101.6309,156.3393 101.6277,156.3358 101.6244,156.3323 C 101.617,156.3243 101.6095,156.3162 101.602,156.3082 C 101.6119,156.3032 101.6217,156.2983 101.6315,156.2934 C 101.6357,156.2913 101.6398,156.2892 101.6439,156.2871 C 101.6439,156.2871 101.6439,156.2871 101.6439,156.2871 C 101.6489,156.2845 101.6539,156.282 101.6588,156.2794 C 101.6697,156.2738 101.6834,156.2666 101.6976,156.259 C 101.7132,156.2507 101.732,156.2405 101.7529,156.2288 C 101.8228,156.1899 101.9101,156.1381 101.9607,156.0964 C 101.9315,156.0915 101.9055,156.0866 101.8824,156.0816 C 101.8824,156.0816 101.8824,156.0816 101.8824,156.0816 C 101.8461,156.0738 101.8156,156.0653 101.7888,156.0551 C 101.7592,156.0439 101.7345,156.0308 101.7123,156.0145 C 101.69,155.9981 101.6704,155.9788 101.6512,155.9553 C 101.6487,155.9522 101.6462,155.9491 101.6436,155.9461 C 101.6378,155.9389 101.632,155.9318 101.6261,155.9246 C 101.6339,155.9196 101.6417,155.9145 101.6495,155.9095 C 101.6527,155.9074 101.656,155.9053 101.6592,155.9032 C 101.6592,155.9031 101.6592,155.9031 101.6592,155.9031 C 101.6593,155.9031 101.6593,155.903 101.6594,155.903 C 101.6596,155.9029 101.6597,155.9028 101.6598,155.9028 C 101.7102,155.8703 101.7699,155.8281 101.8331,155.7834 C 101.8331,155.7834 101.8331,155.7834 101.8331,155.7834 C 101.8334,155.7831 101.8338,155.7828 101.8342,155.7826 C 101.8343,155.7825 101.8344,155.7825 101.8345,155.7825 C 101.9108,155.7284 101.9926,155.6706 102.0701,155.621 C 102.1278,155.5841 102.1836,155.5515 102.2341,155.5277 C 102.199,155.5111 102.1563,155.4892 102.1148,155.4628 C 102.0469,155.4197 101.9811,155.364 101.9513,155.2976 C 101.9511,155.297 101.9508,155.2965 101.9506,155.296 C 101.9499,155.2943 101.9491,155.2926 101.9483,155.291 C 101.9466,155.2871 101.9449,155.2833 101.9432,155.2794 C 101.9453,155.2758 101.9474,155.2721 101.9495,155.2685 C 101.9505,155.2669 101.9514,155.2653 101.9523,155.2637 C 101.9523,155.2637 101.9523,155.2636 101.9523,155.2636 C 101.9789,155.2179 102.0168,155.1932 102.0655,155.1787 C 102.1108,155.1652 102.1646,155.161 102.2276,155.1562 C 102.2277,155.1562 102.2277,155.1562 102.2277,155.1562 C 102.2285,155.1561 102.2292,155.156 102.23,155.156 C 102.256,155.154 102.2838,155.1518 102.3128,155.1489 C 102.2945,155.1319 102.2751,155.1175 102.2552,155.1048 C 102.2222,155.0836 102.1871,155.0666 102.1522,155.0497 C 102.1321,155.04 102.1119,155.0302 102.093,155.0202 C 102.073,155.0097 102.0532,154.9983 102.0338,154.9855 C 102.0274,154.9812 102.0209,154.9769 102.0145,154.9727 C 101.9995,154.9627 101.9846,154.9528 101.9696,154.9429 C 101.9869,154.9379 102.0041,154.933 102.0214,154.9281 C 102.0288,154.926 102.0363,154.9239 102.0437,154.9217 C 102.0439,154.9217 102.0441,154.9216 102.0443,154.9216 C 102.0443,154.9216 102.0444,154.9216 102.0444,154.9216 C 102.0633,154.9162 102.0814,154.9109 102.0986,154.9058 C 101.8055,154.6579 101.5087,154.4507 101.304,154.4521 C 101.304,154.4521 101.3039,154.4522 101.3038,154.4523 C 101.3038,154.4523 101.3037,154.4523 101.3037,154.4523 C 101.3037,154.4522 101.3037,154.4521 101.3037,154.4521 C 101.0209,154.4518 100.7672,154.5247 100.5114,154.5414 C 100.3022,154.5551 100.0353,154.597 99.8014,154.6017 C 99.7828,155.0637 99.8615,155.2116 99.8635,155.6996 C 100.3084,155.8802 100.697,156.0608 101.1419,156.2415 C 101.1474,156.2416 101.153,156.2418 101.1585,156.2419 C 101.3046,156.3572 101.5273,156.4697 101.6691,156.5481 L 101.6691,156.5481 z "
         transform="matrix(11.751966,0,0,11.751966,-1343.2376,-1539.9456)"
         style="fill:#1f1a17"
         id="_143620984" />
      <path
         d="M 86.9853,145.593 C 86.8256,146.5657 86.9594,147.6844 87.2755,148.4042 C 87.8023,149.6039 88.8868,150.5871 90.1844,151.8026 C 90.8029,151.8152 91.4568,151.9339 92.0753,151.9465 C 90.4752,150.6279 88.976,149.6446 88.0031,148.2768 C 87.528,147.6089 87.1599,146.5282 86.9853,145.593 L 86.9853,145.593 z "
         transform="matrix(11.751966,0,0,11.751966,-1343.2376,-1539.9456)"
         style="fill:#f2da00"
         id="_143620192" />
      <path
         d="M 87.5454,145.676 C 87.642,146.5244 88.0982,147.5855 88.7269,148.3735 C 89.7748,149.6871 91.4851,150.9226 93.6011,152.0989 C 95.1283,152.1238 96.6556,152.1487 98.1829,152.1737 C 95.7627,149.7413 92.1882,149.8549 89.5634,147.9231 C 88.8145,147.3718 88.0914,146.4858 87.5454,145.676 L 87.5454,145.676 z "
         transform="matrix(11.751966,0,0,11.751966,-1343.2376,-1539.9456)"
         style="fill:#f2da00"
         id="_143619400" />
      <path
         d="M 88.663,145.852 C 88.8271,149.5268 97.0216,147.2846 102.319,153.8761 C 102.2567,153.0119 102.2739,152.238 102.2116,151.3738 C 98.7476,147.3026 91.9321,148.3432 88.663,145.852 L 88.663,145.852 z "
         transform="matrix(11.751966,0,0,11.751966,-1343.2376,-1539.9456)"
         style="fill:#f2da00"
         id="_144273384" />
      <polygon
         points="103.998,153.824 106.298,153.824 107.192,151.974 106.41,140.525 105.248,139.605 103.914,140.431 103.045,151.744 103.998,153.824 "
         transform="matrix(11.751966,0,0,11.751966,-1343.2376,-1539.9456)"
         style="fill:#f2da00"
         id="_144269200" />
      <polygon
         points="104.128,141.793 104.607,141.793 104.607,143.566 104.128,143.566 104.128,141.793 "
         transform="matrix(11.751966,0,0,11.751966,-1343.2376,-1539.9456)"
         style="fill:#1f1a17"
         id="_144268712" />
      <polygon
         points="105.658,144.314 106.173,144.314 106.173,145.857 105.658,145.857 105.658,144.314 "
         transform="matrix(11.751966,0,0,11.751966,-1343.2376,-1539.9456)"
         style="fill:#1f1a17"
         id="_144268416" />
      <polygon
         points="104.899,153.452 104.899,140.595 105.124,140.595 105.124,153.452 104.899,153.452 "
         transform="matrix(11.751966,0,0,11.751966,-1343.2376,-1539.9456)"
         style="fill:#969594"
         id="_144249864" />
      <path
         d="M 88.1174,155.439 C 87.9911,155.0561 88.1546,154.8387 88.4032,154.6532 C 88.7442,154.399 89.1562,154.4508 89.4304,154.2456 C 89.5694,154.1417 89.7157,153.9476 89.7157,153.7608 C 89.7157,153.5162 89.5804,153.2736 89.3446,153.1775 C 89.3524,153.2133 89.3565,153.2503 89.3565,153.2881 C 89.3565,153.475 89.2665,153.6409 89.1275,153.7448 C 88.8729,153.9353 88.5185,153.9835 88.24,154.2002 C 87.9737,154.4075 87.7693,154.6627 87.8526,155.0348 C 87.8915,155.2084 87.9868,155.3346 88.1174,155.439 L 88.1174,155.439 z M 87.4249,153.1454 C 87.3932,152.9369 87.6333,152.8183 87.8327,152.6809 C 88.1064,152.4923 88.2451,152.2817 88.1464,151.9697 C 88.0709,151.7308 87.8818,151.5135 87.6502,151.3995 C 87.8267,151.5532 87.9353,151.7834 87.9353,152.0284 C 87.9353,152.4608 87.0553,152.4843 87.2948,152.9669 C 87.3278,153.0314 87.3722,153.0931 87.4249,153.1454 L 87.4249,153.1454 z M 87.4742,155.6046 C 87.6541,156.076 87.8458,156.5318 88.0489,156.9724 C 88.7671,158.444 89.7495,159.7876 90.8897,161.0396 C 93.4511,163.6833 96.2373,165.7121 100.1102,166.2331 C 100.1082,166.2411 100.1061,166.2492 100.1041,166.2573 C 100.1061,166.2492 100.1082,166.2411 100.1102,166.2331 C 96.5979,165.3547 93.5852,163.4983 91.0539,160.8854 C 89.3009,158.9604 87.8893,156.8457 87.1082,154.3671 C 87.1082,154.3671 87.1082,154.3671 87.1082,154.3671 C 87.2089,154.7895 87.3316,155.2017 87.4742,155.6046 L 87.4742,155.6046 z M 97.1472,164.5536 C 97.0037,164.3268 96.9359,164.0653 96.9554,163.823 C 96.9884,163.4129 97.497,162.1579 96.7911,162.041 C 96.6941,162.0115 96.6076,161.9921 96.5297,161.9808 C 96.9399,162.2204 96.6489,163.0726 96.6194,163.439 C 96.5832,163.8889 96.6703,164.323 97.1472,164.5536 L 97.1472,164.5536 z M 95.0637,163.516 C 95.0018,163.3869 94.961,163.2488 94.9399,163.1072 C 94.8969,162.8184 94.936,162.5156 95.0449,162.2478 C 95.2743,161.6835 95.6067,160.8113 94.7361,160.6968 C 94.7289,160.6957 94.7221,160.6951 94.7151,160.6942 C 95.1399,160.9598 94.6317,161.7491 94.5455,162.1938 C 94.4688,162.5893 94.4924,163.0487 94.7616,163.3657 C 94.8573,163.4784 94.9302,163.5139 95.0637,163.516 L 95.0637,163.516 z M 93.319,162.0344 C 93.2255,161.9114 93.1608,161.781 93.1301,161.6387 C 92.886,160.7245 93.4758,160.7184 93.4989,159.8167 C 93.5192,159.54 93.27,159.26 92.9546,159.2031 C 93.0269,159.2834 93.066,159.3967 93.0522,159.5441 C 92.9916,160.1909 92.2695,161.3375 93.319,162.0344 L 93.319,162.0344 z M 91.1259,160.1741 C 91.102,160.1222 91.0881,160.0677 91.0864,160.0095 C 91.0805,159.8081 91.1149,159.5853 91.2109,159.4093 C 91.427,159.0131 92.0384,158.8348 92.1762,158.4292 C 92.2819,158.1179 92.1289,157.7425 91.843,157.583 C 91.7856,157.551 91.7238,157.5287 91.6586,157.5211 C 91.7127,157.6177 91.7444,157.7314 91.7444,157.8556 C 91.7444,158.4705 91.2306,158.4023 90.9706,158.7473 C 90.8689,158.8823 90.8017,159.0849 90.8117,159.4242 C 90.8192,159.6807 90.9043,159.9358 91.1259,160.1741 L 91.1259,160.1741 z M 89.2679,157.6162 C 89.2734,157.441 89.3441,157.2864 89.4696,157.1763 C 89.7842,156.9004 90.7674,156.5042 90.7674,156.0824 C 90.7674,155.923 90.6947,155.7768 90.5825,155.6626 C 90.5871,155.7571 90.5642,155.8533 90.5054,155.944 C 90.3067,156.2502 89.6279,156.356 89.3919,156.5629 C 89.1175,156.8035 88.9237,157.2058 89.2679,157.6162 z "
         transform="matrix(11.751966,0,0,11.751966,-1343.2376,-1539.9456)"
         style="fill:#cd9e23"
         id="_144249376" />
      <path
         d="M 89.8884,155.034 C 89.2694,155.034 89.3451,155.586 88.8348,155.6532 C 88.6431,155.6785 88.4437,155.6532 88.2414,155.5265 C 88.0478,155.4052 87.9029,155.2598 87.8526,155.0351 C 87.7693,154.663 87.9737,154.4078 88.24,154.2005 C 88.5185,153.9838 88.8729,153.9356 89.1275,153.7451 C 89.2665,153.6412 89.3565,153.4753 89.3565,153.2884 C 89.3565,152.9736 89.0759,152.7183 88.7018,152.7183 C 88.3278,152.7183 88.2276,153.1712 87.8885,153.2802 C 87.6355,153.3616 87.4038,153.1801 87.2948,152.9672 C 87.0553,152.4846 87.9353,152.4611 87.9353,152.0287 C 87.9353,151.5962 87.5966,151.2092 87.1439,151.2092 C 86.6913,151.2092 86.2856,151.5074 86.2024,151.9044 C 86.0991,152.1875 86.1212,152.5225 86.2004,152.8481 C 87.2198,156.5462 88.8498,159.4295 91.0063,161.6205 C 92.3523,163.1084 93.8376,164.338 95.5869,165.239 C 97.5991,166.2753 99.9607,166.877 102.8622,166.9372 C 102.328,166.6208 101.8937,166.2585 101.451,165.9525 C 100.9971,165.6389 100.4359,165.2609 100,164.8291 C 99.4908,164.3247 99.2603,163.8101 98.9129,163.2338 C 98.7813,163.0156 98.542,162.8697 98.2687,162.8697 C 98.1412,162.8697 98.021,162.9014 97.9158,162.9574 C 97.7837,162.9951 97.7072,163.0716 97.6659,163.1719 C 97.3098,163.6486 97.8594,164.0411 97.6381,164.4355 C 97.5756,164.547 97.4474,164.6071 97.204,164.5796 C 96.6772,164.3568 96.5818,163.9066 96.6194,163.4393 C 96.6524,163.0292 97.0132,162.0107 96.3517,161.9234 C 95.2225,161.774 95.9758,163.4841 95.1166,163.5157 C 94.948,163.5219 94.8692,163.4928 94.7616,163.366 C 94.4924,163.049 94.4688,162.5896 94.5455,162.1941 C 94.6433,161.6893 95.2852,160.7404 94.4887,160.6175 C 93.2935,160.4204 94.2249,162.4396 93.3625,162.0629 C 92.2497,161.369 92.9908,160.1999 93.0522,159.5444 C 93.0877,159.1655 92.7742,159.0121 92.443,159.0646 C 91.7269,159.1783 92.1743,160.6237 91.3275,160.3566 C 90.9539,160.0688 90.8211,159.7477 90.8117,159.4245 C 90.8017,159.0852 90.8689,158.8826 90.9706,158.7476 C 91.2306,158.4026 91.7444,158.4708 91.7444,157.8559 C 91.7444,157.3519 91.2238,157.0199 90.7934,157.3107 C 90.492,157.5144 90.4263,157.9253 90.01,158.0242 C 89.8779,158.0613 89.6442,157.9779 89.3147,157.6689 C 88.9072,157.2406 89.1059,156.814 89.3919,156.5632 C 89.6279,156.3563 90.3067,156.2505 90.5054,155.9443 C 90.7663,155.5421 90.3231,155.034 89.8884,155.034 L 89.8884,155.034 z M 87.1082,154.3674 C 87.8893,156.846 89.3009,158.9607 91.0539,160.8857 C 93.5852,163.4986 96.5979,165.355 100.1102,166.2334 C 100.1082,166.2414 100.1061,166.2495 100.1041,166.2576 C 100.1061,166.2495 100.1082,166.2414 100.1102,166.2334 C 96.2373,165.7124 93.4511,163.6836 90.8897,161.0399 C 89.1095,159.0852 87.7139,156.9077 87.1082,154.3674 C 87.1082,154.3674 87.1082,154.3674 87.1082,154.3674 L 87.1082,154.3674 z "
         transform="matrix(11.751966,0,0,11.751966,-1343.2376,-1539.9456)"
         style="fill:#f2da00"
         id="_144248888" />
      <path
         d="M 122.058,155.439 C 122.1843,155.0561 122.0209,154.8387 121.7722,154.6532 C 121.4312,154.399 121.0193,154.4508 120.745,154.2456 C 120.6061,154.1417 120.4598,153.9476 120.4598,153.7608 C 120.4598,153.5162 120.595,153.2736 120.8308,153.1775 C 120.823,153.2133 120.819,153.2503 120.819,153.2881 C 120.819,153.475 120.909,153.6409 121.0479,153.7448 C 121.3026,153.9353 121.6569,153.9835 121.9354,154.2002 C 122.2017,154.4075 122.4061,154.6627 122.3228,155.0348 C 122.284,155.2084 122.1886,155.3346 122.058,155.439 L 122.058,155.439 z M 122.7505,153.1454 C 122.7822,152.9369 122.5422,152.8183 122.3428,152.6809 C 122.0691,152.4923 121.9304,152.2817 122.029,151.9697 C 122.1046,151.7308 122.2936,151.5135 122.5252,151.3995 C 122.3487,151.5532 122.2401,151.7834 122.2401,152.0284 C 122.2401,152.4608 123.1201,152.4843 122.8806,152.9669 C 122.8476,153.0314 122.8032,153.0931 122.7505,153.1454 L 122.7505,153.1454 z M 122.7013,155.6046 C 122.5213,156.076 122.3297,156.5318 122.1265,156.9724 C 121.4084,158.444 120.426,159.7876 119.2857,161.0396 C 116.7243,163.6833 113.9381,165.7121 110.0653,166.2331 C 110.0673,166.2411 110.0693,166.2492 110.0713,166.2573 C 110.0693,166.2492 110.0673,166.2411 110.0653,166.2331 C 113.5775,165.3547 116.5902,163.4983 119.1215,160.8854 C 120.8745,158.9604 122.2861,156.8457 123.0672,154.3671 C 123.0672,154.3671 123.0672,154.3671 123.0672,154.3671 C 122.9665,154.7895 122.8438,155.2017 122.7013,155.6046 L 122.7013,155.6046 z M 113.0283,164.5536 C 113.1717,164.3268 113.2396,164.0653 113.2201,163.823 C 113.1871,163.4129 112.6785,162.1579 113.3843,162.041 C 113.4813,162.0115 113.5678,161.9921 113.6458,161.9808 C 113.2355,162.2204 113.5266,163.0726 113.556,163.439 C 113.5923,163.8889 113.5051,164.323 113.0283,164.5536 L 113.0283,164.5536 z M 115.1117,163.516 C 115.1737,163.3869 115.2144,163.2488 115.2355,163.1072 C 115.2785,162.8184 115.2394,162.5156 115.1306,162.2478 C 114.9011,161.6835 114.5687,160.8113 115.4393,160.6968 C 115.4465,160.6957 115.4533,160.6951 115.4603,160.6942 C 115.0356,160.9598 115.5437,161.7491 115.63,162.1938 C 115.7066,162.5893 115.683,163.0487 115.4138,163.3657 C 115.3181,163.4784 115.2453,163.5139 115.1117,163.516 L 115.1117,163.516 z M 116.8564,162.0344 C 116.95,161.9114 117.0146,161.781 117.0454,161.6387 C 117.2894,160.7245 116.6997,160.7184 116.6766,159.8167 C 116.6562,159.54 116.9054,159.26 117.2208,159.2031 C 117.1485,159.2834 117.1094,159.3967 117.1232,159.5441 C 117.1838,160.1909 117.9059,161.3375 116.8564,162.0344 z M 119.0495,160.1741 C 119.0734,160.1222 119.0873,160.0677 119.089,160.0095 C 119.0949,159.8081 119.0605,159.5853 118.9645,159.4093 C 118.7484,159.0131 118.137,158.8348 117.9992,158.4292 C 117.8935,158.1179 118.0465,157.7425 118.3324,157.583 C 118.3898,157.551 118.4516,157.5287 118.5168,157.5211 C 118.4628,157.6177 118.4311,157.7314 118.4311,157.8556 C 118.4311,158.4705 118.9448,158.4023 119.2048,158.7473 C 119.3065,158.8823 119.3737,159.0849 119.3638,159.4242 C 119.3563,159.6807 119.2711,159.9358 119.0495,160.1741 L 119.0495,160.1741 z M 120.9075,157.6162 C 120.902,157.441 120.8313,157.2864 120.7058,157.1763 C 120.3912,156.9004 119.4081,156.5042 119.4081,156.0824 C 119.4081,155.923 119.4808,155.7768 119.593,155.6626 C 119.5884,155.7571 119.6112,155.8533 119.67,155.944 C 119.8687,156.2502 120.5475,156.356 120.7835,156.5629 C 121.0579,156.8035 121.2517,157.2058 120.9075,157.6162 L 120.9075,157.6162 z "
         transform="matrix(11.751966,0,0,11.751966,-1343.2376,-1539.9456)"
         style="fill:#cd9e23"
         id="_144250568" />
      <path
         d="M 120.287,155.034 C 120.9059,155.034 120.8303,155.586 121.3405,155.6532 C 121.5323,155.6785 121.7316,155.6532 121.9339,155.5265 C 122.1276,155.4052 122.2724,155.2598 122.3227,155.0351 C 122.406,154.663 122.2016,154.4078 121.9353,154.2005 C 121.6568,153.9838 121.3025,153.9356 121.0478,153.7451 C 120.9089,153.6412 120.8189,153.4753 120.8189,153.2884 C 120.8189,152.9736 121.0994,152.7183 121.4735,152.7183 C 121.8476,152.7183 121.9478,153.1712 122.2868,153.2802 C 122.5399,153.3616 122.7715,153.1801 122.8805,152.9672 C 123.12,152.4846 122.24,152.4611 122.24,152.0287 C 122.24,151.5962 122.5787,151.2092 123.0314,151.2092 C 123.4841,151.2092 123.8898,151.5074 123.973,151.9044 C 124.0762,152.1875 124.0542,152.5225 123.9749,152.8481 C 122.9555,156.5462 121.3256,159.4295 119.1691,161.6205 C 117.823,163.1084 116.3378,164.338 114.5884,165.239 C 112.5763,166.2753 110.2146,166.877 107.3132,166.9372 C 107.8473,166.6208 108.2816,166.2585 108.7243,165.9525 C 109.1783,165.6389 109.7394,165.2609 110.1753,164.8291 C 110.6845,164.3247 110.915,163.8101 111.2625,163.2338 C 111.394,163.0156 111.6333,162.8697 111.9067,162.8697 C 112.0342,162.8697 112.1543,162.9014 112.2595,162.9574 C 112.3917,162.9951 112.4682,163.0716 112.5094,163.1719 C 112.8656,163.6486 112.316,164.0411 112.5373,164.4355 C 112.5998,164.547 112.7279,164.6071 112.9713,164.5796 C 113.4981,164.3568 113.5936,163.9066 113.5559,163.4393 C 113.5229,163.0292 113.1622,162.0107 113.8237,161.9234 C 114.9528,161.774 114.1995,163.4841 115.0587,163.5157 C 115.2273,163.5219 115.3061,163.4928 115.4137,163.366 C 115.6829,163.049 115.7065,162.5896 115.6299,162.1941 C 115.532,161.6893 114.8901,160.7404 115.6866,160.6175 C 116.8819,160.4204 115.9504,162.4396 116.8129,162.0629 C 117.9256,161.369 117.1845,160.1999 117.1231,159.5444 C 117.0877,159.1655 117.4011,159.0121 117.7324,159.0646 C 118.4485,159.1783 118.001,160.6237 118.8478,160.3566 C 119.2214,160.0688 119.3542,159.7477 119.3637,159.4245 C 119.3736,159.0852 119.3064,158.8826 119.2047,158.7476 C 118.9447,158.4026 118.431,158.4708 118.431,157.8559 C 118.431,157.3519 118.9515,157.0199 119.382,157.3107 C 119.6834,157.5144 119.7491,157.9253 120.1654,158.0242 C 120.2974,158.0613 120.5311,157.9779 120.8607,157.6689 C 121.2682,157.2406 121.0695,156.814 120.7834,156.5632 C 120.5474,156.3563 119.8686,156.2505 119.6699,155.9443 C 119.4091,155.5421 119.8522,155.034 120.287,155.034 L 120.287,155.034 z M 123.0671,154.3674 C 122.286,156.846 120.8744,158.9607 119.1214,160.8857 C 116.5901,163.4986 113.5774,165.355 110.0652,166.2334 C 110.0672,166.2414 110.0692,166.2495 110.0712,166.2576 C 110.0692,166.2495 110.0672,166.2414 110.0652,166.2334 C 113.938,165.7124 116.7242,163.6836 119.2856,161.0399 C 121.0658,159.0852 122.4615,156.9077 123.0671,154.3674 C 123.0671,154.3674 123.0671,154.3674 123.0671,154.3674 L 123.0671,154.3674 z "
         transform="matrix(11.751966,0,0,11.751966,-1343.2376,-1539.9456)"
         style="fill:#f2da00"
         id="_144248512" />
      <path
         d="M 122.92,146.376 C 123.0231,147.0042 122.9771,147.8162 122.8708,148.3246 C 122.5382,149.9154 121.2782,151.0476 119.7049,152.5214 C 119.0864,152.534 118.468,152.603 117.8495,152.6156 C 119.7404,151.0572 121.4682,149.9984 122.3661,148.2016 C 122.5989,147.7355 122.8104,146.963 122.92,146.376 z "
         transform="matrix(11.751966,0,0,11.751966,-1343.2376,-1539.9456)"
         style="fill:#f2da00"
         id="_144247720" />
      <path
         d="M 122.443,146.542 C 122.3866,147.0369 122.0931,147.6393 121.8478,148.103 C 120.9718,149.7593 118.9609,151.2402 116.3159,152.7106 C 114.7886,152.7355 113.2613,152.7604 111.7341,152.7853 C 114.2953,150.1146 118.7607,150.3019 121.3058,147.8076 C 121.6598,147.4608 122.1459,146.9734 122.443,146.542 L 122.443,146.542 z "
         transform="matrix(11.751966,0,0,11.751966,-1343.2376,-1539.9456)"
         style="fill:#f2da00"
         id="_144247248" />
      <path
         d="M 121.311,146.655 C 120.3334,150.3636 112.9525,148.0594 107.655,154.6509 C 107.7174,153.7867 107.7001,153.0128 107.7625,152.1487 C 111.2265,148.0774 118.018,149.0238 121.311,146.655 L 121.311,146.655 z "
         transform="matrix(11.751966,0,0,11.751966,-1343.2376,-1539.9456)"
         style="fill:#f2da00"
         id="_144253952" />
      <polygon
         points="103.852,147.658 104.367,147.658 104.367,149.478 103.852,149.478 103.852,147.658 "
         transform="matrix(11.751966,0,0,11.751966,-1343.2376,-1539.9456)"
         style="fill:#1f1a17"
         id="_144252896" />
      <path
         d="M 98.927,158.183 C 103.1519,158.2165 107.3204,158.1494 111.5453,158.183 C 110.1599,160.4075 107.3854,160.7032 105.1292,160.6891 C 102.4293,160.6722 101.1039,160.0728 98.927,158.183 z "
         transform="matrix(11.751966,0,0,11.751966,-1343.2376,-1539.9456)"
         style="fill:#1f1a17"
         id="_144252240" />
      <path
         d="M 99.8843,154.648 C 99.8959,154.6498 99.9076,154.6516 99.9193,154.6534 C 99.9202,154.6651 99.9211,154.6768 99.922,154.6885 C 99.9351,154.8534 99.9441,155.0633 99.953,155.2732 C 99.9616,155.4771 100.1957,155.4839 100.2089,155.6521 C 100.2091,155.6539 100.2092,155.6559 100.2094,155.6578 C 100.2112,155.6809 100.2131,155.7041 100.2149,155.7272 C 100.1931,155.7191 100.1713,155.711 100.1495,155.7029 C 99.5127,155.4655 99.2741,155.6877 99.1862,155.8564 C 99.1312,155.9616 99.0523,156.113 98.8449,156.2949 C 98.8331,156.3053 98.8214,156.3156 98.8096,156.3259 C 98.8,156.3136 98.7903,156.3012 98.7807,156.2889 C 98.5978,155.7803 98.6001,155.4526 98.6493,155.1052 C 98.7259,154.8252 98.8696,154.7236 99.0874,154.6682 C 99.366,154.5974 99.5956,154.6036 99.8843,154.648 z "
         transform="matrix(11.751966,0,0,11.751966,-1343.2376,-1539.9456)"
         style="fill:#1f1a17;fill-rule:nonzero"
         id="_144258728" />
      <path
         d="M 99.8198,155.733 C 99.8644,155.1748 99.7482,155.123 99.7929,154.5647 C 100.3189,154.5568 100.7905,154.4428 101.3164,154.4434 C 101.4438,154.4435 101.6015,154.3326 101.784,154.3341 C 101.9794,154.3356 102.1748,154.3385 102.3702,154.3423 L 102.3737,154.3485 L 102.3738,154.3487 L 102.3803,154.3602 L 102.3805,154.3606 L 102.3872,154.3719 L 102.3872,154.3719 L 102.3873,154.372 L 102.3874,154.3724 C 102.3992,154.392 102.4119,154.4108 102.4251,154.4289 L 102.4253,154.4291 L 102.4328,154.4391 L 102.433,154.4394 L 102.4406,154.4492 L 102.4408,154.4494 L 102.441,154.4496 C 102.5064,154.532 102.5844,154.5925 102.6673,154.6328 C 102.6822,154.64 102.6976,154.6467 102.7133,154.6528 L 102.6826,154.6695 C 102.6581,154.6826 102.6337,154.6952 102.6095,154.7072 L 102.6096,154.7072 L 102.5953,154.7142 L 102.5953,154.7142 L 102.5813,154.721 L 102.5813,154.721 L 102.5809,154.7211 L 102.5806,154.7213 C 102.4536,154.7823 102.3216,154.8334 102.1928,154.8756 C 102.1666,154.8842 102.1416,154.8921 102.118,154.8993 C 102.0951,154.9063 102.0705,154.9136 102.0444,154.921 L 102.0443,154.921 L 102.0437,154.9211 L 102.0214,154.9275 L 101.9696,154.9423 L 102.0145,154.9721 L 102.0338,154.9849 C 102.2417,155.0564 102.082,154.9933 102.2552,155.1042 C 102.2751,155.1169 102.2945,155.1313 102.3128,155.1483 C 102.2838,155.1512 102.256,155.1534 102.23,155.1554 L 102.2277,155.1556 L 102.2276,155.1556 C 102.1646,155.1604 102.1108,155.1646 102.0655,155.1781 C 102.0168,155.1926 101.9789,155.2173 101.9523,155.263 L 101.9523,155.2631 L 101.9495,155.2679 L 101.9432,155.2788 L 101.9483,155.2904 L 101.9506,155.2954 L 101.9513,155.297 C 101.9811,155.3634 102.0469,155.4191 102.1148,155.4622 C 102.1563,155.4886 102.199,155.5105 102.2341,155.5271 C 102.1836,155.5509 102.1278,155.5835 102.0701,155.6204 C 101.9926,155.67 101.9108,155.7278 101.8345,155.7819 L 101.8342,155.782 L 101.8331,155.7828 L 101.8331,155.7828 C 101.7699,155.8275 101.7102,155.8697 101.6598,155.9022 L 101.6594,155.9024 L 101.6592,155.9025 L 101.6592,155.9026 L 101.6495,155.9089 L 101.6261,155.924 L 101.6436,155.9455 L 101.6512,155.9547 C 101.6704,155.9782 101.69,155.9975 101.7123,156.0139 C 101.7345,156.0302 101.7592,156.0433 101.7888,156.0545 C 101.8156,156.0647 101.8461,156.0732 101.8824,156.081 L 101.8824,156.081 C 101.9055,156.086 101.9315,156.0909 101.9607,156.0958 C 101.9101,156.1375 101.8228,156.1893 101.7529,156.2282 C 101.732,156.2399 101.7132,156.2501 101.6976,156.2584 C 101.6834,156.266 101.6697,156.2732 101.6588,156.2788 L 101.6439,156.2865 L 101.6439,156.2865 L 101.6315,156.2928 L 101.602,156.3076 L 101.6244,156.3317 L 101.6341,156.3422 L 101.8215,156.5444 C 101.7993,156.5475 101.7719,156.5509 101.7441,156.5543 L 101.7368,156.5552 C 101.702,156.5595 101.6669,156.5639 101.6377,156.5688 L 101.6336,156.5696 L 101.606,156.5753 C 101.5922,156.5787 101.5811,156.5826 101.5742,156.5872 C 101.4409,156.4923 101.3029,156.3899 101.1579,156.2759 C 100.706,156.1865 100.2448,155.9823 99.8198,155.733 L 99.8198,155.733 z M 102.6504,154.3441 C 104.0267,154.3728 105.206,154.4458 106.5822,154.4253 C 106.8207,154.8303 107.0238,155.194 107.2623,155.599 C 107.426,156.0433 107.3139,157.0747 106.9978,157.7172 C 106.8475,158.0229 107.0512,158.3765 107.669,158.4981 C 107.6491,158.5825 107.6888,158.6669 107.669,158.7513 C 107.4307,158.7513 107.1626,158.7513 106.9243,158.7513 C 106.9143,158.9102 106.9342,159.0691 106.9243,159.2279 C 106.8299,159.2279 106.5418,159.2279 106.4475,159.2279 C 106.4425,159.0691 106.4376,158.9102 106.4326,158.7513 C 106.1992,158.7513 106.1597,158.7513 105.9264,158.7513 C 105.9363,158.6272 105.9185,158.5031 105.9285,158.379 C 106.4458,158.4119 106.5813,157.8918 106.4208,157.6441 C 105.8647,157.6292 105.2492,157.6713 104.6932,157.6564 C 104.6537,158.0207 104.3684,158.6062 105.0559,158.7273 C 105.0658,158.8414 105.0674,158.8605 105.0774,158.9747 C 104.8589,158.9747 104.6405,158.9747 104.4221,158.9747 C 104.4221,159.1386 104.4221,159.3024 104.4221,159.4662 C 104.2532,159.4712 104.0844,159.4762 103.9157,159.4811 C 103.9107,159.3123 103.9057,159.1435 103.9008,158.9747 C 103.727,158.9747 103.5532,158.9747 103.3795,158.9747 C 103.3695,158.8605 103.3679,158.8414 103.358,158.7273 C 103.4771,158.7273 103.5933,158.6808 103.7125,158.6808 C 103.7138,158.6186 103.8044,158.5759 103.8034,158.5244 C 103.7928,158.0258 103.5865,157.984 103.4879,157.8988 C 102.8007,157.3585 102.3275,157.1041 101.7034,156.6669 L 101.7096,156.666 C 101.7349,156.6623 101.7684,156.658 101.8017,156.6539 C 101.8363,156.6497 101.8711,156.6453 101.9001,156.6405 L 101.9001,156.6404 C 101.932,156.6352 102.041,156.6004 102.0507,156.5915 L 102.1199,156.5959 L 102.12,156.5939 C 102.1205,156.5863 102.0622,156.5508 102.0576,156.5439 L 102.0566,156.5423 L 102.0563,156.542 L 102.0543,156.5395 L 102.0531,156.538 L 102.0525,156.5373 L 102.0525,156.5373 L 102.0524,156.5373 L 101.8304,156.3281 C 101.8932,156.2947 101.9854,156.228 102.0654,156.1684 C 102.1484,156.1065 102.1842,156.127 102.223,156.0428 L 102.1764,156.0357 C 102.1235,156.0276 101.9392,156.0204 101.9035,156.0129 C 101.8677,156.0054 101.8384,155.9975 101.8138,155.9882 C 101.7923,155.98 101.7742,155.9707 101.7582,155.9595 L 101.7583,155.9594 C 101.7539,155.9564 101.7739,155.942 101.794,155.9275 C 101.817,155.9109 101.8324,155.8929 101.8557,155.8776 C 101.9697,155.8026 102.1116,155.7206 102.2361,155.6423 C 102.315,155.5925 102.3887,155.5806 102.4457,155.5642 L 102.4472,155.5638 L 102.4478,155.5636 L 102.4733,155.5563 L 102.5326,155.5395 L 102.4782,155.5105 L 102.4547,155.498 C 102.4531,155.4972 102.4497,155.4956 102.4449,155.4934 L 102.4448,155.4933 L 102.3465,155.4873 C 102.3148,155.4217 102.2782,155.417 102.2166,155.3789 C 102.1617,155.3449 102.1646,155.3311 102.1369,155.2838 C 102.1504,155.2679 102.2045,155.2257 102.2246,155.218 C 102.2876,155.2091 102.3363,155.1898 102.4227,155.1992 C 102.4781,155.2053 102.5412,155.2127 102.5572,155.2104 L 102.5628,155.2096 L 102.5631,155.2093 L 102.5763,155.2073 L 102.617,155.201 L 102.5923,155.168 L 102.5817,155.1538 C 102.5479,155.1087 102.4821,155.0761 102.4427,155.0498 C 102.4041,155.0242 102.392,155.0047 102.3519,154.9853 L 102.3519,154.9853 L 102.3516,154.9851 C 102.3385,154.9788 102.3255,154.9724 102.3124,154.9659 C 102.4173,154.9336 102.5254,154.8956 102.6324,154.8512 C 102.6562,154.8413 102.6809,154.8307 102.7062,154.8194 C 102.73,154.8087 102.8196,154.7516 102.8278,154.7474 L 102.8278,154.7474 L 102.8421,154.7398 L 102.8423,154.7398 L 102.8565,154.7323 L 102.8565,154.7322 L 102.8569,154.732 C 102.8823,154.7184 102.9737,154.7239 102.9973,154.7102 L 102.9974,154.7101 L 103.0114,154.7019 L 103.0116,154.7018 L 103.0255,154.6935 L 103.0261,154.6931 L 103.0263,154.693 L 103.0263,154.693 L 103.0266,154.6928 L 103.0268,154.6927 L 103.0266,154.6928 L 103.0268,154.6927 L 103.0266,154.6928 L 103.0487,154.6796 L 103.1006,154.6485 L 103.0418,154.6343 L 103.0165,154.6281 C 102.9349,154.6085 102.7963,154.565 102.7252,154.5036 C 102.7114,154.4917 102.6978,154.4789 102.6846,154.4651 C 102.6716,154.4516 102.7065,154.4216 102.6942,154.4061 L 102.6941,154.4062 L 102.6936,154.4055 L 102.6936,154.4054 C 102.6815,154.3901 102.6697,154.3737 102.6584,154.3565 L 102.6518,154.3462 L 102.6518,154.3462 L 102.6504,154.3441 L 102.6504,154.3441 z "
         transform="matrix(11.751966,0,0,11.751966,-1343.2376,-1539.9456)"
         style="fill:#f2da00"
         id="_144246976" />
      <path
         d="M 93.5849,154.446 C 94.7337,154.4499 96.0696,154.4538 97.2134,154.4577 C 96.9256,155.5192 96.6659,156.6932 96.3781,157.7547 C 95.3243,157.0729 94.1604,155.6411 93.5849,154.446 z "
         transform="matrix(11.751966,0,0,11.751966,-1343.2376,-1539.9456)"
         style="fill:#f2da00"
         id="_144246136" />
      <path
         d="M 116.478,154.551 C 115.3292,154.5549 114.4101,154.537 113.2663,154.5409 C 113.5541,155.6023 113.8715,156.1504 114.3646,157.2004 C 115.2498,156.4012 116.1133,155.2192 116.478,154.551 z "
         transform="matrix(11.751966,0,0,11.751966,-1343.2376,-1539.9456)"
         style="fill:#f2da00"
         id="_144245512" />
      <path
         d="M 101.616,154.563 C 101.6247,154.5788 101.6298,154.5971 101.6298,154.6165 C 101.6298,154.6776 101.5802,154.7272 101.5191,154.7272 C 101.458,154.7272 101.4084,154.6776 101.4084,154.6165 C 101.4084,154.5245 101.4963,154.4706 101.5689,154.4638 C 101.7141,154.4501 101.9367,154.5129 102.0001,154.5609 C 101.9144,154.5475 101.7072,154.5267 101.616,154.563 L 101.616,154.563 z "
         transform="matrix(11.751966,0,0,11.751966,-1353.8729,-1536.9914)"
         style="fill:#1f1a17"
         id="_144213312" />
      <polygon
         points="105.23,137.95 107.035,141.012 106.237,141.012 106.237,140.809 104.025,140.809 104.025,141.012 103.403,141.012 105.23,137.95 "
         transform="matrix(11.751966,0,0,11.751966,-1343.2376,-1539.9456)"
         style="fill:#1f1a17"
         id="_144212920" />
      <path
         d="M 99.7041,154.714 C 99.3396,154.6591 98.7747,154.7851 98.764,155.1648 C 98.7398,155.3775 98.7431,155.8119 98.8536,156.1692 C 99.1667,155.7164 98.9788,155.4885 99.7058,155.4421 C 99.6968,155.099 99.7131,155.0572 99.7041,154.714 L 99.7041,154.714 z "
         transform="matrix(11.751966,0,0,11.751966,-1343.2376,-1539.9456)"
         style="fill:#f2da00"
         id="_144214776" />
      <path
         d="M 103.924,162.967 C 104.0014,162.8876 104.0833,162.8166 104.173,162.7513 C 104.23,162.7118 104.288,162.6756 104.3485,162.6418 C 104.4995,162.562 104.6545,162.5053 104.8214,162.4692 L 104.8635,162.4611 L 104.906,162.454 C 105.0719,162.4306 105.2323,162.4296 105.3986,162.4496 L 105.4439,162.4563 L 105.4887,162.4642 L 105.5329,162.4732 L 105.5693,162.4816 L 105.5692,162.4668 L 105.5666,162.4148 L 105.5619,162.365 C 105.5179,162.0593 105.3613,161.8776 105.1043,161.771 C 104.8756,161.6828 104.6565,161.6638 104.4206,161.6226 L 104.5024,161.1436 C 104.7466,161.1686 104.9755,161.2121 105.2109,161.2924 L 105.2499,161.3066 L 105.2883,161.3215 C 105.504,161.4115 105.6848,161.5317 105.8254,161.721 C 105.8589,161.7691 105.8885,161.8181 105.9158,161.87 C 106.0011,162.0448 106.0421,162.2251 106.0537,162.4188 C 106.0568,162.505 106.0549,162.5904 106.0474,162.6764 L 106.0608,162.6844 C 106.1459,162.7375 106.225,162.7958 106.3012,162.861 L 106.329,162.8861 C 106.5326,163.0767 106.6824,163.3008 106.7815,163.5615 L 106.7956,163.6012 L 106.8086,163.6413 L 106.8207,163.6818 L 106.8318,163.723 C 106.8805,163.9218 106.8953,164.1188 106.8775,164.3225 C 106.8711,164.3786 106.8628,164.4339 106.8523,164.4894 C 106.7989,164.7405 106.6982,164.967 106.5481,165.1752 L 106.5227,165.2088 C 106.4559,165.2925 106.3845,165.3679 106.3054,165.4401 L 106.2681,165.4719 L 106.2803,165.4836 C 106.3077,165.5092 106.3357,165.5337 106.365,165.5571 L 106.3795,165.5683 C 106.4937,165.6503 106.6118,165.7006 106.7522,165.7155 C 106.8913,165.7245 107.0173,165.6967 107.1441,165.6401 L 107.1726,165.6262 L 107.201,165.6112 C 107.4444,165.4717 107.5513,165.3436 107.706,165.1337 L 108.0956,165.4261 C 107.8589,165.746 107.6005,165.9952 107.2179,166.1352 C 106.9543,166.2211 106.6986,166.2265 106.4337,166.1427 L 106.3884,166.1262 C 106.1972,166.0478 106.0412,165.9343 105.8964,165.7889 L 105.8488,165.7382 L 105.8437,165.7323 L 105.8289,165.7388 L 105.7776,165.7593 C 105.5969,165.8245 105.4184,165.8602 105.2265,165.8697 L 105.1703,165.8707 L 105.1657,165.8707 C 104.6105,165.8625 104.0981,165.6028 103.7609,165.1391 L 103.7274,165.0897 C 103.6735,165.0037 103.6272,164.9169 103.5858,164.8243 L 103.563,164.7679 L 103.558,164.7541 L 103.5313,164.7624 L 103.4924,164.776 L 103.4548,164.7907 L 103.4184,164.8064 C 103.3189,164.8532 103.2273,164.9095 103.1396,164.976 L 103.1222,164.99 L 103.1054,165.0044 L 103.0894,165.019 C 103.0115,165.094 102.9568,165.1764 102.9245,165.2771 C 102.8739,165.4559 102.8979,165.6893 102.9402,165.8771 C 102.9771,165.9945 103.0495,166.0833 103.1228,166.1806 L 102.7322,166.4701 C 102.5032,166.1618 102.4493,165.9092 102.4173,165.5227 L 102.4154,165.4868 C 102.4083,165.1604 102.5323,164.8812 102.7573,164.6643 L 102.7841,164.64 C 102.9597,164.4897 103.1604,164.3777 103.3782,164.3013 L 103.4349,164.2836 L 103.4541,164.2784 L 103.4518,164.2436 C 103.4483,164.154 103.4504,164.0663 103.4584,163.9768 L 103.4634,163.9336 C 103.4871,163.763 103.5323,163.6028 103.6015,163.4451 L 103.6191,163.4073 C 103.7003,163.2442 103.8025,163.1007 103.924,162.967 L 103.924,162.967 z M 104.8302,162.9668 C 104.5135,163.061 104.262,163.2628 104.0985,163.5391 L 104.084,163.5651 C 103.9148,163.8862 103.8942,164.2579 104.017,164.5949 L 104.0334,164.635 C 104.1073,164.8003 104.2066,164.941 104.3391,165.0646 C 104.3763,165.0975 104.4144,165.1283 104.4545,165.1575 C 104.5883,165.2504 104.731,165.3145 104.8893,165.3532 C 104.9397,165.3643 104.9899,165.3725 105.0412,165.3784 C 105.3639,165.4068 105.6672,165.3197 105.9246,165.125 C 105.9646,165.0928 106.0024,165.0594 106.0392,165.0237 C 106.1878,164.8715 106.2933,164.6913 106.3534,164.4899 L 106.3613,164.4607 C 106.4163,164.2347 106.4113,164.0087 106.3447,163.7858 L 106.3354,163.757 L 106.3254,163.7287 L 106.3148,163.7007 L 106.3033,163.6728 L 106.2913,163.6452 C 106.216,163.4839 106.1136,163.3459 105.9814,163.2269 L 105.9613,163.2096 L 105.9408,163.1927 L 105.9201,163.1764 L 105.8991,163.1605 C 105.6634,162.9914 105.3951,162.9107 105.1037,162.9217 C 105.0102,162.9276 104.9206,162.9423 104.8302,162.9668 z "
         transform="matrix(11.751966,0,0,11.751966,-1343.2376,-1539.9456)"
         style="fill:#da2e2f"
         id="_144216368" />
      <path
         d="M 85.2923,151.025 L 81.6044,151.2829 L 81.5071,149.8919 C 81.49,149.6472 81.4889,149.4592 81.5031,149.3287 C 81.5205,149.1455 81.5674,148.9895 81.6438,148.8607 C 81.7194,148.7329 81.8319,148.6258 81.9786,148.5405 C 82.1262,148.4551 82.2911,148.4065 82.474,148.3937 C 82.7874,148.3717 83.0606,148.4527 83.2917,148.6368 C 83.5221,148.8217 83.6564,149.1747 83.6928,149.6959 L 83.759,150.6422 L 85.2582,150.5373 L 85.2923,151.025 L 85.2923,151.025 z M 83.3237,150.6726 L 83.2569,149.7186 C 83.2349,149.4035 83.1608,149.1835 83.034,149.0595 C 82.9071,148.9355 82.7376,148.8809 82.5246,148.8958 C 82.3701,148.9066 82.2405,148.9545 82.1361,149.0403 C 82.0316,149.1261 81.9667,149.2334 81.9404,149.3637 C 81.9247,149.4477 81.9241,149.5996 81.9396,149.8211 L 82.0056,150.7648 L 83.3237,150.6726 L 83.3237,150.6726 z M 85.1337,147.555 L 81.4508,147.2328 L 81.6837,144.5703 L 82.1185,144.6084 L 81.9282,146.7838 L 83.0557,146.8825 L 83.234,144.8451 L 83.6662,144.8829 L 83.4879,146.9203 L 84.7415,147.0299 L 84.9394,144.7688 L 85.3741,144.8068 L 85.1337,147.555 L 85.1337,147.555 z M 84.8799,141.2265 L 85.134,140.7899 C 85.4913,140.9989 85.7349,141.2613 85.8651,141.5753 C 85.9943,141.8899 86.0055,142.2316 85.8993,142.6023 C 85.7894,142.9854 85.6224,143.2742 85.398,143.4695 C 85.1729,143.6647 84.8946,143.7827 84.5633,143.823 C 84.2313,143.863 83.8955,143.8348 83.5563,143.7375 C 83.1864,143.6314 82.8839,143.4686 82.649,143.2481 C 82.414,143.0276 82.2623,142.7665 82.1941,142.464 C 82.1257,142.1623 82.1369,141.8548 82.2268,141.5412 C 82.3289,141.1854 82.5047,140.9126 82.7554,140.7221 C 83.0061,140.5316 83.3086,140.4357 83.6643,140.4347 L 83.6409,140.9285 C 83.3582,140.937 83.1362,141.0023 82.9728,141.1256 C 82.8096,141.2481 82.6945,141.4281 82.6261,141.6664 C 82.5478,141.9395 82.5479,142.1858 82.626,142.4069 C 82.7049,142.6284 82.8433,142.8077 83.0431,142.9447 C 83.2418,143.0823 83.4587,143.1848 83.6929,143.2519 C 83.9957,143.3387 84.2714,143.3703 84.5224,143.3474 C 84.7728,143.3234 84.9808,143.2353 85.1459,143.0811 C 85.3109,142.927 85.4241,142.7418 85.4862,142.525 C 85.5616,142.2619 85.5493,142.0175 85.4504,141.7913 C 85.3506,141.5648 85.16,141.3767 84.8799,141.2265 L 84.8799,141.2265 z M 83.1532,139.1136 L 84.3821,136.4783 L 87.7327,138.0407 L 87.5246,138.4869 L 84.5695,137.109 L 83.7554,138.8549 L 86.7104,140.2329 L 86.5038,140.676 L 83.1532,139.1136 z M 85.0036,135.595 L 85.2946,135.1946 L 87.835,135.5508 L 86.6226,133.3666 L 86.9085,132.9731 L 88.4193,135.7848 C 88.6082,136.137 88.7148,136.39 88.7399,136.5444 C 88.7645,136.6995 88.7161,136.8612 88.5947,137.0284 C 88.5203,137.1307 88.4054,137.2376 88.2503,137.3516 L 87.9118,137.1057 C 88.05,137.0444 88.1621,136.9545 88.2481,136.8361 C 88.3184,136.7393 88.3473,136.6337 88.3364,136.5184 C 88.3255,136.403 88.2405,136.2242 88.0815,135.9789 L 85.0036,135.595 L 85.0036,135.595 z M 87.3964,132.4899 L 89.0622,130.7649 L 89.3762,131.068 L 88.0505,132.4408 L 88.8703,133.2324 L 89.4832,132.5978 C 89.7098,132.3631 89.9121,132.1983 90.0912,132.1032 C 90.2692,132.0082 90.461,131.9781 90.6649,132.0147 C 90.8695,132.0507 91.0544,132.1479 91.2191,132.307 C 91.3535,132.4367 91.4493,132.5878 91.5089,132.7603 C 91.5673,132.9327 91.5765,133.114 91.5354,133.304 C 91.4949,133.4934 91.3371,133.7311 91.0615,134.0166 L 90.0558,135.058 L 87.3964,132.4899 L 87.3964,132.4899 z M 90.0969,134.4169 L 90.7761,133.7136 C 90.9597,133.5235 91.0583,133.3434 91.0723,133.1739 C 91.087,133.0038 91.0167,132.845 90.8619,132.6955 C 90.7517,132.589 90.6331,132.5272 90.5068,132.5105 C 90.3811,132.4932 90.2586,132.5222 90.1412,132.5954 C 90.0238,132.6687 89.8518,132.822 89.6263,133.0555 L 89.1731,133.5248 L 90.0969,134.4169 z M 90.7533,129.4187 L 92.6501,128.0907 L 94.7705,131.119 L 94.3694,131.3999 L 92.4992,128.729 L 91.4049,129.4953 L 92.4969,131.055 C 92.7186,131.3715 92.8663,131.6139 92.9398,131.782 C 93.0134,131.9501 93.0311,132.1089 92.9939,132.2569 C 92.956,132.4054 92.8641,132.5307 92.7181,132.6329 C 92.63,132.6946 92.5128,132.7524 92.3655,132.8062 L 92.1844,132.4034 C 92.2699,132.3845 92.3362,132.3591 92.3834,132.326 C 92.4744,132.2623 92.5179,132.1804 92.5163,132.0806 C 92.5136,131.9806 92.4236,131.8041 92.2463,131.5509 L 90.7533,129.4187 L 90.7533,129.4187 z M 94.2223,127.2218 L 94.6273,127.0415 L 95.818,129.7158 L 96.4241,126.2415 L 96.8738,126.0413 L 98.3775,129.4186 L 97.9718,129.5993 L 96.7839,126.9312 L 96.1726,130.4003 L 95.726,130.5991 L 94.2223,127.2218 L 94.2223,127.2218 z M 98.3217,125.573 L 98.798,125.4631 L 99.1622,127.0407 C 99.3803,126.9903 99.5233,126.9131 99.5926,126.8079 C 99.6611,126.7029 99.7277,126.4746 99.7911,126.1216 C 99.8365,125.8629 99.8801,125.677 99.9231,125.5646 C 99.9652,125.4524 100.0385,125.3489 100.1423,125.2552 C 100.2469,125.1613 100.3709,125.0973 100.5151,125.064 C 100.6988,125.0216 100.7956,125.001 100.8064,125.002 L 100.9017,125.4147 C 100.885,125.4185 100.8529,125.4251 100.8047,125.4344 C 100.7523,125.4448 100.7202,125.4513 100.7085,125.454 C 100.5559,125.4892 100.452,125.5521 100.3952,125.6429 C 100.3368,125.7342 100.2868,125.9118 100.2459,126.1747 C 100.1954,126.5071 100.1374,126.7227 100.072,126.8218 C 100.0063,126.92 99.9212,127.0068 99.8165,127.0813 C 100.0636,127.0914 100.3421,127.2532 100.6528,127.5658 L 101.6719,128.5938 L 101.0798,128.7305 L 100.2518,127.8916 C 100.0242,127.6597 99.8422,127.5065 99.7081,127.4305 C 99.5733,127.3557 99.4174,127.3386 99.2405,127.3795 L 99.6297,129.0653 L 99.1533,129.1753 L 98.3217,125.573 L 98.3217,125.573 z M 101.6548,128.4925 L 102.8137,124.7055 L 103.3391,124.6688 L 105.1066,128.2512 L 104.5502,128.2901 L 104.0419,127.203 L 102.4997,127.3108 L 102.1734,128.4563 L 101.6548,128.4925 L 101.6548,128.4925 z M 102.6127,126.9034 L 103.8638,126.816 L 103.4069,125.822 C 103.2684,125.5202 103.163,125.2712 103.0923,125.0752 C 103.0617,125.3154 103.0119,125.5545 102.9424,125.7941 L 102.6127,126.9034 L 102.6127,126.9034 z M 107.5842,124.7152 L 108.0208,124.7921 L 107.5124,127.6751 L 109.9577,125.1337 L 110.4426,125.2192 L 109.8006,128.8599 L 109.3632,128.7828 L 109.8703,125.9066 L 107.4237,128.4408 L 106.9422,128.3559 L 107.5842,124.7152 L 107.5842,124.7152 z M 110.6403,129.0532 L 111.9652,125.6018 L 112.4224,125.7773 L 111.8783,127.1948 L 113.6719,127.8833 L 114.216,126.4658 L 114.6733,126.6413 L 113.3484,130.0927 L 112.8911,129.9172 L 113.5155,128.2907 L 111.7219,127.6023 L 111.0976,129.2287 L 110.6403,129.0532 L 110.6403,129.0532 z M 115.8737,127.2631 L 117.9643,128.422 L 117.7527,128.8036 L 116.0897,127.8818 L 114.509,130.7336 L 114.0814,130.4965 L 115.8737,127.2631 L 115.8737,127.2631 z M 118.4569,128.7961 L 118.8469,129.1009 L 118.4022,131.6273 L 120.6274,130.4919 L 121.0106,130.7914 L 118.1479,132.2031 C 117.7894,132.3796 117.5328,132.4773 117.3776,132.497 C 117.2217,132.5161 117.0618,132.4622 116.899,132.335 C 116.7993,132.2571 116.6965,132.1385 116.588,131.9795 L 116.8456,131.6498 C 116.902,131.7901 116.9879,131.9052 117.1032,131.9953 C 117.1975,132.069 117.3021,132.1015 117.4177,132.0947 C 117.5334,132.0878 117.7151,132.0091 117.9658,131.8588 L 118.4569,128.7961 L 118.4569,128.7961 z M 121.776,131.5894 L 122.0967,131.9584 L 119.6359,134.0975 L 120.4418,135.0245 L 122.9026,132.8854 L 123.2233,133.2544 L 120.7626,135.3935 L 121.5684,136.3205 L 124.0292,134.1814 L 124.3499,134.5504 L 121.5598,136.9758 L 118.9859,134.0148 L 121.776,131.5894 L 121.776,131.5894 z M 121.9402,137.736 L 125.2044,136.0004 L 126.4592,138.3602 L 126.0739,138.5651 L 125.0487,136.637 L 124.0493,137.1684 L 125.0094,138.9741 L 124.6264,139.1778 L 123.6662,137.372 L 122.5551,137.9628 L 123.6207,139.9669 L 123.2354,140.1718 L 121.9402,137.736 L 121.9402,137.736 z M 123.7698,141.6885 L 126.8528,140.6269 L 126.4562,139.4753 L 126.8688,139.3332 L 127.8228,142.1036 L 127.4101,142.2457 L 127.0119,141.0892 L 123.929,142.1507 L 123.7698,141.6885 L 123.7698,141.6885 z M 128.1402,143.3054 L 128.2019,143.7444 L 125.303,144.1518 L 128.4756,145.692 L 128.5442,146.1796 L 124.8832,146.6941 L 124.8214,146.2543 L 127.7135,145.8478 L 124.5473,144.304 L 124.4792,143.8199 L 128.1402,143.3054 L 128.1402,143.3054 z M 124.8235,150.4073 L 128.5199,150.4718 L 128.5485,148.8332 C 128.5542,148.5035 128.525,148.2525 128.4618,148.0801 C 128.3985,147.9077 128.2838,147.7688 128.1178,147.6626 C 127.9509,147.5572 127.7659,147.5032 127.5628,147.4996 C 127.3003,147.4951 127.0785,147.5756 126.8957,147.7428 C 126.7128,147.9092 126.5938,148.1697 126.5385,148.5234 C 126.4788,148.3924 126.4195,148.2932 126.3595,148.225 C 126.2312,148.0799 126.0692,147.9419 125.8752,147.8102 L 124.8803,147.1498 L 124.8696,147.7651 L 125.6305,148.2674 C 125.8492,148.4141 126.0175,148.535 126.1329,148.63 C 126.2492,148.7241 126.3304,148.8082 126.3756,148.8822 C 126.4217,148.9562 126.4531,149.0307 126.4707,149.1068 C 126.4809,149.1629 126.4853,149.2534 126.4831,149.3799 L 126.4732,149.9471 L 124.832,149.9184 L 124.8235,150.4073 z M 126.8967,149.9545 L 126.915,148.9028 C 126.9189,148.6799 126.9452,148.5047 126.9939,148.3799 C 127.0426,148.2542 127.1182,148.1599 127.2209,148.0963 C 127.3236,148.0327 127.4344,148.0019 127.554,148.004 C 127.7287,148.007 127.8713,148.0724 127.9818,148.2017 C 128.0924,148.3302 128.1448,148.5317 128.14,148.8062 L 128.1196,149.9758 L 126.8967,149.9545 L 126.8967,149.9545 z "
         transform="matrix(11.751966,0,0,11.751966,-1343.2376,-1539.9456)"
         style="fill:#da2e2f;fill-rule:nonzero;stroke:#da2e2f;stroke-width:0.0762;stroke-linecap:round;stroke-linejoin:round"
         id="_144216264" />
      <path
         d="M 88.2758,159.603 L 89.6468,161.561 L 89.2893,161.8113 L 88.1987,160.2538 L 85.5279,162.124 L 85.2474,161.7235 L 88.2758,159.603 L 88.2758,159.603 z M 87.7907,164.7903 L 90.4945,162.269 L 90.8279,162.6265 L 88.1241,165.1478 L 87.7907,164.7903 z M 89.1099,166.0856 L 92.5402,164.1063 L 92.9496,164.4378 L 91.799,168.2632 L 91.3655,167.9121 L 91.7352,166.7705 L 90.5337,165.7976 L 89.514,166.4127 L 89.1099,166.0856 L 89.1099,166.0856 z M 90.8943,165.5767 L 91.8689,166.3659 L 92.2126,165.3274 C 92.3172,165.0122 92.4099,164.7583 92.4919,164.5667 C 92.3056,164.7215 92.1062,164.8624 91.892,164.9902 L 90.8943,165.5767 L 90.8943,165.5767 z M 94.9587,165.7533 L 96.964,166.9111 L 95.1155,170.1127 L 94.6913,169.8678 L 96.3216,167.0441 L 95.1647,166.3762 L 94.2127,168.0251 C 94.0195,168.3598 93.8622,168.596 93.741,168.7337 C 93.6197,168.8715 93.4832,168.9546 93.3334,168.9835 C 93.1828,169.0118 93.0304,168.9815 92.8761,168.8924 C 92.7829,168.8386 92.681,168.7569 92.57,168.6461 L 92.8585,168.3117 C 92.9118,168.3812 92.9628,168.4306 93.0128,168.4594 C 93.1089,168.5149 93.2016,168.5197 93.2913,168.4761 C 93.3808,168.4313 93.5028,168.2752 93.6573,168.0075 L 94.9587,165.7533 L 94.9587,165.7533 z M 97.9865,167.272 L 100.2466,168.0502 L 100.1045,168.4628 L 98.3067,167.8438 L 97.2452,170.9267 L 96.7829,170.7675 L 97.9865,167.272 z M 100.3986,171.7331 L 101.2929,168.146 L 101.7673,168.2643 L 100.873,171.8514 L 100.3986,171.7331 z M 102.2485,172.029 L 103.9855,168.4699 L 104.5103,168.5158 L 105.6955,172.3306 L 105.1399,172.282 L 104.8079,171.1288 L 103.2679,170.9941 L 102.7664,172.0743 L 102.2485,172.029 L 102.2485,172.029 z M 103.4432,170.6093 L 104.6926,170.7186 L 104.3968,169.6654 C 104.3073,169.3457 104.2421,169.0833 104.2029,168.8786 C 104.1351,169.1111 104.0486,169.3395 103.9424,169.5652 L 103.4432,170.6093 L 103.4432,170.6093 z M 106.4673,168.4663 L 106.909,168.4277 L 107.1641,171.344 L 108.8683,168.2563 L 109.3588,168.2134 L 109.681,171.8962 L 109.2385,171.9349 L 108.984,169.0255 L 107.2766,172.1066 L 106.7896,172.1492 L 106.4673,168.4663 L 106.4673,168.4663 z M 108.2223,167.4297 L 108.531,167.4027 C 108.5244,167.6141 108.4622,167.782 108.3433,167.9047 C 108.2254,168.0282 108.0597,168.0998 107.8471,168.1184 C 107.6327,168.1371 107.4563,168.0963 107.3188,167.9961 C 107.1804,167.8958 107.09,167.7413 107.0467,167.5325 L 107.3554,167.5055 C 107.3885,167.6176 107.4431,167.6983 107.5174,167.748 C 107.5918,167.7985 107.6876,167.8178 107.8043,167.8076 C 107.9406,167.7956 108.0404,167.7601 108.105,167.6992 C 108.1697,167.6391 108.2094,167.5492 108.2223,167.4297 L 108.2223,167.4297 z M 111.7519,171.2336 L 110.5483,167.738 L 111.2449,167.4981 L 112.924,169.6884 C 113.0798,169.8924 113.1954,170.0455 113.2691,170.1486 C 113.2652,170.0079 113.2626,169.7994 113.2624,169.5236 L 113.2617,166.8037 L 113.8843,166.5894 L 115.0879,170.0849 L 114.6419,170.2384 L 113.6344,167.3126 L 113.6262,170.5882 L 113.2087,170.7319 L 111.1733,168.1045 L 112.1979,171.08 L 111.7519,171.2336 L 111.7519,171.2336 z M 115.1394,168.0595 C 114.8052,167.5448 114.6815,167.0524 114.769,166.5819 C 114.8566,166.1115 115.1185,165.734 115.556,165.4499 C 115.8418,165.2643 116.1449,165.1651 116.463,165.1524 C 116.7816,165.1405 117.0808,165.2171 117.3603,165.3836 C 117.6393,165.5493 117.8797,165.7883 118.0808,166.098 C 118.2852,166.4127 118.4053,166.7351 118.439,167.0652 C 118.4732,167.396 118.4154,167.7005 118.2659,167.9792 C 118.1157,168.2584 117.9065,168.4846 117.6372,168.6594 C 117.3448,168.8493 117.0387,168.9485 116.7173,168.9561 C 116.3956,168.9649 116.0965,168.8851 115.8196,168.718 C 115.5432,168.5516 115.3162,168.3316 115.1394,168.0595 L 115.1394,168.0595 z M 115.5667,167.7912 C 115.8095,168.1652 116.1007,168.3938 116.4411,168.4786 C 116.7822,168.563 117.104,168.5069 117.4072,168.31 C 117.7161,168.1094 117.8999,167.8361 117.9581,167.4894 C 118.0162,167.1427 117.9164,166.7693 117.6571,166.3701 C 117.4935,166.1181 117.3072,165.9261 117.0997,165.793 C 116.8921,165.6599 116.6726,165.5952 116.4412,165.5976 C 116.2095,165.6013 115.9917,165.6689 115.7874,165.8015 C 115.4965,165.9905 115.3114,166.2523 115.2319,166.5882 C 115.1519,166.9234 115.2639,167.3249 115.5667,167.7912 L 115.5667,167.7912 z M 119.6733,167.1603 L 119.4892,164.7679 L 117.3759,164.2589 L 117.815,163.8772 L 118.944,164.1526 C 119.178,164.2092 119.3521,164.2586 119.4658,164.3001 C 119.44,164.1445 119.4214,163.9748 119.4105,163.7904 L 119.3286,162.5614 L 119.7301,162.2124 L 119.8928,164.3794 L 122.2315,164.9365 L 121.7748,165.3335 L 120.2075,164.9487 C 120.1181,164.926 120.0236,164.8986 119.9233,164.8684 C 119.949,165.0239 119.9652,165.1319 119.9719,165.1933 L 120.117,166.7746 L 119.6733,167.1603 L 119.6733,167.1603 z M 120.089,161.7899 L 120.39,161.4046 L 121.6659,162.4014 C 121.8036,162.2251 121.8662,162.0751 121.8539,161.9497 C 121.841,161.8249 121.749,161.6057 121.5762,161.2915 C 121.4487,161.0618 121.3656,160.8899 121.3283,160.7755 C 121.2904,160.6618 121.2822,160.5353 121.3039,160.3971 C 121.3261,160.2582 121.3822,160.1305 121.4733,160.0139 C 121.5893,159.8654 121.6516,159.7884 121.6607,159.7824 L 121.9944,160.0431 C 121.9838,160.0567 121.963,160.0819 121.9315,160.1195 C 121.8972,160.1605 121.8764,160.1857 121.869,160.1952 C 121.7726,160.3187 121.7314,160.4329 121.7445,160.5392 C 121.7565,160.6469 121.8294,160.8164 121.9631,161.0465 C 122.133,161.3366 122.2237,161.5406 122.2351,161.6588 C 122.2459,161.7765 122.2344,161.8975 122.1999,162.0213 C 122.3983,161.8737 122.7166,161.8241 123.1547,161.8715 L 124.5937,162.0291 L 124.2195,162.5079 L 123.0481,162.377 C 122.7253,162.34 122.4875,162.3355 122.3355,162.3609 C 122.1836,162.3875 122.0517,162.4724 121.9399,162.6155 L 123.3033,163.6807 L 123.0023,164.0659 L 120.089,161.7899 L 120.089,161.7899 z "
         transform="matrix(11.751966,0,0,11.751966,-1343.2376,-1539.9456)"
         style="fill:#da2e2f;fill-rule:nonzero;stroke:#da2e2f;stroke-width:0.0762;stroke-linecap:round;stroke-linejoin:round"
         id="_144215776" />
      <path
         d="M 103.468,161.219 L 103.3157,161.2016 L 102.976,161.1541 L 102.6391,161.0982 L 102.3049,161.0342 L 101.9737,160.9621 L 101.6456,160.882 L 101.3206,160.794 L 100.9989,160.6983 L 100.6806,160.5949 L 100.3657,160.484 L 100.0544,160.3656 L 99.7467,160.2399 L 99.4429,160.107 L 99.1431,159.9669 L 98.8472,159.8199 L 98.5555,159.6659 L 98.268,159.5052 L 97.9847,159.3377 L 97.706,159.1637 L 97.4318,158.9832 L 97.1623,158.7963 L 96.8975,158.6032 L 96.6377,158.404 L 96.3827,158.1987 L 96.1329,157.9874 L 95.8882,157.7703 L 95.6489,157.5475 L 95.4149,157.3191 L 95.1865,157.0851 L 94.9637,156.8458 L 94.7467,156.6011 L 94.5354,156.3513 L 94.3301,156.0964 L 94.1309,155.8365 L 93.9378,155.5717 L 93.7509,155.3023 L 93.5704,155.028 L 93.3964,154.7493 L 93.229,154.4661 L 93.1255,154.2811 L 93.4725,154.2811 L 93.4916,154.3151 L 93.6553,154.592 L 93.8254,154.8645 L 94.0019,155.1327 L 94.1846,155.3961 L 94.3734,155.655 L 94.5683,155.9092 L 94.7691,156.1585 L 94.9757,156.4028 L 95.1879,156.642 L 95.4058,156.8761 L 95.6291,157.1049 L 95.8579,157.3282 L 96.092,157.5461 L 96.3312,157.7584 L 96.5755,157.965 L 96.8248,158.1657 L 97.079,158.3606 L 97.3379,158.5494 L 97.6014,158.7322 L 97.8696,158.9086 L 98.1421,159.0788 L 98.419,159.2425 L 98.7001,159.3997 L 98.9854,159.5502 L 99.2746,159.694 L 99.5678,159.8309 L 99.8648,159.9609 L 100.1655,160.0837 L 100.4699,160.1995 L 100.7777,160.3079 L 101.0889,160.409 L 101.4034,160.5026 L 101.7211,160.5885 L 102.0419,160.6669 L 102.3657,160.7374 L 102.6923,160.8 L 103.0218,160.8546 L 103.3539,160.9011 L 103.6885,160.9394 L 104.0257,160.9693 L 104.0533,160.971 L 104.0534,160.971 C 104.3856,160.8652 104.7395,160.8078 105.1068,160.8078 C 105.4659,160.8078 105.8123,160.8625 106.1381,160.9639 L 106.4138,160.9394 L 106.7485,160.9011 L 107.0806,160.8546 L 107.41,160.8 L 107.7366,160.7374 L 108.0604,160.6668 L 108.3812,160.5885 L 108.6989,160.5025 L 109.0133,160.409 L 109.3246,160.3079 L 109.6324,160.1994 L 109.9367,160.0837 L 110.2374,159.9609 L 110.5344,159.8309 L 110.8276,159.694 L 111.1168,159.5502 L 111.4021,159.3997 L 111.6832,159.2425 L 111.9601,159.0789 L 112.2326,158.9087 L 112.5007,158.7322 L 112.7643,158.5495 L 113.0232,158.3607 L 113.2773,158.1658 L 113.5265,157.9651 L 113.7709,157.7585 L 114.0101,157.5462 L 114.2441,157.3283 L 114.4728,157.105 L 114.6963,156.8762 L 114.9142,156.6422 L 115.1265,156.4029 L 115.333,156.1586 L 115.5338,155.9093 L 115.7287,155.6552 L 115.9175,155.3962 L 116.1002,155.1327 L 116.2768,154.8646 L 116.4469,154.592 L 116.6106,154.3151 L 116.6296,154.2811 L 116.9767,154.2811 L 116.8732,154.4662 L 116.7058,154.7494 L 116.5318,155.0281 L 116.3513,155.3023 L 116.1644,155.5718 L 115.9713,155.8366 L 115.7721,156.0965 L 115.5667,156.3514 L 115.3554,156.6013 L 115.1384,156.8459 L 114.9155,157.0853 L 114.6871,157.3192 L 114.4532,157.5476 L 114.2138,157.7704 L 113.9692,157.9874 L 113.7194,158.1987 L 113.4645,158.404 L 113.2046,158.6032 L 112.9398,158.7964 L 112.6703,158.9832 L 112.3961,159.1637 L 112.1174,159.3377 L 111.8343,159.5052 L 111.5467,159.6659 L 111.255,159.8198 L 110.9591,159.9669 L 110.6592,160.1069 L 110.3554,160.2399 L 110.0479,160.3656 L 109.7366,160.4839 L 109.4218,160.5948 L 109.1034,160.6983 L 108.7817,160.794 L 108.4567,160.8819 L 108.1286,160.962 L 107.7974,161.0342 L 107.4633,161.0982 L 107.1264,161.1541 L 106.7868,161.2016 L 106.7257,161.2086 C 106.983,161.3447 107.2213,161.5121 107.4351,161.706 L 107.4309,161.7022 L 107.4266,161.6983 L 107.4222,161.6945 L 107.5666,161.6706 L 107.9148,161.6038 L 108.2601,161.5286 L 108.6022,161.4451 L 108.941,161.3534 L 109.2764,161.2536 L 109.6083,161.1458 L 109.9365,161.0302 L 110.261,160.9068 L 110.5816,160.7758 L 110.8984,160.6372 L 111.211,160.4912 L 111.5195,160.3378 L 111.8236,160.1773 L 112.1234,160.0097 L 112.4187,159.8352 L 112.7093,159.6537 L 112.9952,159.4656 L 113.2762,159.2707 L 113.5523,159.0693 L 113.8233,158.8615 L 114.0891,158.6475 L 114.3496,158.4272 L 114.6047,158.2008 L 114.8543,157.9685 L 115.0982,157.7303 L 115.3364,157.4863 L 115.5688,157.2368 L 115.7952,156.9816 L 116.0154,156.7211 L 116.2296,156.4552 L 116.4374,156.1842 L 116.6388,155.9081 L 116.8336,155.6271 L 117.0218,155.3412 L 117.2033,155.0506 L 117.3778,154.7553 L 117.5454,154.4556 L 117.6375,154.2811 L 117.9798,154.2811 L 117.9756,154.2895 L 117.8117,154.6002 L 117.6405,154.9064 L 117.4622,155.2079 L 117.2769,155.5047 L 117.0846,155.7967 L 116.8857,156.0837 L 116.68,156.3657 L 116.4678,156.6425 L 116.2491,156.914 L 116.0242,157.18 L 115.793,157.4405 L 115.5557,157.6954 L 115.3124,157.9446 L 115.0634,158.1877 L 114.8085,158.425 L 114.548,158.6562 L 114.2819,158.8812 L 114.0105,159.0998 L 113.7337,159.312 L 113.4518,159.5176 L 113.1647,159.7166 L 112.8728,159.9088 L 112.576,160.0941 L 112.2744,160.2724 L 111.9682,160.4436 L 111.6576,160.6075 L 111.3425,160.7641 L 111.0232,160.9132 L 110.6996,161.0548 L 110.3721,161.1886 L 110.0407,161.3147 L 109.7054,161.4328 L 109.3664,161.5429 L 109.0238,161.6448 L 108.6777,161.7385 L 108.3283,161.8238 L 107.9756,161.9006 L 107.6845,161.9564 L 107.6807,161.9521 L 107.6739,161.9446 C 107.8563,162.1454 108.0153,162.3676 108.147,162.6071 L 108.1305,162.5773 L 108.4852,162.5 L 108.8513,162.4107 L 109.2139,162.3125 L 109.5728,162.2058 L 109.928,162.0904 L 110.2792,161.9667 L 110.6265,161.8346 L 110.9696,161.6944 L 111.3086,161.5461 L 111.6432,161.3898 L 111.9733,161.2258 L 112.2988,161.054 L 112.6196,160.8746 L 112.9356,160.6878 L 113.2466,160.4936 L 113.5525,160.2923 L 113.8533,160.0837 L 114.1487,159.8682 L 114.4388,159.6458 L 114.7232,159.4168 L 115.002,159.181 L 115.275,158.9388 L 115.5421,158.6901 L 115.8031,158.4352 L 116.0581,158.1741 L 116.3067,157.9071 L 116.549,157.634 L 116.7847,157.3552 L 117.0139,157.0707 L 117.2363,156.7807 L 117.4518,156.4853 L 117.6602,156.1845 L 117.8617,155.8785 L 118.0559,155.5675 L 118.2427,155.2515 L 118.422,154.9307 L 118.5939,154.6052 L 118.7549,154.2811 L 119.0894,154.2811 L 119.0309,154.4066 L 118.8635,154.7433 L 118.6883,155.0753 L 118.5053,155.4025 L 118.3148,155.7248 L 118.1167,156.042 L 117.9113,156.3541 L 117.6987,156.6609 L 117.4789,156.9622 L 117.2521,157.258 L 117.0184,157.5481 L 116.778,157.8324 L 116.5309,158.1108 L 116.2774,158.3832 L 116.0174,158.6495 L 115.7512,158.9094 L 115.4788,159.163 L 115.2004,159.41 L 114.9161,159.6505 L 114.626,159.8841 L 114.3302,160.1108 L 114.0289,160.3306 L 113.7221,160.5433 L 113.4101,160.7486 L 113.0929,160.9467 L 112.7707,161.1372 L 112.4434,161.3202 L 112.1115,161.4953 L 111.7747,161.6627 L 111.4335,161.8221 L 111.0877,161.9734 L 110.7377,162.1164 L 110.3834,162.2511 L 110.0251,162.3773 L 109.6628,162.495 L 109.2967,162.6039 L 108.9269,162.7041 L 108.5535,162.7952 L 108.2716,162.8566 L 108.2695,162.8522 C 108.4653,163.2864 108.5742,163.7681 108.5742,164.2752 C 108.5742,166.1899 107.0215,167.7427 105.1068,167.7427 C 103.1921,167.7427 101.6394,166.1899 101.6394,164.2752 C 101.6394,163.7784 101.7442,163.3059 101.9325,162.8787 L 101.9258,162.8774 L 101.5489,162.7952 L 101.1755,162.7041 L 100.8057,162.604 L 100.4395,162.4951 L 100.0773,162.3774 L 99.7189,162.2511 L 99.3646,162.1164 L 99.0145,161.9734 L 98.6688,161.8221 L 98.3276,161.6627 L 97.9908,161.4954 L 97.6588,161.3202 L 97.3316,161.1372 L 97.0093,160.9467 L 96.6921,160.7486 L 96.38,160.5432 L 96.0733,160.3306 L 95.772,160.1108 L 95.4762,159.884 L 95.186,159.6503 L 94.9017,159.4099 L 94.6233,159.1628 L 94.351,158.9093 L 94.0847,158.6493 L 93.8247,158.383 L 93.5712,158.1107 L 93.3241,157.8323 L 93.0837,157.548 L 92.8501,157.2578 L 92.6233,156.9621 L 92.4035,156.6607 L 92.1909,156.354 L 91.9855,156.042 L 91.7875,155.7248 L 91.5969,155.4025 L 91.4139,155.0753 L 91.2388,154.7433 L 91.0714,154.4066 L 91.0128,154.2811 L 91.3473,154.2811 L 91.5084,154.6052 L 91.6801,154.9307 L 91.8595,155.2515 L 92.0463,155.5674 L 92.2406,155.8784 L 92.4419,156.1845 L 92.6504,156.4852 L 92.8659,156.7806 L 93.0883,157.0706 L 93.3174,157.3551 L 93.5531,157.6339 L 93.7954,157.9069 L 94.044,158.174 L 94.2989,158.4351 L 94.56,158.69 L 94.8271,158.9387 L 95.1001,159.1809 L 95.3789,159.4167 L 95.6634,159.6458 L 95.9534,159.8682 L 96.2489,160.0836 L 96.5496,160.2922 L 96.8556,160.4935 L 97.1667,160.6878 L 97.4826,160.8746 L 97.8034,161.054 L 98.129,161.2257 L 98.4591,161.3898 L 98.7937,161.5461 L 99.1326,161.6944 L 99.4758,161.8346 L 99.8231,161.9667 L 100.1744,162.0904 L 100.5295,162.2058 L 100.8885,162.3126 L 101.251,162.4107 L 101.6171,162.5001 L 101.9866,162.5806 L 102.0723,162.597 C 102.1965,162.3729 102.3448,162.1641 102.5136,161.9739 L 102.4825,161.9688 L 102.1267,161.9007 L 101.774,161.8238 L 101.4246,161.7386 L 101.0786,161.6448 L 100.7359,161.5429 L 100.3969,161.4328 L 100.0616,161.3147 L 99.7301,161.1887 L 99.4025,161.0548 L 99.0791,160.9132 L 98.7597,160.7641 L 98.4446,160.6075 L 98.1339,160.4436 L 97.8278,160.2724 L 97.5262,160.0941 L 97.2294,159.9088 L 96.9374,159.7166 L 96.6504,159.5175 L 96.3684,159.3119 L 96.0917,159.0997 L 95.8202,158.8811 L 95.5542,158.6561 L 95.2936,158.4249 L 95.0388,158.1877 L 94.7896,157.9444 L 94.5464,157.6953 L 94.3091,157.4404 L 94.078,157.1799 L 93.853,156.9139 L 93.6344,156.6424 L 93.4222,156.3656 L 93.2165,156.0837 L 93.0175,155.7967 L 92.8253,155.5047 L 92.6401,155.2079 L 92.4618,154.9063 L 92.2906,154.6001 L 92.1266,154.2894 L 92.1225,154.2811 L 92.4647,154.2811 L 92.5568,154.4555 L 92.7244,154.7553 L 92.899,155.0505 L 93.0805,155.3412 L 93.2686,155.6271 L 93.4635,155.9081 L 93.6648,156.1842 L 93.8726,156.4552 L 94.0867,156.721 L 94.307,156.9815 L 94.5333,157.2366 L 94.7657,157.4862 L 95.0038,157.7302 L 95.2478,157.9684 L 95.4974,158.2007 L 95.7525,158.4271 L 96.013,158.6474 L 96.2789,158.8615 L 96.5499,159.0693 L 96.826,159.2706 L 97.107,159.4655 L 97.393,159.6537 L 97.6836,159.8351 L 97.9788,160.0097 L 98.2786,160.1773 L 98.5828,160.3378 L 98.8912,160.4912 L 99.2039,160.6372 L 99.5206,160.7758 L 99.8413,160.9068 L 100.1658,161.0302 L 100.4941,161.1458 L 100.8259,161.2536 L 101.1614,161.3534 L 101.5002,161.4451 L 101.8422,161.5286 L 102.1875,161.6038 L 102.5358,161.6706 L 102.774,161.7101 L 102.774,161.7101 C 102.9835,161.5194 103.2165,161.3542 103.468,161.219 L 103.468,161.219 z M 106.1505,160.9679 C 106.1665,160.973 106.1825,160.9781 106.1985,160.9835 C 106.1826,160.9782 106.1665,160.973 106.1505,160.9679 z M 106.2094,160.987 L 106.2349,160.9958 L 106.2281,160.9934 L 106.214,160.9886 L 106.2094,160.987 L 106.2094,160.987 z M 107.4399,161.7103 C 107.5211,161.7843 107.5989,161.8621 107.6728,161.9434 L 107.6686,161.9387 C 107.6536,161.9223 107.6385,161.906 107.6232,161.8899 L 107.6126,161.8788 C 107.5954,161.8608 107.578,161.843 107.5604,161.8254 L 107.5552,161.8202 C 107.5373,161.8024 107.5193,161.7847 107.501,161.7673 L 107.4946,161.7613 L 107.4904,161.7573 C 107.4764,161.744 107.4623,161.7309 107.448,161.7178 L 107.4438,161.7139 L 107.4435,161.7137 L 107.4399,161.7103 L 107.4399,161.7103 z M 108.1656,162.6415 C 108.1733,162.6558 108.1809,162.6701 108.1884,162.6846 C 108.1809,162.6701 108.1733,162.6558 108.1656,162.6415 z M 108.1973,162.7019 C 108.2077,162.7223 108.2179,162.7428 108.2279,162.7633 C 108.2178,162.7428 108.2077,162.7223 108.1973,162.7019 z M 108.2345,162.7769 C 108.2455,162.7999 108.2563,162.823 108.2668,162.8462 C 108.2563,162.823 108.2455,162.7999 108.2345,162.7769 z M 102.6435,161.8354 L 102.6609,161.8179 L 102.6486,161.8303 L 102.6445,161.8344 M 102.6657,161.8131 C 102.6786,161.8003 102.6916,161.7876 102.7047,161.7751 C 102.6917,161.7877 102.6787,161.8002 102.6657,161.8131 z M 102.7212,161.7592 C 102.7372,161.744 102.7535,161.7289 102.7698,161.714 C 102.7535,161.7289 102.7373,161.744 102.7212,161.7592 z M 105.1068,161.0894 C 106.866,161.0894 108.2927,162.516 108.2927,164.2753 C 108.2927,166.0345 106.866,167.4612 105.1068,167.4612 C 103.3475,167.4612 101.9209,166.0345 101.9209,164.2753 C 101.9209,162.516 103.3475,161.0894 105.1068,161.0894 z M 102.6435,161.8354 L 102.643,161.8359 L 102.6403,161.8387 L 102.6398,161.8392 L 102.6392,161.8398 L 102.6387,161.8403 L 102.6381,161.8409 L 102.6376,161.8414 L 102.637,161.842 L 102.6365,161.8425 L 102.6354,161.8436 L 102.6354,161.8437 L 102.6348,161.8442 L 102.6343,161.8448 L 102.6341,161.8449 L 102.6333,161.8458 L 102.6327,161.8464 L 102.6322,161.8469 L 102.6316,161.8475 L 102.6311,161.848 L 102.6305,161.8486 L 102.6251,161.8542 L 102.6251,161.8542 L 102.6246,161.8547 L 102.624,161.8553 L 102.6235,161.8558 L 102.6181,161.8614 L 102.6175,161.862 L 102.6166,161.8629 L 102.6165,161.8631 L 102.616,161.8636 L 102.6154,161.8642 L 102.6149,161.8647 L 102.6143,161.8653 L 102.6138,161.8659 L 102.6132,161.8665 L 102.6127,161.867 L 102.6121,161.8676 L 102.6116,161.8681 L 102.611,161.8687 L 102.6105,161.8692 L 102.6099,161.8698 L 102.6097,161.8699"
         transform="matrix(11.751966,0,0,11.751966,-1343.2376,-1539.9456)"
         style="fill:#008a80"
         id="_144215368" />
      <path
         d="M 104.571,140.035 L 104.571,139.6588 L 104.4305,139.6588 L 104.4305,139.6084 L 104.7686,139.6084 L 104.7686,139.6588 L 104.6274,139.6588 L 104.6274,140.035 L 104.571,140.035 z M 104.7825,139.8272 C 104.7825,139.7564 104.8015,139.701 104.8395,139.661 C 104.8775,139.6209 104.9266,139.6009 104.9868,139.6009 C 105.0261,139.6009 105.0617,139.6103 105.0933,139.6291 C 105.1249,139.648 105.149,139.6742 105.1656,139.7078 C 105.1821,139.7414 105.1904,139.7797 105.1904,139.8223 C 105.1904,139.8656 105.1818,139.9043 105.1643,139.9384 C 105.1468,139.9725 105.1221,139.9984 105.0901,140.016 C 105.058,140.0335 105.0235,140.0423 104.9865,140.0423 C 104.9462,140.0423 104.9104,140.0326 104.8788,140.0132 C 104.8471,139.9938 104.8232,139.9673 104.8069,139.9337 C 104.7906,139.9002 104.7825,139.8647 104.7825,139.8272 L 104.7825,139.8272 z M 104.8407,139.8281 C 104.8407,139.8796 104.8545,139.92 104.8821,139.9496 C 104.9098,139.9792 104.9445,139.994 104.9862,139.994 C 105.0287,139.994 105.0636,139.9791 105.0911,139.9492 C 105.1185,139.9193 105.1323,139.8769 105.1323,139.822 C 105.1323,139.7873 105.1263,139.757 105.1146,139.7311 C 105.1029,139.7052 105.0857,139.6851 105.0632,139.6708 C 105.0405,139.6566 105.0152,139.6495 104.9871,139.6495 C 104.9471,139.6495 104.9127,139.6632 104.8839,139.6907 C 104.8551,139.7181 104.8407,139.764 104.8407,139.8281 z M 105.193,140.035 L 105.358,139.8127 L 105.2125,139.6084 L 105.2797,139.6084 L 105.3571,139.7179 C 105.3732,139.7405 105.3846,139.758 105.3914,139.7702 C 105.4009,139.7547 105.4122,139.7385 105.4252,139.7217 L 105.5111,139.6084 L 105.5725,139.6084 L 105.4226,139.8095 L 105.5841,140.035 L 105.5142,140.035 L 105.4069,139.8828 C 105.4008,139.8741 105.3947,139.8646 105.3882,139.8544 C 105.3787,139.8698 105.3719,139.8805 105.3678,139.8863 L 105.2608,140.035 L 105.193,140.035 L 105.193,140.035 z M 105.5869,140.035 L 105.7508,139.6084 L 105.8116,139.6084 L 105.9862,140.035 L 105.9218,140.035 L 105.8721,139.9058 L 105.6937,139.9058 L 105.6469,140.035 L 105.5869,140.035 L 105.5869,140.035 z M 105.71,139.8598 L 105.8547,139.8598 L 105.8101,139.7417 C 105.7966,139.7059 105.7865,139.6764 105.7799,139.6532 C 105.7745,139.6807 105.7668,139.7078 105.7569,139.7348 L 105.71,139.8598 L 105.71,139.8598 z "
         transform="matrix(11.751966,0,0,11.751966,-1343.2376,-1539.9456)"
         style="fill:#1f1a17;fill-rule:nonzero"
         id="_144220104" />
      <path
         d="M 596.56034,284.00133 C 598.08626,285.64704 599.31764,287.15252 600.69629,287.34947 C 602.07493,287.54642 602.27188,287.34947 603.05968,285.97082 C 603.84748,284.59218 604.09367,283.41047 604.09367,282.47497 C 604.09367,279.91462 603.84747,277.79742 603.79824,276.96038 C 603.65106,274.45794 603.03696,272.48647 600.69629,271.9874 C 598.60253,271.54098 594.69376,271.90045 594.04924,273.51376 C 593.23555,275.55052 593.1882,276.08305 593.40915,277.30504 C 593.82254,279.59137 594.02235,281.2641 596.56034,284.00133 z "
         transform="matrix(1.0859965,0,0,1.0859965,-772.64269,-2.5712507)"
         style="fill:none;fill-rule:evenodd;stroke:#000000;stroke-width:1px;stroke-linecap:butt;stroke-linejoin:miter;stroke-opacity:1"
         id="path2304" />
      <path
         d="M 596.56034,284.00133 C 598.08626,285.64704 599.31764,287.15252 600.69629,287.34947 C 602.07493,287.54642 602.27188,287.34947 603.05968,285.97082 C 603.84748,284.59218 604.09367,283.41047 604.09367,282.47497 C 604.09367,279.91462 603.84747,277.79742 603.79824,276.96038 C 603.65106,274.45794 603.03696,272.48647 600.69629,271.9874 C 598.60253,271.54098 594.69376,271.90045 594.04924,273.51376 C 593.23555,275.55052 593.1882,276.08305 593.40915,277.30504 C 593.82254,279.59137 594.02235,281.2641 596.56034,284.00133 z "
         transform="matrix(1.0859965,0,0,1.0859965,-752.76987,1.0722871)"
         style="fill:none;fill-rule:evenodd;stroke:#000000;stroke-width:1px;stroke-linecap:butt;stroke-linejoin:miter;stroke-opacity:1"
         id="path2306" />
      <path
         d="M 596.56034,284.00133 C 598.08626,285.64704 599.31764,287.15252 600.69629,287.34947 C 602.07493,287.54642 602.27188,287.34947 603.05968,285.97082 C 603.84748,284.59218 604.09367,283.41047 604.09367,282.47497 C 604.09367,279.91462 603.84747,277.79742 603.79824,276.96038 C 603.65106,274.45794 603.03696,272.48647 600.69629,271.9874 C 598.60253,271.54098 594.69376,271.90045 594.04924,273.51376 C 593.23555,275.55052 593.1882,276.08305 593.40915,277.30504 C 593.82254,279.59137 594.02235,281.2641 596.56034,284.00133 z "
         transform="matrix(1.0859965,0,0,1.0859965,-764.41243,-13.136894)"
         style="fill:none;fill-rule:evenodd;stroke:#000000;stroke-width:1px;stroke-linecap:butt;stroke-linejoin:miter;stroke-opacity:1"
         id="path2308" />
      <path
         d="M 596.56034,284.00133 C 598.08626,285.64704 599.31764,287.15252 600.69629,287.34947 C 602.07493,287.54642 602.27188,287.34947 603.05968,285.97082 C 603.84748,284.59218 604.09367,283.41047 604.09367,282.47497 C 604.09367,279.91462 603.84747,277.79742 603.79824,276.96038 C 603.65106,274.45794 603.03696,272.48647 600.69629,271.9874 C 598.60253,271.54098 594.69376,271.90045 594.04924,273.51376 C 593.23555,275.55052 593.1882,276.08305 593.40915,277.30504 C 593.82254,279.59137 594.02235,281.2641 596.56034,284.00133 z "
         transform="matrix(1.0859965,0,0,1.0859965,-752.67623,-15.652722)"
         style="fill:none;fill-rule:evenodd;stroke:#000000;stroke-width:1px;stroke-linecap:butt;stroke-linejoin:miter;stroke-opacity:1"
         id="path2310" />
      <path
         d="M 596.56034,284.00133 C 598.08626,285.64704 599.31764,287.15252 600.69629,287.34947 C 602.07493,287.54642 602.27188,287.34947 603.05968,285.97082 C 603.84748,284.59218 604.09367,283.41047 604.09367,282.47497 C 604.09367,279.91462 603.84747,277.79742 603.79824,276.96038 C 603.65106,274.45794 603.03696,272.48647 600.69629,271.9874 C 598.60253,271.54098 594.69376,271.90045 594.04924,273.51376 C 593.23555,275.55052 593.1882,276.08305 593.40915,277.30504 C 593.82254,279.59137 594.02235,281.2641 596.56034,284.00133 z "
         transform="matrix(1.0859965,0,0,1.0859965,-777.29642,-20.690673)"
         style="fill:none;fill-rule:evenodd;stroke:#000000;stroke-width:1px;stroke-linecap:butt;stroke-linejoin:miter;stroke-opacity:1"
         id="path2312" />
      <path
         d="M 596.56034,284.00133 C 598.08626,285.64704 599.31764,287.15252 600.69629,287.34947 C 602.07493,287.54642 602.27188,287.34947 603.05968,285.97082 C 603.84748,284.59218 604.09367,283.41047 604.09367,282.47497 C 604.09367,279.91462 603.84747,277.79742 603.79824,276.96038 C 603.65106,274.45794 604.12508,273.12121 601.78441,272.62214 C 599.69065,272.17572 595.78188,272.53519 595.13736,274.1485 C 594.32367,276.18526 593.1882,276.08305 593.40915,277.30504 C 593.82254,279.59137 594.02235,281.2641 596.56034,284.00133 z "
         transform="matrix(1.0859965,0,0,1.0859965,-785.09086,-9.8091983)"
         style="fill:none;fill-rule:evenodd;stroke:#000000;stroke-width:1px;stroke-linecap:butt;stroke-linejoin:miter;stroke-opacity:1"
         id="path2326" />
    </g>
  </g>
</svg>
