<svg xmlns="http://www.w3.org/2000/svg" height="277.798" width="227.357">
  <defs>
    <radialGradient id="a" spreadMethod="pad" gradientTransform="matrix(121.02885 0 0 -121.02885 297.414 254.192)" gradientUnits="userSpaceOnUse" r="1" cy="0" cx="0" fy="0" fx="0">
      <stop offset="0" style="stop-opacity:1;stop-color:#99d420"/>
      <stop offset="1" style="stop-opacity:1;stop-color:#328d4d"/>
    </radialGradient>
    <radialGradient id="c" spreadMethod="pad" gradientTransform="matrix(118.94633 0 0 -118.94632 297.437 266.45)" gradientUnits="userSpaceOnUse" r="1" cy="0" cx="0" fy="0" fx="0">
      <stop offset="0" style="stop-opacity:1;stop-color:#99def9"/>
      <stop offset="1" style="stop-opacity:1;stop-color:#0994dc"/>
    </radialGradient>
    <radialGradient id="e" spreadMethod="pad" gradientTransform="matrix(64.24507 0 0 -64.24507 295.7 234.662)" gradientUnits="userSpaceOnUse" r="1" cy="0" cx="0" fy="0" fx="0">
      <stop offset="0" style="stop-opacity:1;stop-color:#fffa99"/>
      <stop offset="1" style="stop-opacity:1;stop-color:#fff200"/>
    </radialGradient>
    <clipPath id="b" clipPathUnits="userSpaceOnUse">
      <path d="M0 842h595V0H0Z"/>
    </clipPath>
    <clipPath id="d" clipPathUnits="userSpaceOnUse">
      <path d="M0 842h595V0H0Z"/>
    </clipPath>
  </defs>
  <path style="fill:url(#a);stroke:none" d="M213.573 200.749c0-9.186 14.437-26.203 25.219-26.203h31.735c14.251 0 24.987-12.564 24.987-23.11h3.983c0 10.689 6.848 23.156 25.084 23.156h31.22c11.341 0 25.454 16.971 25.454 26.157v156.149l-167.682.051z" transform="matrix(1.33333 0 0 -1.33333 -282.873 477.823)"/>
  <g clip-path="url(#b)" transform="matrix(1.33333 0 0 -1.33333 -282.873 477.823)">
    <path style="fill:none;stroke:#231f20;stroke-width:2.835;stroke-linecap:butt;stroke-linejoin:miter;stroke-miterlimit:22.926;stroke-dasharray:none;stroke-opacity:1" d="M0 0c0-9.186 14.438-26.203 25.219-26.203h31.737c14.25 0 24.985-12.564 24.985-23.11h3.984c0 10.689 6.847 23.156 25.083 23.156h31.221c11.341 0 25.454 16.971 25.454 26.157v156.148L0 156.2Z" transform="translate(213.572 200.749)"/>
  </g>
  <path style="fill:url(#c);stroke:none" d="m353.647 356.994-56.259-59.957-56.299 59.957h-27.516v-22.172l59.064-63.758-59.064-63.33v-6.842c0-9.049 11.906-21.47 19.502-24.986l64.313 68.863 64.272-68.863c8.061 2.95 19.641 16.361 19.641 25.5v6.328l-59.676 63.33 59.676 63.758v22.172z" transform="matrix(1.33333 0 0 -1.33333 -282.873 477.823)"/>
  <g clip-path="url(#d)" transform="matrix(1.33333 0 0 -1.33333 -282.873 477.823)">
    <path style="fill:none;stroke:#231f20;stroke-width:2.265;stroke-linecap:butt;stroke-linejoin:miter;stroke-miterlimit:22.926;stroke-dasharray:none;stroke-opacity:1" d="M0 0c8.061 2.95 19.641 16.36 19.641 25.5v6.328l-59.676 63.329 59.676 63.758v22.173H-8.014l-56.258-59.957-56.299 59.957h-27.517v-22.173l59.065-63.758-59.065-63.329v-6.843c0-9.048 11.906-21.469 19.503-24.985l64.313 68.863z" transform="translate(361.66 175.906)"/>
    <path style="fill:#131212;fill-opacity:1;fill-rule:evenodd;stroke:none" d="M0 0v11.626c-.611.143-1.223.331-1.875.469-1.875 0-4.224.332-5.813-.326-1.64 0-2.721-1.407-4.081-2.063-1.029-.984-1.127-2.67-.611-3.893.846-1.36 2.205-2.018 3.611-2.435 3.047-.846 5.58-1.972 8.346-3.19C-.285.097-.143.051 0 0m-48.427 13.409c-.749 1.218-2.252 1.172-3.424 1.595-.749.046-1.64.234-2.246-.143-.984-.046-1.829-.703-2.624-1.217a40.397 40.397 0 0 0-7.174.234c-4.83 1.314-7.173-3.795-11.535-3.561-1.263-.142-2.246-.846-3.281-1.503-1.309.097-2.435-.422-3.653-.75-1.457-.983-1.738-2.531-1.686-4.171.514-.892.795-2.064 1.824-2.156 1.268-1.36-.657-2.955.519-4.407.983-1.264 2.339-1.921 3.888-1.921 1.875-.234 3.423.795 5.202.326-1.406-1.217-3.75.143-5.391-.84a3.615 3.615 0 0 1-1.452-2.161c.234-2.715-.703-5.293 1.406-7.31.566-.28.892-1.126 1.641-.847 1.406-.702 3.327-.559 4.876-.423.515.235.937-.045 1.406.19 2.11-.373 4.081-1.544 6.424-1.452 1.172-1.549 3.042-2.019 4.499-3.001l1.126-2.202c.984-2.863 4.311-4.499 6.231-6.751 1.875-1.314 3.516-3.046 5.58-3.892-1.544-3.607-2.156-7.454-3.047-11.347-1.641-3.698-6.002-5.904-7.5-9.654-2.624-.326-4.687-1.783-7.031-2.767-.938-.937-2.435-1.59-2.578-3.047-.703-.794-1.972-3.938-2.064-6.939h23.626c.8 0 1.457-.279 2.017.143 1.269 3.189 1.784 7.78 6.14 10.312 2.109 1.269 4.407 2.909 6.75 3.235l1.549 1.83c.235 2.343 1.452 4.264 2.767 6.19 1.263-.52 1.778-2.114 3.046-2.767 1.641-1.783 2.767-4.035 4.591-5.487.331-.234.051-.561-.046-.795-.749-.188-1.544-.234-2.155-.8-.983-.891-2.344-1.121-3.19-2.155-2.95-3.093-2.715-6.705-2.435-9.231H0v12.278a13.74 13.74 0 0 1-2.206-.703c-.234 2.955.703 6.282-1.921 7.877-1.36 2.155-2.767 4.309-3.561 6.751-.377.794-.8 1.593-1.035 2.434 3.144.143 6.002.892 8.723 1.641V-1.59c-.611.235-1.177.515-1.829.652-1.829.097-3.47.612-5.442.52-4.589-.377-9.608-.52-14.341-.097-3.235.423-5.767 2.441-8.58 3.893-2.109 1.921-5.202 1.452-8.06 1.544-2.109 2.114-4.458 3.989-7.362 4.458-.046.233-.372.423-.143.56-.606 1.218-1.59 2.532-2.67 3.469M0-1.59c.184-.051.372-.142.561-.188 3.704-1.269 8.249-1.269 12.33-.892 4.218-.377 8.344-.892 12.278-1.829 1.034-.892 2.298-.983 3.378-1.732.657-.469 1.36-1.035 1.686-1.83.938-.749 1.784-1.686 2.813-2.109.937-.377.8-1.595 1.783-1.972 1.733-1.829 3.607-3.606 6.047-3.887 1.172-.519 2.532-.519 3.842-.611 1.457.092 3.097-.332 4.173.794.611.286 1.034.846 1.406 1.316 1.034 1.262.469 3.377.56 5.017-1.498 2.996-4.825 5.248-7.78 6.797-1.732.372-2.765 1.498-4.732 1.498-4.076.423-8.249 1.08-12.519.566-2.766-.097-5.39-.754-8.295-.566l-12.706.097C3.281-.749 1.544-.652 0 0v11.626c1.967-.561 3.842-1.264 5.671-2.246 2.435-.377 4.779-1.783 7.356-.847 3.704 0 7.082.938 10.786.703 4.408.847 8.626-.233 12.983-.279C47.158 6.802 60.518 2.578 62.581-9.844v-3.795c-1.264-9.049-11.535-16.172-20.768-13.079.658-2.955 1.921-5.625 2.957-8.483.793-.52 1.12-1.548 1.588-2.395 1.08-1.543 2.344-3.183 4.081-3.841 1.967-1.217 4.642-.468 6.374-2.109 1.453-3.801 2.579-7.831 4.734-11.489.234-1.87-4.968-8.718-5.859-11.53H33.611c-1.971 2.766 1.825 9.609 1.361 8.768 1.59 2.059 3.795 3.653 6.184 4.311-.8.657-1.262 2.063-2.485 1.921-3.139 2.44-6.985 3.377-9.844 6.378-.326-.422-.891-.845-.891-1.171-2.716-3.236-1.498-8.346-5.06-11.113-4.504-1.64-5.391-6.328-8.11-8.762H0v12.278c.887.234 1.778.423 2.578.515 2.527 1.314 4.407 3.377 6.186 5.252-.658 2.156-1.967 4.31-1.641 6.751-.606 2.156-1.029 4.688-.423 6.934-2.247-.234-4.407-.841-6.7-1.452z" transform="translate(306.345 260.283)"/>
  </g>
  <path fill="url(#e)" d="M253.653 272.286v-3.046c.234-.189.423-.469.469-.847-.046-.513-.235-.936-.189-1.496a4.691 4.691 0 0 0-.28-.515v-2.206c.561 1.126 1.218 2.252 1.453 3.566v1.121c-.092.469-.189.891-.377 1.36h.377v1.967c-.34.093-.679.227-.992.227a.805.805 0 0 1-.461-.131m-.142-.142c-.326-.046-.658-.092-.938-.235v-2.155c.377-.091.795-.235 1.08-.514v3.046zm1.595-1.921c.983-.234.937-1.36 1.548-2.063-.051-.657.092-1.126.372-1.64-.657-1.361-.372-3.47-1.92-4.454v-1.686c.514.561.983 1.218 1.36 1.875.188.091.326-.092.377-.234l-.143-2.11c.116.019.209-.043.295-.105.12-.088.225-.175.363-.037.469.469.371 1.08.703 1.503-.097 1.263-.051 2.715.794 3.703v2.344c-.142.045-.28.092-.423.184-.092.143 0 .566-.371.612.057.089.135.083.207.079.043-.003.084-.006.118.011-.046 1.641-1.451 2.721-2.531 3.939-.235-.046-.515 0-.749.046zm-4.264.795c-.281.046-.612.046-.892.046v-9.889a20.43 20.43 0 0 1 .515-1.829h.325c-.371-1.875.422-3.888-.371-5.579-.235-.515-.235-1.168-.469-1.687v-3.469c1.029 1.08 1.829 2.485 2.531 3.749.046.097.046.189.092.285v12.28c-.371-.373-.794-.561-1.263-.847-.143 1.458 1.451 2.488.657 3.802-.377.513-.565 1.029-.988 1.406.143.61.988.325 1.548.468h.046v2.155c-.606-.188-1.171-.515-1.731-.891m-11.719-.327c-.377.046-.657-.233-.943-.514v-1.595c1.601 0 3.143.046 4.642.327.142-.046.331-.093.565-.19v2.533c-.188.046-.377.096-.565.096-1.218-.234-2.761.189-3.699-.657m4.264-1.972c.423-.137.984-.326 1.264-.749-.046-.748.051-1.588.234-2.199h-.937c-.138.188-.372.233-.561.279v-5.812c.092-.189.281-.327.423-.515.234-1.503.372-3.002-.285-4.407-.046-.092-.092-.138-.138-.235v-7.174c1.407 1.361 2.624 2.909 3.704 4.642l.326.515v4.315c-.469-.658-.845-1.406-1.218-2.063-.234-.189-.611 0-.799-.281.142.606.422.795.611 1.263.046.8.143 1.595.561 2.253.142 1.733.33 3.795.234 5.344l.565.795c0-.046 0-.046.046-.092v6.466a38.2 38.2 0 0 0-4.03.188zm4.03 2.345v-6.466c.189-.28.658-.326.984-.52.468-.749.749-1.686 1.503-2.389 0-.183 0-.325.046-.514v9.889zm-9.797-1.453c-.657-.046-.56-.892-.937-1.075.469 0 .983 0 1.497.046v1.595a3.098 3.098 0 0 0-.56-.566m61.317-.514c-.331-.794-1.361-.561-1.595-1.355.377-.188.75-.423 1.081-.708 2.811-.514 5.293-1.875 7.968-2.812.794-.469.937-.607 1.732-.938v5.202c-1.075.377-2.247.754-3.419.987l-4.035.046c-.606 0-1.029-.514-1.732-.422m-43.831-1.355c.046.228.092.463.092.697-.046.143-.046.28-.092.424zm53.017-4.458c.046-.046.096-.046.142-.046l4.122-.794h.989v4.122c-.566.096-1.08.234-1.64.331a30.659 30.659 0 0 1-3.613 1.589zm-75.424 4.739v-3.751c.845.703 1.782 1.218 3.092.841l.142-.377v2.955c-.741.211-1.512.396-2.368.396-.279 0-.567-.019-.866-.064m-.235-.053c-.891-.416-1.172-.467-2.156-1.073.046-.469-.188-2.487-.188-2.533-.561-.749-1.218-1.549-2.064-2.018.235-1.126.469-1.36 0-2.812v-.138l.75-.331c1.36 0 2.629.235 3.893.377v3.139c-1.172-.658-2.345-1.309-3.517-2.155 0 .28-.28.938.235 1.08 1.314.469 2.202 1.823 3.282 2.766v3.751c-.046 0-.144 0-.235-.053m3.469-3.234.046-.046.143-.234a.38.38 0 0 0-.189-.092v-2.441c.28-.045.612 0 .75.24.515-.051 1.034 0 1.497.092v4.876c-.795.137-1.497.326-2.247.56zm22.922.239c.657.23 1.361.138 1.361-.657 0-1.549-.984-2.629-1.361-3.984v-5.064c.143.046.235.188.377.142-.142-.423-.234-.753-.377-1.126v-4.55c.377.703.892 1.36.892 2.252.469.138.326 1.076.795 1.498 0 .8.331 1.407.657 2.064v11.204c-.749.189-1.595.331-2.344.565zm-31.781 2.156c-.515-.377-1.687-.331-2.064-1.127 0-.656.189-1.171.234-1.64h-.045c.606-.657 1.452-.092 2.018.092.56.423.793.938.839 1.548v.796c-.245.205-.49.339-.831.339-.049 0-.099-.003-.151-.008m11.106 0v-4.876c.892.189 1.783.468 2.629-.092.372-.097.703-.331 1.126-.377l1.075-1.034a2.09 2.09 0 0 1 .377-.514v5.812c-.188 0-.377.046-.515.189-1.503 0-2.72.561-4.08.892zm96.289-.286v-3.699c1.08.092 2.109.092 3.235.046.845-.091 1.687-.142 2.532-.234v3.608c-1.452.096-2.909.188-4.361.331-.468-.052-.937-.052-1.406-.052m-1.641-.091v-3.704c.565.051 1.08.096 1.641.096v3.699c-.561-.045-1.076-.045-1.641-.091m-104.772.046v-.796c.046.235.046.516.046.796zm100.834-.184v-3.893c1.314.092 2.624.235 3.938.327v3.704c-1.314 0-2.624-.046-3.938-.138m-67.691-11.066c.281.565.566 1.125.612 1.783.749 1.452.422 3.419.514 5.111-.422.371-.189.982-.56 1.355h.28l2.109-1.636v2.95a6.893 6.893 0 0 0-.285.143c-.698.887-1.636 1.264-2.67 1.498zm60.894 10.643v-3.749h2.532a61.69 61.69 0 0 1 4.265.279v3.893c-2.248-.096-4.544-.188-6.797-.423m18.143-3.235 3.001-.28v3.653a55.41 55.41 0 0 1-3.001.235zm-26.86-.514h4.596v3.281c-1.549.046-3.098.514-4.596.841zm-60.615 2.715a.97.97 0 0 0-.188-.234v-12.28c.423 1.733.658 3.653 1.08 5.437v4.218c-.234.235-.377.469-.468.892.137.326.326.657.468.984v2.206c-.331-.423-.703-.703-.892-1.223m90.476-2.481c1.641-.188 3.282-.423 4.877-.657A93.185 93.185 0 0 0 352 260.38c2.858-1.641 5.253-3.47 7.5-5.91 0-.984 1.081-1.544 1.223-2.482.56-1.36.84-6.189-.754-7.361-.138-1.217-1.59-1.263-1.871-2.435-.845-.143-1.737-.612-2.486-1.224-2.343-.137-5.155-.325-7.498.188l-4.505 1.55c-.092.092-.229.235-.372.326v-16.875c.189.046.372.092.561.092v-.229c-.138-.189-.327-.24-.561-.286v-3.606c.703.091 1.406.188 2.11.234 0-.046.046-.092.092-.143-.659-.235-1.499-.419-2.202-.75v-3.188c.189.045.326.097.469.143.542-.155.856.074 1.218.304.294.186.62.372 1.125.353-.376-.657-.799-.845-1.452-1.315-.519-.189-.937-.468-1.36-.748v-2.904c1.829-1.178 3.653-2.253 5.671-3.144.794-1.264 2.108-2.39 3.092-3.47.235-.749.846-1.36 1.361-1.967-.046-.142.096-.331-.092-.423-2.675-.046-4.83-1.268-7.031-2.389-1.972-1.36-2.812-3.47-2.858-5.722l17.623.097c.657 2.812 3.327 5.013 4.311 7.546-1.03 2.486-2.39 4.544-3.048 6.893-.092 1.121-.657 2.013-.657 3.184-1.778.377-3.699.612-5.294 1.315-.892 1.172-2.766.607-3.092 2.247-1.641 1.36-2.674 3.377-4.035 4.875-1.264 3.235-2.623 5.86-3.327 9.192-.795 2.063-2.344 3.888-2.481 5.996 2.059-.697 3.979-1.497 6.23-1.685 9.192-2.345 18.939 6.19 16.361 15.329-2.716 8.58-12.468 12.09-20.436 14.062-.755.093-1.503.189-2.298.281zm-22.739 3.326a7.815 7.815 0 0 0-2.526-.279v-3.281h4.121v3.749c-.514-.097-1.029-.143-1.595-.189m-56.344-3.841.84-.657c.052-.051.052-.051.052-.097v3.143c-.28.235-.566.423-.892.561zm.892-.754c.56-.937.606-2.436.234-3.47.092-.372-.097-.703-.234-1.029v-4.173c.137.377.372.657.372 1.126.234.561.468 1.126.703 1.733v8.019c-.326.326-.703.657-1.075.937zm-32.347 1.172v-3.139c.748.046 1.503.092 2.297 0 .28-.096.607-.188.937-.234v.372c-.376.189-.8.331-1.218.377-.142.143-.142.281-.096.377.422-.096.892-.188 1.314-.331v1.595h-.142v.325h.142v2.441c-1.08-.611-2.154-1.172-3.234-1.783m33.422-6.985c.515 1.314 1.034 2.578 1.783 3.75 1.549 1.222 3.938.565 5.528 0l.8-.515v2.955c-.046.092-.142.137-.234.189-1.967.515-4.264.28-6.375.469-.565.279-1.033.702-1.502 1.171zm-12.468 2.486c.138.423.234.845.372 1.264.378.331.754.657 1.081 1.034v1.686c-.046 0-.046-.045-.092-.045h-1.081l-.28.279zm20.579.749.938-.561c.142-.515.891-.657.748-1.36.377-.423-.091-1.034-.143-1.452-.56-.703-1.075-1.503-1.543-2.298v-6.985c.657.75.892 1.686 1.732 2.344.469 1.081.423 2.343.988 3.373.092 1.594.235 3.424.138 4.783h.331c.188-.142.418-.279.657-.422v3.235c-1.314.75-2.629 1.453-3.846 2.298zm-37.968 2.764c-.114.008-.23.016-.331.003v-1.595a11.314 11.314 0 0 0 2.247-.749v2.064c-.417.188-.886.325-1.309.468-.098-.228-.352-.21-.607-.191m1.916-2.341c.144-.092.286-.143.423-.235.377-.376.612-.749 1.035-1.406.657-.657.605-1.686.936-2.486-.142-1.264-.513-2.528-1.594-3.327 0-.423-.326-.846-.656-.984-.046 0-.092-.045-.144-.045v-1.926c1.406.331 1.223-.326 3.566 2.578.607.188.892-.418 1.264-.652 0-.189.046-.469-.138-.611-.799-.424-1.549-.892-2.063-1.784-.612-.045-1.08-.28-1.594-.561a.99.99 0 0 0 .188-.28c1.171-.845 2.578-.749 3.984-.891v.612c-.234 0-.423 0-.657.045.234.189.423.424.657.606v7.174c-.565-.749-1.217-1.783-1.921-2.436l-.143.138c.281 1.641 1.265 3.144.892 4.876-.657.8-.749 1.921-1.641 2.441-.657.606-1.502.937-2.394 1.218zm20.533.234-1.029-2.155c-1.081-.754-1.829-1.737-2.578-2.812v-4.219c.376.417.749.886 1.126 1.309.611 1.453 1.778 2.344 2.623 3.613v5.11a2.74 2.74 0 0 1-.142-.846m-22.78-.28h.561c.331-.8.891-.988 1.223-1.641.091-.988-.143-1.737-.378-2.532-.141-.657-.794-1.172-1.406-1.452v-2.018c.846.377 1.687.703 2.247 1.407v5.064a1.68 1.68 0 0 1-.463.326c-.565.515-1.126.938-1.784 1.218zm-7.923.188h.046v.138c0-.046 0-.092-.046-.138m50.068-3.143c.699-.56 1.498-1.218 1.733-2.109.377-1.83-.795-3.373-1.315-5.014 0-1.737 1.172-3 1.315-4.693-.189-1.965-.892-3.698-1.733-5.435v-7.22c1.029.52 2.11.937 3.328 1.126.371-.137-.046-.28-.046-.469-.566-.325-1.361-.423-1.692-1.029-.082-.023-.18-.016-.277-.011-.127.007-.252.014-.33-.04a4.77 4.77 0 0 1-.983-.983v-3.373c1.218.795 2.436 1.594 3.979 2.201 1.641.143 3.521.565 5.254.657-.703-.33-1.264-.56-2.156-.657-2.389-1.36-4.83-3.236-7.077-5.014v-1.685c.699.137 1.402.417 2.11.651.469.515 1.218.8 1.869 1.08v.235c1.126.56 2.064 1.029 3.379 1.263.795.189 1.549.423 2.298.612v6.985c0 .046 0 .046-.046.046-.759.21-.685 1.325-1.103 1.825l-.166.146a.678.678 0 0 0 .166-.146c.377-.328.78-.662 1.149-1.03v2.018c-.144-.327-.235-.658-.189-1.03-.372.046-.372.515-.703.703l-.234 2.064h.046c.045 2.293-1.968 3.888-2.436 5.859h.234c1.218-.988 1.875-2.578 3.236-3.332.046 0 .046-.046.046-.046v11.346c-.235.234-.561.422-.846.657l-.841.234c-.703-.377-.8-1.034-1.172-1.549-.28-1.966-.565-4.171.469-5.905h-.235c-.514.373-.377.984-.891 1.499-.704 2.201-.566 4.829-1.407 7.219-.096.938-1.268.561-1.502 1.407 1.268-.378 2.486-.795 3.8-.846a16.98 16.98 0 0 1 2.625-.326v2.531c-.892.046-1.83.092-2.721.19l-4.545 1.309c-.8.469-1.595.891-2.39 1.314zm-30.661 1.126v-4.315l.377.611c-.046-.892-.142-1.687-.377-2.487v-6.042c.846.229 1.733.418 2.533.749v2.247c-.281-.138-.561-.281-.846-.327.285.235.565.516.846.796v3.469c-.092-.188-.235-.326-.377-.469l-.234.331c.707 1.921.284 4.265-.235 6.186 0 .331-.326.423-.607.515a5.486 5.486 0 0 1-1.08-1.264m-14.718 1.264v-.938c.091-.092.234-.138.468-.092.189.28.235.703.189 1.03zm-4.031-.184c0-.566.372-.988.56-1.406.046-.378.423-.657.75-.8.33.612.051 1.406.703 1.686.331-.56.611-1.36 1.222-1.686.47.612.046 1.502.373 2.063.234-.142.279-.423.423-.611v.938zm9.512-5.487c.189.234.331.514.474.891.138 1.264.652 3.093-.474 4.173zm31.69.142c-.606-2.206-1.777-4.126-2.761-6.098a6.577 6.577 0 0 0-.988-1.87v-5.629c.046.05.046.096.092.142.377.515.611 1.126 1.034 1.595-.28-.469-.046-1.264-.515-1.549-.189-.749-.377-1.544-.611-2.344v-6.419c.937 1.074 1.737 2.246 2.955 3.372-.092.796.658 1.269.794 1.972.377.092.469.607.657.841l.189-.092c-.748-1.641-1.36-3.281-2.017-4.921-.28-.938-.657-1.784-1.452-2.487-.189-.096-.469 0-.561-.28a.6.6 0 0 0-.565-.046v-.566c2.109-.749 4.218-1.595 6.19-2.812.28-.326.372-.892.795-.983.326-.423.749-.846 1.126-1.217v3.183c-1.08-.183-2.252.234-3.282.565 0 .189.092.327.235.327.795.377 2.201.845 3.047 1.503v3.653c-.611-.606-1.172-1.263-1.549-2.012h-.234c.285 1.126 1.034 2.012 1.783 2.904v10.969c-.423-.378-.8-.794-1.172-1.217-.092.839.703 1.405.846 2.251l.326.326v6.985c-.984-1.829-1.829-3.796-2.675-5.579-.046-1.406-1.167-2.669-1.687-3.983-.28-.515-.84-.939-1.354-.984 1.308 3.327 2.292 6.986 3.887 10.45.331 1.172.983 2.629.331 3.801-.612.188-.846.656-1.361.982-.331-1.594-1.314-2.858-1.503-4.733m30.05 3.888c-1.828-.046-3.75-.189-5.717-.235v-2.246c.893 0 1.824-.097 2.625-.097 1.497-.138 3-.188 4.309-.795.75 0 1.173-.938 1.926-.892 1.264-1.36 1.31-3.326 1.122-5.202-1.687-3.377 2.109-5.532.8-9.002-.704.984-.423 2.813-1.595 3.613 0 .468-.423.937-.846 1.264-1.407 2.108.096 4.594-.138 7.075-.846.892-.846 2.579-2.623 2.252-2.018-1.875-1.407-5.481-.846-7.825.326-.754.326-1.926.703-2.909-.188-.795-.188-1.687-.611-2.436.036-1.082-.399-2.136-.414-3.157.023-.266.051-.527.087-.781-.067.258-.09.518-.087.781-.149 1.789-.015 3.814-.055 5.736-1.64 3-2.812 5.527-4.357 8.293v-4.126c.138-.183.236-.372.373-.606 1.314-3.001 1.971-6.425 1.08-9.844-.332-1.172-.703-2.252-.846-3.332-.28 1.972.188 4.362-.424 6.282-.045.331-.09.658-.183.988v-9.894c.138-.184.183-.326.138-.56.469-1.034.612-2.207 1.315-3.144a17.648 17.648 0 0 1 7.265.28c1.829.611 3.515 1.177 5.202 1.595v10.083c-.372.418-.795.795-1.075 1.218-.846 1.126-.754 2.624-.937 3.985-.286 2.011-.143 3.937-.658 6.047h.137c.704-1.219 1.407-2.675 2.161-4.128.046-.702.188-1.452.372-2.154v6.607c-.515 1.035-1.218 1.921-1.966 2.863l-.704.281c1.075.138 1.875-.235 2.67-.566v3.19c-2.479.75-5.086 1.506-7.738 1.506-.155 0-.31-.002-.465-.008m-35.063-.984c-.331-.325-.514-.794-.703-1.309v-17.674c.28.372.612.75.892 1.126v5.574c-.052-.046-.098-.137-.189-.189h-.28c.189.331.325.658.469.989v7.265h-.052c-.137.376-.046.657.052.937v4.173c-.098-.28-.235-.514-.189-.892m25.689.612v-2.486c.56 0 1.075.046 1.641.092a6.956 6.956 0 0 0 2.016.285v2.246l-3.657-.137m-2.812-2.486a28.667 28.667 0 0 1 2.812 0v2.486c-.938 0-1.875.045-2.812.045zm-51.801 1.549v-.189a.93.93 0 0 1 .138.235c-.046 0-.092 0-.138-.046m-3.234-1.457v-1.264c1.594 0 2.623 1.314 3.234 2.532v.189c-1.268 0-2.389-.423-3.234-1.457m75.424-1.922c.377-.138.703-.234 1.034-.326 1.687-.892 1.733-3.097 2.39-4.595l.937-3.562c.28-.61.561-1.125.892-1.639v8.247c-.514.611-1.36.795-1.64 1.595.651.092 1.074-.28 1.64-.469v3.094c-1.452.096-2.863.188-4.173.519-.331.092-.703.183-1.08.326zm-49.268 2.956v-.046.046m2.344-3.328v-9.424c.189.331.377.657.612.982h.188c-.096-.749-.423-1.405-.8-2.058v-7.739c.046.051.092.051.143.051a66.878 66.878 0 0 1 2.812 3.281v17.674c-.143-.331-.285-.657-.52-.942-.697.096-.182.942-.417 1.36-.561-1.126-1.268-2.155-2.018-3.185m56.773 2.813v-3.098c1.121.285 1.869-.469 2.812-.515.326-.188.841-.423 1.309-.703v4.174c-.846.096-1.64.142-2.435.234-.565-.046-1.125-.092-1.686-.092m-4.596-.096v-3.094c.188-.046.372-.092.606-.046.8-.377 1.549-.937 2.345-1.405 1.08-.423.142-1.83.845-2.441-.423-2.012.469-4.03.8-6.047v9.847c-.097.046-.097.138-.097.184h.097v3.098a49.68 49.68 0 0 0-4.596-.096m8.717-4.22c.657-.423 1.315-.982 1.218-1.783.05-1.64.891-2.995 1.125-4.402.189-.656.749-1.268 1.035-1.828.424-.142.702-.8 1.171-.8 0-.561.653-.23.607-.795.469-.28.846-.841 1.361-.892-.046-.326.096-.514.28-.703v5.156c-.046 0-.046.045-.092.045-.892 2.253-2.39 4.128-3.75 6.334-.143.183-.52.091-.612.417 1.737.046 3.19-.515 4.454-1.543v3.984c-.938.184-1.921.326-2.905.515-1.217.188-2.577.326-3.892.469zm-68.44 1.829v-3.515c.515.515.984 1.029 1.453 1.549v4.219a58.687 58.687 0 0 0-1.453-2.253m4.408.143c-.657-1.503-1.829-2.766-2.955-4.127v-11.157c1.314.566 2.343 1.36 3.657 2.109 0 0 .046.046.092.097v8.998a.532.532 0 0 0-.371-.139c-.098.561.091 1.076.371 1.544v4.55c-.28-.611-.515-1.222-.794-1.875m-27.564.561c.184-.092.418-.046.607-.189-.189-.092-.373-.046-.607-.046-.189-1.218.418-2.389 0-3.424.326-.468.234-1.171.984-1.171a3.74 3.74 0 0 1 1.218-.373v2.716c-.235 0-.423.051-.658.051v.235l.658.045v1.641c-.144 0-.281.046-.423.234-1.361-.469-.561 1.172-1.172 1.595-.423-.377-.75-.754-.607-1.314m2.202 0v1.264zm96.191-3.327a8.33 8.33 0 0 0 .703-.611c.846-2.344 1.738-4.78 3.235-6.888v5.11c-.138.417-.28.84-.469 1.217l-.092.561c.184-.143.373-.281.561-.423v3.749a5.336 5.336 0 0 1-2.252.754v.234c-.56.092-1.126.184-1.686.281zm-93.287 3.841c-.092-.887-1.076-.749-1.779-.749-.377 0-.749-.326-1.125-.28v-1.641l2.251.138c.28.234.653.423.983.611v2.018a.814.814 0 0 0-.33-.097m30.518-1.029v-4.967c.142.417.284.794.469 1.166.234 1.08.611 1.88.891 3.052.046.468-.046.937-.234 1.356a.96.96 0 0 1-.234.031c-.411 0-.65-.317-.892-.638m24.425-2.486v-1.829c.422-3.094 2.578-6.231 1.406-9.609-.331 1.549-.75 3.19-1.406 4.642v-11.061a9.263 9.263 0 0 1 2.435-1.126c.332-.469.984-.658 1.222-1.081v9.894c-.611 3.654-1.691 7.032-1.783 10.684.516-.046.282-.794.516-1.121.096-1.172.656-2.017 1.267-3.051v4.126c-.187.423-.421.795-.656 1.218-.649.857-.902.839-1.315.82-.155-.006-.332-.013-.56.026a5.515 5.515 0 0 1-1.126-2.532m-25.5 1.829v-7.265c.418.983.703 1.966 1.075 2.955v4.967c-.281-.377-.515-.8-1.075-.657m67.782-3.189c.515-.327 1.126-.653 1.641-1.076v3.47a7.589 7.589 0 0 1-1.641 1.355zm-80.255 2.108v-3.046c.377.331.749.703 1.08 1.08v3.515a31.988 31.988 0 0 0-1.08-1.549m6.848-1.731c-.235-.189-.377-.469-.566-.657v-8.998c1.08.937 1.733 2.109 2.344 3.185v9.424c-.657-.988-1.31-1.926-1.778-2.954m28.313-8.58c.748-.657.937-1.875.702-2.858-.142-.469-.468-.891-.702-1.36v-2.018c.891-.749 1.828-1.499 2.812-2.058v11.061c-.092.189-.143.325-.235.514-1.08.892-.846 2.343-1.549 3.515-.28 1.172.097 2.767-.605 3.75 0 .331-.189.611-.423.8zm30.238 1.218c.046-.326.092-.703.092-1.075 0-.561 0-1.315-.092-2.018v-9.283c.698 0 1.4 0 2.154-.046.658-.188 1.31-.377 1.967-.607v11.25c-.657 1.172-1.126 2.11-1.029 1.922.372-.423.704-.801 1.029-1.126v3.611c-.423.515-.748 1.075-.795 1.687-.75 1.172-1.172 2.435-1.548 3.75 0 .045-1.406 1.217-1.778 1.782zm-72.104 6.47c-.794-.189-1.589-.795-2.481-.84v-.612c.561-.092 1.126-.188 1.687-.469.56-.938 1.406-1.548 2.343-2.017v.565c-.138.092-.28.235-.371.325a.876.876 0 0 0 .371.098v6.042a9.582 9.582 0 0 0-1.549-3.092m88.601-.561c.611-.468 1.126-1.079 1.36-1.971.331-1.498.658-3.372 1.315-4.921-.657.611-1.223 1.36-1.972 1.829-.28.142-.515.377-.703.56v-7.031c1.217-.234 2.389-.653 3.423-1.31.327-.423.892-.28 1.264-.657-1.544.188-3.092.188-4.687.046v-3.046c1.36.376 2.812.611 4.315.657v-.143c-1.783.097-3.047-.749-4.315-1.687v-2.436c.331.184.703.373 1.08.419 1.64.096 3.138.469 4.687.799v16.921c-.376.331-.749.703-1.08 1.08-.561 0-.561.749-.886 1.081-1.737.748-2.675 2.109-3.801 3.28zm-98.536 2.67v-2.298h.046c1.035.566 1.738.8 2.201.938v1.926c-.749-.189-1.497-.423-2.247-.566m15.748-.423c-.371-.606-1.028-1.217-1.731-1.64v-2.247c.515.183.984.468 1.452.749.422.326.8.657 1.171 1.029v3.046c-.28-.326-.559-.651-.892-.937m-18.982-2.013c.546-.051 1.134.006 1.72.061.517.051 1.032.1 1.514.077v2.298c-.28-.045-.565-.091-.845-.091-.703-.098-1.544.188-2.389.371zm80.677-5.577c.468-.704.891-1.361 1.264-2.202.096-1.549-.281-3.097.376-4.642l-.326.046c-.331 1.076-.892 2.11-1.126 3.281-.05.092-.096.19-.188.281v-9.89c1.452.138 2.951.235 4.596.184v9.283c-.051-.092-.051-.235-.097-.372-.795 1.829-1.36 3.985-2.721 5.574-.606 2.114-.841 4.407-1.59 6.425-.05.097-.096.188-.188.279zm-22.83 5.95v1.829a6.095 6.095 0 0 1 0-1.829m17.577-5.013c.096-.234.188-.515.285-.749 0-2.487 1.875-4.127 2.39-6.517a5.275 5.275 0 0 0-.423-2.863c-.142 1.08-.565 2.206-1.08 3.19-.046.799-.561 1.406-1.172 1.971v-10.083c1.737.423 3.424.749 5.253.988v9.89c-.331.469-.846.983-1.172 1.406-1.502 2.206-2.955 4.265-3.001 7.031-.28.846-.657 1.641-1.08 2.343zm-54.378 3.423-.092-.096v-9.467c.515-.422.984-.891 1.453-1.36v1.218c-.046.046-.138.142-.189.188.051.046.143.046.189.092v11.157c-.469-.559-.938-1.125-1.361-1.732m79.083-4.406c.188-.235.331-.469.515-.704-.184.092-.327.235-.515.327v-5.579c.565-.046 1.126-.092 1.641-.189v7.031c-1.076 1.172-1.218 2.767-1.641 4.224zm-80.255 3.28v-7.408c.377-.371.749-.702 1.08-1.029v9.467zm22.876.138c-.423-.189-.84-.418-1.217-.749v-10.969c.892 1.029 1.783 2.109 2.018 3.47.423 2.063.886 4.126 1.216 6.282 0 .656-.565 1.074-.656 1.685-.28.175-.612.35-.976.35a1.12 1.12 0 0 1-.385-.069m64.787-16.921c.561.092 1.126.184 1.687.281v-.281c-.515-.28-1.08-.376-1.687-.519v-2.527c.984.234 1.967.469 3.001.56v16.875c-.983.845-2.017 1.64-3.001 2.532zm-89.114 15.423c-.332-.189-.749-.28-1.172-.28v-.937c.046-.051.046-.051.096-.051l2.104-4.454c.143-.091.286-.234.423-.326v7.408zm13.924-.331v-5.574c.372.418.703.887 1.075 1.356v5.629c-.326-.474-.703-.942-1.075-1.411m-17.629.423c.846-.423 1.733-.794 2.533-1.309v.937c-.469-.051-.938.045-1.315.183-.418.285-.887.468-1.218.754zm81.473-4.922c.234-.234.514-.371.657-.703-.234.097-.423.234-.657.377v-2.486c1.314-.046 2.624-.092 3.938-.234v5.579c-1.36.89-2.481 1.686-3.938 2.623zm-6.797 1.407c1.92-2.202 2.766-3.139 6.002-4.173.28 0 .515-.046.795-.046v2.486c-1.921 1.08-3.751 2.486-5.67 3.796-.235.469-.704.983-1.127 1.548zm-62.627-2.202c-.234-.331-.422-.702-.611-1.08v-5.059c.657-.52 1.361-1.08 2.155-1.549.051-.046.143-.097.189-.097v.8c-.795 0-1.595.137-1.921.983.892.092 1.172.795 1.921 1.264v7.739c-.56-.988-1.31-1.971-1.733-3.001m62.627-9.844c2.298-.753 4.687-1.783 6.797-3v1.732c-.184.046-.372.096-.561.142-.565.281-1.405.092-1.875.469.653.423 1.641.327 2.436.657v5.014c-.046 0-.092 0-.138-.046-1.503.657-2.857 1.641-4.316 2.298-.279.138-1.451 2.298-2.343 3.984zm-45.003 8.576c-.189-1.875-1.589-2.951-2.858-4.219v-3.653c.703.422 1.595 1.264 2.297 1.687.515.28.983.56 1.549.794v7.22l-.988-1.829m-11.484-1.687c-.234.046-.372-.092-.56-.188v-5.529c.418.373.749.75 1.075 1.173v6.419c-.189-.611-.326-1.263-.515-1.875m-7.779.423c-.378-.046-.704-.234-1.127-.142-.188.234-.703.096-.983.28-.189.285-.377.566-.611.8v-1.218c1.218-1.126 2.44-2.252 3.749-3.327v5.059c-.28-.514-.56-.983-1.028-1.452m6.75-.657a4.394 4.394 0 0 1-.423-.515v-5.252c.28-.138.612-.235.892-.327v.565h-.052c.052 0 .052 0 .052.046v5.529c-.144-.046-.28-.138-.469-.046m-2.298-3.561c-.234.091-.376-.098-.422-.189-.235-.046-.424-.046-.658-.046v-.8a26.27 26.27 0 0 1 2.955-1.171v5.252c-.702-.937-.983-2.109-1.875-3.046m70.549 2.297v-3.469c.565.188 1.08.372 1.641.515v3.046c-.561 0-1.076-.046-1.641-.092m-3.938-.377v-5.014c.377.138.703.373.937.75.989.422 1.971.841 3.001 1.172v3.469c-1.314-.142-2.624-.285-3.938-.377m-41.156-7.265c.605.189 1.171.326 1.782.422-.422-.422-1.08-.657-1.782-.845v-4.967c.605.091 1.217.137 1.782.188v-.286c-.474-.417-1.125-.515-1.782-.56v-3.092a.66.66 0 0 1 .325.092 8.044 8.044 0 0 1 2.487.702v12.845c-.984.703-2.019 1.457-2.812 2.486zm2.812-8.346c.845.378 1.641.938 2.39 1.55.096-.286-.234-.515-.377-.703-.653-.377-1.357-.989-2.013-1.549v-2.156c.607.281 1.029.84 1.732.938v-.28l-1.732-1.686v-4.224c.372-.419.748-.892 1.126-1.264.652-.235 1.264-.515.887-1.36-.516-.795-.653-2.156-.984-3.047-.327-.189-.657-.281-1.029-.423v-6.563h3.657v27.238c-.565 1.64-1.222 3.138-1.267 5.014-.326.468-.795.657-1.361.703-.327.234-.703.423-1.029.657zm-15.657 9.094c-.189-.091-.422-.137-.657-.188v-3.183c1.172-1.126 2.486-2.065 3.846-2.865v1.126h-.05c-.327.098-.892.144-.892.469.33 0 .611 0 .942.052v1.685c-1.222-.565-2.629-.33-3.519.607-.184.052-.184.234-.184.377.514-.143.84.189 1.218.326.891.468 1.685.983 2.485 1.503v3.373c-.988-1.126-1.783-2.532-3.189-3.282m57.939 1.453v-2.298c.565.423 1.08.845 1.641 1.176v2.436c-.561-.422-1.076-.891-1.641-1.314m-67.782 1.176v-.565c.372-.142.749-.28 1.075-.423v.566c-.277.156-.489.452-.862.452a.797.797 0 0 1-.213-.03m63.844-2.394v-1.732c.514-.286.983-.566 1.457-.846.794-.891 1.64-1.687 2.481-2.435v2.109c-.138 0-.28-.046-.469-.097-.108.241-.384.238-.653.235-.202-.002-.399-.005-.519.096-.371.19-.937.372-.983.841 1.075-.234 1.875.188 2.624.749v2.298c-1.126-.795-2.344-1.407-3.938-1.218m9.048-.092c-1.405-.234-2.389-1.171-3.469-1.926v-1.966c.846.28 1.737.469 2.206 1.126 1.171.424 2.343.795 3.561 1.126v2.527c-.799-.184-1.641-.372-2.298-.887m-19.966 0v-1.783c0 .046.046.046.092.092.519.046.964-.05 1.401-.146.467-.103.924-.206 1.456-.134a7.916 7.916 0 0 0 1.172-.326v1.828c-1.309.326-2.721.372-4.075.515-.046 0-.046 0-.046-.046m-.8-.514c-1.641-2.629.143-5.579 0-8.534.143-1.029.423-1.967.8-2.904v6.14a.598.598 0 0 0 0 .421v2.813c-.051.047-.051.047-.051.092.051.331-.046.515.051.703v1.783c-.331-.143-1.034.046-.8-.514m4.921-1.783c1.641-.561 3.327-1.406 5.014-1.876-1.779-.046-3.328.47-5.014.75v-1.784a.644.644 0 0 0 .28-.092c1.361-.188 2.864-.423 4.127-.845.372-.704 1.641-.469 2.39-1.075v4.264c-1.875.749-3.562 1.875-5.716 2.155-.332.143-.704.235-1.081.331zm-58.922.326c-.754-2.156-1.406-4.545-1.972-6.842v-5.39c.892-.75 1.921-1.173 2.955-1.595v2.623c-.423 0-.8-.046-1.217-.091-.52.143-1.034.514-1.315.983-.046.469-.142 1.268 0 1.875.281 0 .469-.234.657-.424.606-.183 1.263-.279 1.875-.371V218c-.612.236-1.217.47-1.829.749.092.377.092.755.281 1.036.565.045 1.08.045 1.548 0v2.485c-.331.092-.657.137-.983.183-.051.892.652.938.749 1.783.091.092.137.143.234.189v1.641a3.99 3.99 0 0 1-.282.012c-.476 0-.821-.14-.701-.812m.983-.841c.234.046.612-.189.794-.281h.098v1.779c-.235 0-.566.097-.892.143zm21.047.47c-1.829-.516-2.486-2.767-4.361-3.47-.937-.046-2.109-.281-2.762.559v-1.126c1.218-.749 2.436-1.354 3.699-1.965 1.314-.984 3.001-1.687 3.801-3.236a19.46 19.46 0 0 0 2.156-2.252v2.675h-.984c-.331.325-.331.795-.8.984.344.282.751.229 1.166.178.206-.026.414-.051.618-.036v3.092c-.984-.045-2.018.045-2.675-.612-.373.099-.327-.37-.607-.469-.8 0-1.549 0-2.109.469-.378-.09-.657.235-.8.521.845 0 1.64.182 2.486.514 1.218.091 2.487.137 3.705.235v4.967c-.892-.28-1.876-.469-2.533-1.028m-20.155 1.028v-1.779c.372-.142.749-.284 1.075-.421v1.92c-.281.091-.607.188-.887.28zm76.128-.841c-.331-.142-.611-.331-.938-.519v-3.236c.515.188 1.03.423 1.544.657l1.457.144v3.606c-.656-.137-1.503.097-2.063-.652m-75.053-1.359c.749-.332 1.452-.659 2.252-.893 1.686-1.08 3.281-2.675 4.875-3.704-2.252.795-4.686 1.876-7.127 2.624v-2.715c.234-.142.422-.376.611-.565 1.172.045 1.784-1.406 3.047-1.406.937-1.082 2.013-1.549 3.139-2.248v-.234c-2.156 1.4-4.499 2.059-6.797 2.761v-1.966c1.829-.938 4.035-1.921 5.767-3.235-1.732.56-3.749 1.36-5.767 1.737v-3.144c.234 0 .422-.092.657-.188-.046-.188-.327-.28-.515-.326h-.142v-5.722c2.298 2.064 5.344 4.361 8.111 5.441v11.906c-.561.424-1.126.888-1.641 1.31l.092.051c-1.264.418-2.293 1.075-3.47 1.642-1.029.279-2.058.514-3.092.794zm66.707.702v-2.109c.565-.516 1.08-.937 1.641-1.406v1.543c-.326.189-.657.377-1.03.469.327.188.658.331 1.03.423v1.966c-.515-.371-1.03-.702-1.641-.886m-14.856-2.579c.046.236.183.516.515.607 1.217-.046 2.434-.091 3.606-.423v1.784c-.846.142-1.732.188-2.67.046-.473.33-1.125.234-1.451.799zm18.515.282c-.801-.19-1.407.045-2.018.325v-1.543c.611-.469 1.172-.937 1.783-1.36.749-.703 1.029-1.641 1.921-2.252.703-.423 1.406-.841 2.063-1.316v3.803a1.937 1.937 0 0 0-.468-.235c-.984-.469-2.064.091-3.093.189v.234c1.121.416 2.389.839 3.561 1.354v3.236c-1.268-.703-2.532-1.453-3.749-2.435m-42.284-24.895h13.92v6.425c-.892-.377-1.778-.892-2.578-1.406-.891-1.218-1.36-1.218-1.967-2.578-.377-.469-.703-1.223-1.314-1.315-.561.704-.515 1.549-.75 2.344l-.096 9.752-.932.892c-.754.606-.989 2.012-1.595 2.532-2.063 2.624-2.395 5.807-4.036 8.249-.136.84-.371 1.595-.652 2.343zm34.687 22.785c.046-.045.096-.097.142-.097-.046 0-.096 0-.142.052v-13.41s.046 0 .046.045c.096.846.514 1.595.514 2.532.754 2.533 1.6 5.111 3.001 7.409.143.046.285.138.377.188v4.121c-1.264 1.08-2.344 2.349-3.469 3.236-.189.05-.327.142-.469.188zm-64.736-.233c.326-.046.612-.099.892-.189v2.434c-.28.098-.612.189-.892.24zm.892-.189a5.09 5.09 0 0 0 1.075-.561v2.715c-.372.096-.703.188-1.075.28zm9.186-9.656c.377.092.703.235 1.029.281.143.28.188.657.514.795.286 1.268.475 2.532 1.081 3.657.422.515.845 1.076 1.222 1.641v2.721c-1.314.84-2.577 1.823-3.846 2.811zm68.44 11.204c-.938-.188-1.64-.846-2.436-1.359v-3.803c1.03-.605 2.018-1.263 3.001-1.868v2.904c-.656-.423-1.36-.75-2.394-.469-.184-.046-.28 0-.418.138.795.611 1.829 1.313 2.812 1.594v3.188c-.189-.09-.423-.188-.565-.325m-24.7-5.859c.561-1.549 1.263-3.001 1.543-4.55-.657-.611-1.127-.937-1.543-1.314v-12.188h2.057c.892.611 1.504 1.361 2.064 2.206v13.874c-.748-.091-1.498-.045-2.252-.142v.989c.285-.144.332.233.52.325.259-.043.541-.015.818.012.322.032.639.064.914-.012v1.641c-.748.045-1.498.096-2.252.096-.418.183-.748.515-1.12.887l.045.612c1.217.091 2.298-.092 3.327-.378v3.046c-1.406-.046-2.766.097-4.029.755a.643.643 0 0 0-.092.281zm14.856 1.452c.8.606.749 1.733 1.549 2.389.046.424-.846.659-.938 1.263-.188.143-.423.332-.611.469zm-10.735 3.652v-3.046c1.641-.418 3.144-1.121 4.779-1.407-1.498-.09-3.138.098-4.779.19v-1.641c.189-.092.331-.188.423-.423l1.783-.137c-.657-.423-1.406-.566-2.206-.612v-13.874c1.127 1.641 1.875 3.516 3.75 4.922.33.281 2.063.607 3.047 2.202v13.41c-1.092.43-2.195.54-3.299.54-1.169 0-2.339-.124-3.498-.124m-44.015-4.075c.418.704.749 1.407.887 2.11-.28.189-.606.377-.887.611zm-17.582-1.172c-.28-.657-.795-1.217-.984-1.971a9.976 9.976 0 0 1-.657-.749v-15.469l2.344.046v12.187c-.703-.046-1.498-.188-1.921.377v.984c.188-.092.188.188.234.331l1.687-.938v1.361c-.189.138-.372.28-.56.464-.051.377-.331 1.36.234 1.594.137.046.188 0 .188-.188l.138-.137v5.39c-.234-1.126-.514-2.202-.703-3.282m3.658.892.892-.142v1.829c-.28.091-.612.188-.892.279zm.892-.142c.091-.046.188-.046.234-.092.28-.143.56-.285.841-.423v1.966c-.372.143-.703.234-1.075.378zm24.843.891c-.938 0-1.218-.561-2.064-.703h-.091v-2.675c.982-1.167 1.874-2.343 2.812-3.515v4.224l-.795-.801a1.553 1.553 0 0 1-.298.002c-.268-.013-.542-.027-.645.278v.704c.423.142.657.376 1.127.422v.235c.234 0 .422.096.611.188v2.156c-.235-.189-.423-.373-.657-.515m-25.735-5.344c.28-.138.612-.281.892-.423v3c-.28 0-.612.046-.892.046zm.892-.423c.188-.046.326-.138.468-.235.184 0 .418 0 .607-.046v3.144c-.326.046-.703.092-1.075.137zm-9.94-2.859v-11.204h3.749v15.469c-1.263-1.452-2.531-2.859-3.749-4.265m6.093 1.783.704-.377c0-.142 0-.234-.092-.377h-.612v-12.187h.75c.096 1.08.753 1.921.799 3.093.423.702.983 1.36 1.406 2.017v8.204c-1.08.092-2.063.376-2.955.988zm2.955-7.831c.189.332.372.612.469.938.143.142.279.28.423.422v6.752c-.28 0-.612.046-.892.092zm.892 8.112v-6.752c.326.327.703.658 1.075 1.03v5.722zm51.8-1.686c-1.361-.378-2.487-1.641-3.47-2.767v-8.535h4.596v12.188c-.377-.235-.709-.515-1.126-.886m-63.193-2.116v-9.466h1.453v11.204c-.469-.565-.984-1.126-1.453-1.738m-1.08-1.405v-8.061h1.08v9.466a10.626 10.626 0 0 1-1.08-1.405m60.054-.046c-.891-.092-1.314-1.076-2.252-.938-.657.097-1.452-.046-2.252-.372v-6.425h5.253v8.535c-.285-.285-.514-.566-.749-.8m-61.083-1.31c-.468-.189-1.034-.235-1.594-.28v-6.471l2.623.046v8.061c-.326-.418-.703-.887-1.029-1.356m36.19-.892v-5.533h2.812v6.563c-.892-.281-1.875-.469-2.812-1.03m-39.288.235a14.28 14.28 0 0 0-1.029-.469v-5.625h2.533v6.471c-.515-.097-1.03-.189-1.504-.377m35.772-5.768h3.516v5.533c-1.361-.748-2.675-2.205-3.516-5.533m-40.831 2.675v-3.001h4.03v5.625c-1.452-.657-2.858-1.269-4.03-2.624m-.046-.05c-.753-1.076-1.457-1.733-1.268-2.951h1.314v3.001c-.046 0-.046 0-.046-.05" transform="matrix(1.33333 0 0 -1.33333 -282.873 477.823)"/>
</svg>
