<svg width="274" height="109" viewBox="0 0 274 109" fill="none" xmlns="http://www.w3.org/2000/svg">
<g clip-path="url(#clip0_190_10682)">
<path d="M139.609 68.6056H122.264L144.793 1.58008H166.278L188.808 68.6056H171.462L155.78 18.4674H155.259L139.609 68.6056ZM137.294 42.2274H173.55V54.5328H137.294V42.2274Z" fill="#F1F1F1"/>
<path d="M102.709 21.675C102.492 19.275 101.524 17.4096 99.8072 16.0786C98.1119 14.7259 95.6884 14.0495 92.5368 14.0495C90.4501 14.0495 88.7113 14.3222 87.3202 14.8677C85.9291 15.4132 84.8857 16.1658 84.1903 17.1259C83.4946 18.0641 83.136 19.1441 83.1143 20.3659C83.0709 21.3696 83.2664 22.2532 83.7012 23.0168C84.1577 23.7804 84.8097 24.4568 85.6574 25.0459C86.5269 25.6131 87.5701 26.115 88.7873 26.5513C90.0045 26.9877 91.3739 27.3695 92.8954 27.6968L98.6336 29.0059C101.937 29.7259 104.85 30.6859 107.371 31.8859C109.914 33.0858 112.045 34.5149 113.762 36.1732C115.501 37.8314 116.815 39.7404 117.707 41.9004C118.598 44.0604 119.054 46.4823 119.076 49.1659C119.054 53.3986 117.989 57.0313 115.881 60.0641C113.773 63.0967 110.74 65.4205 106.784 67.035C102.85 68.6495 98.1011 69.4568 92.5368 69.4568C86.9506 69.4568 82.0819 68.6168 77.9304 66.9368C73.7788 65.2567 70.5511 62.7041 68.2472 59.2786C65.9431 55.8531 64.7585 51.5223 64.6934 46.2859H80.1474C80.2778 48.4459 80.8538 50.2459 81.8755 51.6859C82.897 53.1259 84.2988 54.2168 86.0813 54.9586C87.8852 55.7005 89.9719 56.0713 92.3411 56.0713C94.5147 56.0713 96.3622 55.7768 97.8837 55.1877C99.427 54.5986 100.612 53.7804 101.437 52.7332C102.263 51.6859 102.687 50.4859 102.709 49.1332C102.687 47.8677 102.296 46.7877 101.535 45.8932C100.775 44.9768 99.6008 44.1913 98.0141 43.5368C96.4491 42.8604 94.4495 42.2386 92.015 41.6713L85.0379 40.035C79.2562 38.704 74.7025 36.555 71.3771 33.5877C68.0515 30.5985 66.3996 26.5622 66.4213 21.4786C66.3996 17.3331 67.5081 13.7004 69.7469 10.5804C71.9856 7.46043 75.083 5.02769 79.0389 3.28224C82.9948 1.53679 87.5049 0.664062 92.5694 0.664062C97.7425 0.664062 102.231 1.5477 106.035 3.31497C109.86 5.06043 112.827 7.51498 114.935 10.6786C117.044 13.8423 118.12 17.5076 118.163 21.675H102.709Z" fill="#F1F1F1"/>
<path d="M40.3958 1.58008H56.502V44.8128C56.502 49.8091 55.3173 54.162 52.9481 57.871C50.579 61.5582 47.275 64.4165 43.0366 66.4456C38.7983 68.4528 33.875 69.4565 28.2672 69.4565C22.5942 69.4565 17.6386 68.4528 13.4 66.4456C9.16158 64.4165 5.86864 61.5582 3.52119 57.871C1.17373 54.162 0 49.8091 0 44.8128V1.58008H16.1387V43.4056C16.1387 45.7182 16.6387 47.78 17.6386 49.591C18.6601 51.4019 20.0838 52.82 21.9095 53.8456C23.7354 54.871 25.8546 55.3837 28.2672 55.3837C30.68 55.3837 32.7883 54.871 34.5923 53.8456C36.4182 52.82 37.8418 51.4019 38.8634 49.591C39.8849 47.78 40.3958 45.7182 40.3958 43.4056V1.58008Z" fill="#F1F1F1"/>
<mask id="mask0_190_10682" style="mask-type:luminance" maskUnits="userSpaceOnUse" x="203" y="0" width="69" height="70">
<path d="M271.859 0.5H203V69.62H271.859V0.5Z" fill="white"/>
</mask>
<g mask="url(#mask0_190_10682)">
<path d="M271.859 0.5H203V69.62H271.859V0.5Z" fill="white"/>
<mask id="mask1_190_10682" style="mask-type:luminance" maskUnits="userSpaceOnUse" x="203" y="0" width="69" height="70">
<path d="M271.859 0.5H203V69.62H271.859V0.5Z" fill="white"/>
</mask>
<g mask="url(#mask1_190_10682)">
<path d="M271.859 0.5H203V69.62H271.859V0.5Z" fill="#0932FF"/>
<path d="M244.661 34.6224C242.019 34.6224 239.741 33.9939 237.828 32.7368C235.915 31.4699 234.44 29.6536 233.406 27.2879C232.37 24.9124 231.858 22.0569 231.866 18.7212C231.876 15.3856 232.394 12.5547 233.42 10.2287C234.456 7.89279 235.925 6.11611 237.828 4.89866C239.741 3.67129 242.019 3.05762 244.661 3.05762C247.304 3.05762 249.582 3.67129 251.494 4.89866C253.418 6.11611 254.897 7.89279 255.931 10.2287C256.967 12.5646 257.48 15.3954 257.47 18.7212C257.47 22.0668 256.952 24.9272 255.917 27.3028C254.881 29.6783 253.408 31.4946 251.494 32.7516C249.592 33.9988 247.314 34.6224 244.661 34.6224ZM244.661 28.6093C246.239 28.6093 247.516 27.8026 248.491 26.1892C249.468 24.5659 249.952 22.0766 249.942 18.7212C249.942 16.5238 249.719 14.7125 249.276 13.2872C248.833 11.852 248.216 10.783 247.427 10.0803C246.638 9.37749 245.717 9.02613 244.661 9.02613C243.093 9.02613 241.826 9.8229 240.86 11.4165C239.894 13.0002 239.405 15.435 239.395 18.7212C239.386 20.9482 239.597 22.7943 240.032 24.2592C240.475 25.724 241.096 26.8178 241.895 27.5404C242.694 28.253 243.615 28.6093 244.661 28.6093Z" fill="white"/>
<path d="M205.572 33.88V28.5945L216.621 18.8845C217.449 18.1323 218.155 17.4444 218.736 16.8209C219.318 16.1873 219.761 15.5538 220.067 14.9204C220.372 14.277 220.526 13.5792 220.526 12.827C220.526 11.9856 220.344 11.268 219.978 10.6741C219.614 10.0703 219.11 9.60515 218.47 9.2785C217.829 8.95188 217.095 8.78856 216.265 8.78856C215.428 8.78856 214.693 8.96176 214.062 9.30821C213.431 9.64474 212.939 10.1347 212.583 10.7781C212.239 11.4214 212.065 12.2034 212.065 13.1239H205.129C205.129 11.0552 205.592 9.26863 206.519 7.76413C207.446 6.2596 208.747 5.10157 210.424 4.28993C212.109 3.46838 214.068 3.05762 216.295 3.05762C218.594 3.05762 220.591 3.44364 222.286 4.21568C223.982 4.98774 225.293 6.06661 226.22 7.45231C227.156 8.82814 227.626 10.4267 227.626 12.2479C227.626 13.406 227.393 14.5541 226.93 15.6925C226.466 16.8307 225.633 18.0878 224.431 19.4636C223.237 20.8393 221.542 22.4874 219.342 24.4077L215.719 27.763V27.9561H227.996V33.88H205.572Z" fill="white"/>
<path d="M271.859 0.5V69.62H203L271.859 0.5Z" fill="#FC0106"/>
<path d="M244.607 62.2115V56.4803L257.018 36.8525H262.09V44.6324H259.147L251.885 56.1835V56.421H269.856V62.2115H244.607ZM259.236 67.2593V60.4596L259.383 57.9504V36.8525H266.232V67.2593H259.236Z" fill="white"/>
<path d="M219.067 67.26V61.9746L230.116 52.2647C230.944 51.5124 231.65 50.8243 232.231 50.2009C232.813 49.5673 233.256 48.9338 233.562 48.3005C233.868 47.6573 234.021 46.9593 234.021 46.207C234.021 45.3658 233.839 44.6479 233.475 44.0542C233.109 43.4504 232.607 42.985 231.965 42.6587C231.324 42.332 230.59 42.1688 229.762 42.1688C228.923 42.1688 228.188 42.3418 227.557 42.6884C226.926 43.0249 226.434 43.5148 226.078 44.1581C225.734 44.8015 225.56 45.5834 225.56 46.5041H218.624C218.624 44.4353 219.087 42.6487 220.014 41.1441C220.941 39.6396 222.243 38.4814 223.919 37.6699C225.605 36.8486 227.563 36.4375 229.791 36.4375C232.089 36.4375 234.086 36.8236 235.781 37.5957C237.477 38.3678 238.788 39.4468 239.715 40.8325C240.653 42.2083 241.121 43.8067 241.121 45.6282C241.121 46.7861 240.89 47.9345 240.425 49.0724C239.962 50.2107 239.13 51.4679 237.926 52.8436C236.732 54.2196 235.037 55.8674 232.838 57.7875L229.214 61.143V61.3363H241.491V67.26H219.067Z" fill="white"/>
</g>
</g>
<path d="M255.001 107.06H250.562L258.643 84.0195H263.776L271.867 107.06H267.43L261.299 88.7446H261.119L255.001 107.06ZM255.146 98.0258H267.251V101.378H255.146V98.0258Z" fill="#F1F1F1"/>
<path d="M215.562 84.0195V107.06H211.403V84.0195H215.562Z" fill="#F1F1F1"/>
<path d="M172.089 90.6683C171.984 89.6858 171.543 88.9207 170.767 88.3732C169.996 87.8257 168.995 87.552 167.763 87.552C166.896 87.552 166.153 87.6833 165.532 87.9458C164.912 88.2083 164.437 88.5645 164.109 89.0145C163.78 89.4646 163.612 89.9783 163.605 90.5558C163.605 91.0358 163.713 91.4521 163.929 91.8046C164.153 92.157 164.456 92.4571 164.838 92.7046C165.219 92.9445 165.641 93.147 166.104 93.312C166.568 93.477 167.034 93.6158 167.504 93.7283L169.656 94.2683C170.523 94.4708 171.356 94.7445 172.155 95.0895C172.963 95.4346 173.684 95.8696 174.319 96.3946C174.961 96.9195 175.469 97.5532 175.843 98.2958C176.216 99.0383 176.403 99.9083 176.403 100.906C176.403 102.256 176.06 103.445 175.373 104.472C174.686 105.492 173.692 106.291 172.392 106.868C171.099 107.438 169.533 107.723 167.695 107.723C165.909 107.723 164.36 107.446 163.044 106.891C161.736 106.336 160.713 105.526 159.973 104.461C159.241 103.396 158.845 102.098 158.785 100.568H162.877C162.935 101.371 163.182 102.038 163.615 102.571C164.049 103.103 164.614 103.501 165.308 103.763C166.011 104.026 166.796 104.157 167.662 104.157C168.566 104.157 169.358 104.022 170.038 103.752C170.725 103.475 171.263 103.092 171.652 102.604C172.04 102.11 172.238 101.532 172.246 100.872C172.238 100.272 172.062 99.777 171.719 99.3871C171.375 98.9895 170.893 98.6596 170.273 98.3971C169.661 98.1271 168.943 97.887 168.121 97.6771L165.51 97.002C163.62 96.5146 162.125 95.7758 161.027 94.7858C159.936 93.7883 159.391 92.4646 159.391 90.8145C159.391 89.457 159.756 88.2682 160.489 87.2483C161.228 86.2283 162.234 85.4371 163.503 84.8745C164.774 84.3045 166.212 84.0195 167.819 84.0195C169.447 84.0195 170.874 84.3045 172.099 84.8745C173.333 85.4371 174.3 86.2207 175.003 87.2258C175.704 88.2233 176.067 89.3707 176.09 90.6683H172.089Z" fill="#F1F1F1"/>
<path d="M119.47 90.6683C119.366 89.6858 118.925 88.9207 118.148 88.3732C117.378 87.8257 116.377 87.552 115.144 87.552C114.278 87.552 113.534 87.6833 112.914 87.9458C112.294 88.2083 111.819 88.5645 111.491 89.0145C111.162 89.4646 110.994 89.9783 110.986 90.5558C110.986 91.0358 111.095 91.4521 111.311 91.8046C111.535 92.157 111.838 92.4571 112.219 92.7046C112.6 92.9445 113.022 93.147 113.486 93.312C113.949 93.477 114.416 93.6158 114.887 93.7283L117.038 94.2683C117.905 94.4708 118.738 94.7445 119.537 95.0895C120.344 95.4346 121.066 95.8696 121.701 96.3946C122.343 96.9195 122.851 97.5532 123.225 98.2958C123.598 99.0383 123.785 99.9083 123.785 100.906C123.785 102.256 123.441 103.445 122.754 104.472C122.067 105.492 121.073 106.291 119.773 106.868C118.48 107.438 116.915 107.723 115.077 107.723C113.291 107.723 111.741 107.446 110.426 106.891C109.118 106.336 108.095 105.526 107.355 104.461C106.623 103.396 106.227 102.098 106.167 100.568H110.258C110.318 101.371 110.564 102.038 110.997 102.571C111.431 103.103 111.995 103.501 112.69 103.763C113.392 104.026 114.177 104.157 115.043 104.157C115.947 104.157 116.739 104.022 117.419 103.752C118.107 103.475 118.645 103.092 119.033 102.604C119.422 102.11 119.62 101.532 119.627 100.872C119.62 100.272 119.444 99.777 119.101 99.3871C118.757 98.9895 118.275 98.6596 117.655 98.3971C117.042 98.1271 116.325 97.887 115.503 97.6771L112.891 97.002C111.001 96.5146 109.507 95.7758 108.408 94.7858C107.318 93.7883 106.772 92.4646 106.772 90.8145C106.772 89.457 107.138 88.2682 107.871 87.2483C108.61 86.2283 109.615 85.4371 110.885 84.8745C112.156 84.3045 113.594 84.0195 115.2 84.0195C116.829 84.0195 118.256 84.3045 119.482 84.8745C120.714 85.4371 121.682 86.2207 122.384 87.2258C123.087 88.2233 123.449 89.3707 123.471 90.6683H119.47Z" fill="#F1F1F1"/>
<path d="M67.0088 84.0195H71.1667V99.072C71.1667 100.722 70.7783 102.173 70.0012 103.426C69.2317 104.678 68.1483 105.657 66.751 106.362C65.3539 107.06 63.7212 107.408 61.8535 107.408C59.9781 107.408 58.3417 107.06 56.9446 106.362C55.5473 105.657 54.4639 104.678 53.6943 103.426C52.9248 102.173 52.54 100.722 52.54 99.072V84.0195H56.698V98.7232C56.698 99.6833 56.9071 100.538 57.3256 101.288C57.7515 102.038 58.3491 102.627 59.1188 103.055C59.8884 103.475 60.7999 103.684 61.8535 103.684C62.9068 103.684 63.8184 103.475 64.588 103.055C65.3651 102.627 65.9627 102.038 66.3812 101.288C66.7997 100.538 67.0088 99.6833 67.0088 98.7232V84.0195Z" fill="#F1F1F1"/>
<path d="M0 107.06V84.0195H8.60733C10.3706 84.0195 11.85 84.327 13.0455 84.942C14.2484 85.557 15.1562 86.4196 15.7689 87.5295C16.3891 88.632 16.6991 89.9183 16.6991 91.3883C16.6991 92.8657 16.3853 94.1483 15.7577 95.2358C15.1376 96.3158 14.2223 97.152 13.0119 97.7445C11.8015 98.3295 10.3146 98.622 8.5513 98.622H2.42081V95.1571H7.99092C9.022 95.1571 9.8663 95.0145 10.5238 94.7295C11.1813 94.4371 11.667 94.0133 11.9808 93.4583C12.3021 92.8958 12.4627 92.2058 12.4627 91.3883C12.4627 90.5708 12.3021 89.8733 11.9808 89.2958C11.6595 88.7108 11.1701 88.2682 10.5126 87.9683C9.85509 87.6607 9.00707 87.5071 7.96851 87.5071H4.15797V107.06H0ZM11.8575 96.6195L17.5397 107.06H12.8998L7.31847 96.6195H11.8575Z" fill="#F1F1F1"/>
</g>
<defs>
<clipPath id="clip0_190_10682">
<rect width="274" height="108" fill="white" transform="translate(0 0.5)"/>
</clipPath>
</defs>
</svg>
