<svg width="274" height="95" viewBox="0 0 274 95" fill="none" xmlns="http://www.w3.org/2000/svg">
<path d="M159.246 60.0001H144.257L163.727 1.81836H182.296L201.767 60.0001H186.776L173.223 16.4775H172.773L159.246 60.0001ZM157.246 37.1025H188.58V47.7842H157.246V37.1025Z" fill="#F1F1F1"/>
<path d="M64.0557 1.81836H77.6374V48.9775H92.966V1.81836H106.435V48.9775H121.482V1.81836H134.98V60.0001H64.0557V1.81836Z" fill="#F1F1F1"/>
<path d="M53.0023 22.8975H38.9135C38.7255 21.4391 38.3404 20.1229 37.7581 18.9486C37.1757 17.7744 36.4056 16.7705 35.4475 15.9373C34.4895 15.1039 33.353 14.4694 32.038 14.0339C30.7419 13.5793 29.3049 13.352 27.7268 13.352C24.9279 13.352 22.514 14.0433 20.4852 15.4259C18.4752 16.8084 16.9254 18.8065 15.8358 21.4201C14.7651 24.0339 14.2298 27.1968 14.2298 30.9089C14.2298 34.7725 14.7746 38.0111 15.8641 40.6248C16.9724 43.2194 18.5222 45.1796 20.5134 46.5054C22.5234 47.8123 24.8997 48.4656 27.6424 48.4656C29.1827 48.4656 30.5822 48.2668 31.8408 47.869C33.1182 47.4714 34.2359 46.8936 35.194 46.1361C36.1707 45.3596 36.9692 44.4221 37.5891 43.3236C38.2277 42.2061 38.6692 40.9468 38.9135 39.5451L53.0023 39.6304C52.758 42.2061 52.016 44.744 50.7762 47.244C49.5552 49.744 47.8739 52.0263 45.7325 54.0906C43.5909 56.1361 40.9797 57.7649 37.899 58.977C34.8371 60.1891 31.3243 60.7951 27.3606 60.7951C22.1383 60.7951 17.4607 59.6399 13.3281 57.3293C9.21411 54.9998 5.96429 51.6096 3.57856 47.1589C1.19286 42.708 0 37.2914 0 30.9089C0 24.5073 1.21164 19.0811 3.63493 14.6304C6.0582 10.1797 9.33621 6.79897 13.4689 4.48837C17.6017 2.17776 22.2322 1.02246 27.3606 1.02246C30.8546 1.02246 34.0856 1.51489 37.0537 2.49974C40.0217 3.46564 42.6329 4.8861 44.887 6.7611C47.1413 8.61716 48.9729 10.8994 50.3818 13.6076C51.7906 16.316 52.6642 19.4126 53.0023 22.8975Z" fill="#F1F1F1"/>
<path d="M274 1.25H214.488V61.25H274V1.25Z" fill="#0932FF"/>
<path d="M250.494 30.8698C248.21 30.8698 246.241 30.3241 244.587 29.2329C242.934 28.1331 241.66 26.5565 240.765 24.503C239.871 22.4409 239.427 19.9621 239.436 17.0666C239.444 14.1711 239.892 11.7138 240.778 9.69464C241.672 7.66693 242.943 6.12466 244.587 5.06785C246.241 4.00243 248.21 3.46973 250.494 3.46973C252.777 3.46973 254.746 4.00243 256.399 5.06785C258.061 6.12466 259.338 7.66693 260.234 9.69464C261.129 11.7223 261.571 14.1796 261.564 17.0666C261.564 19.9708 261.116 22.4538 260.221 24.5159C259.326 26.578 258.053 28.1546 256.399 29.2458C254.754 30.3284 252.786 30.8698 250.494 30.8698ZM250.494 25.65C251.856 25.65 252.961 24.9498 253.804 23.5493C254.647 22.1401 255.065 19.9793 255.057 17.0666C255.057 15.1591 254.865 13.5869 254.482 12.3496C254.098 11.1037 253.566 10.1758 252.884 9.56576C252.202 8.95573 251.405 8.65073 250.494 8.65073C249.139 8.65073 248.044 9.34236 247.208 10.7257C246.372 12.1004 245.951 14.214 245.942 17.0666C245.934 18.9998 246.117 20.6023 246.493 21.8739C246.876 23.1454 247.413 24.0949 248.103 24.7221C248.793 25.3407 249.59 25.65 250.494 25.65Z" fill="#F1F1F1"/>
<path d="M216.711 30.2253V25.6371L226.261 17.2084C226.976 16.5554 227.585 15.9583 228.088 15.417C228.591 14.867 228.975 14.3171 229.239 13.7673C229.503 13.2088 229.635 12.603 229.635 11.9501C229.635 11.2197 229.477 10.5968 229.162 10.0813C228.847 9.55716 228.412 9.15335 227.857 8.8698C227.305 8.58628 226.67 8.4445 225.953 8.4445C225.229 8.4445 224.594 8.59485 224.049 8.89559C223.503 9.18771 223.077 9.61301 222.77 10.1715C222.472 10.73 222.323 11.4088 222.323 12.2078H216.327C216.327 10.4121 216.728 8.86123 217.53 7.55524C218.331 6.24923 219.455 5.24399 220.905 4.53944C222.361 3.82629 224.052 3.46973 225.979 3.46973C227.964 3.46973 229.69 3.80481 231.155 4.47499C232.622 5.14518 233.755 6.0817 234.556 7.28456C235.366 8.47886 235.771 9.86648 235.771 11.4474C235.771 12.4527 235.57 13.4494 235.17 14.4375C234.769 15.4255 234.049 16.5168 233.01 17.711C231.979 18.9053 230.513 20.3359 228.613 22.0028L225.481 24.9154V25.083H236.09V30.2253H216.711Z" fill="#F1F1F1"/>
<path d="M274 1.25V61.25H214.488L274 1.25Z" fill="#FC0106"/>
<path d="M250.448 54.8196V49.8446L261.173 32.8066H265.558V39.56H263.014L256.738 49.587V49.7931H272.269V54.8196H250.448ZM263.091 59.2014V53.2989L263.218 51.1208V32.8066H269.137V59.2014H263.091Z" fill="#F1F1F1"/>
<path d="M228.374 59.2009V54.6129L237.923 46.1842C238.639 45.5312 239.249 44.9338 239.751 44.3927C240.254 43.8427 240.637 43.2928 240.901 42.7431C241.166 42.1847 241.298 41.5788 241.298 40.9258C241.298 40.1956 241.141 39.5724 240.825 39.0571C240.51 38.5329 240.074 38.1289 239.522 37.8457C238.967 37.5621 238.333 37.4204 237.616 37.4204C236.892 37.4204 236.257 37.5706 235.712 37.8714C235.166 38.1636 234.741 38.5888 234.433 39.1472C234.135 39.7057 233.986 40.3844 233.986 41.1837H227.991C227.991 39.3878 228.392 37.8369 229.193 36.5309C229.994 35.2249 231.118 34.2196 232.567 33.5151C234.024 32.8022 235.717 32.4453 237.642 32.4453C239.628 32.4453 241.353 32.7804 242.819 33.4507C244.285 34.1209 245.418 35.0576 246.219 36.2604C247.029 37.4547 247.434 38.8422 247.434 40.4233C247.434 41.4284 247.233 42.4253 246.833 43.4131C246.432 44.4012 245.712 45.4926 244.673 46.6867C243.641 47.8812 242.176 49.3116 240.275 50.9783L237.144 53.8911V54.0588H247.753V59.2009H228.374Z" fill="#F1F1F1"/>
<path d="M0.474609 93.75V73.75H7.91352C9.43747 73.75 10.716 74.0365 11.7492 74.6094C12.7888 75.1823 13.5734 75.97 14.1029 76.9726C14.6389 77.9687 14.9068 79.1016 14.9068 80.3711C14.9068 81.6536 14.6389 82.793 14.1029 83.789C13.567 84.7851 12.776 85.5696 11.7298 86.1426C10.6837 86.709 9.3955 86.9923 7.86509 86.9923H2.93488V84.0136H7.3808C8.27192 84.0136 9.0016 83.8574 9.56985 83.5449C10.1381 83.2324 10.5578 82.8028 10.829 82.2559C11.1067 81.709 11.2455 81.0807 11.2455 80.3711C11.2455 79.6615 11.1067 79.0365 10.829 78.4961C10.5578 77.9558 10.1349 77.5358 9.56016 77.2364C8.9919 76.9304 8.259 76.7774 7.36142 76.7774H4.06815V93.75H0.474609Z" fill="#F1F1F1"/>
<path d="M68.2966 84.0235C68.2966 86.1784 67.8962 88.0241 67.0956 89.5605C66.3013 91.0905 65.2165 92.2624 63.841 93.0761C62.472 93.89 60.919 94.2969 59.182 94.2969C57.4449 94.2969 55.8887 93.89 54.5134 93.0761C53.1444 92.2559 52.0595 91.0808 51.2588 89.5508C50.4645 88.0144 50.0674 86.1719 50.0674 84.0235C50.0674 81.8685 50.4645 80.026 51.2588 78.4961C52.0595 76.9596 53.1444 75.7845 54.5134 74.9708C55.8887 74.1569 57.4449 73.75 59.182 73.75C60.919 73.75 62.472 74.1569 63.841 74.9708C65.2165 75.7845 66.3013 76.9596 67.0956 78.4961C67.8962 80.026 68.2966 81.8685 68.2966 84.0235ZM64.6837 84.0235C64.6837 82.5065 64.448 81.2272 63.9767 80.1855C63.5117 79.1374 62.8659 78.3464 62.0394 77.8125C61.2129 77.2721 60.2604 77.002 59.182 77.002C58.1036 77.002 57.1512 77.2721 56.3246 77.8125C55.498 78.3464 54.8491 79.1374 54.3777 80.1855C53.9128 81.2272 53.6803 82.5065 53.6803 84.0235C53.6803 85.5404 53.9128 86.8229 54.3777 87.8711C54.8491 88.9127 55.498 89.7037 56.3246 90.2441C57.1512 90.778 58.1036 91.0449 59.182 91.0449C60.2604 91.0449 61.2129 90.778 62.0394 90.2441C62.8659 89.7037 63.5117 88.9127 63.9767 87.8711C64.448 86.8229 64.6837 85.5404 64.6837 84.0235Z" fill="#F1F1F1"/>
<path d="M120.863 80.7715H117.241C117.137 80.1725 116.947 79.6419 116.669 79.1797C116.392 78.711 116.046 78.3137 115.633 77.9882C115.22 77.6627 114.748 77.4186 114.219 77.2559C113.696 77.0866 113.131 77.002 112.524 77.002C111.445 77.002 110.49 77.2754 109.656 77.8223C108.823 78.3626 108.171 79.1569 107.7 80.2051C107.229 81.2468 106.993 82.5195 106.993 84.0235C106.993 85.5534 107.229 86.8425 107.7 87.8906C108.178 88.9323 108.83 89.72 109.656 90.2539C110.49 90.7813 111.442 91.0449 112.514 91.0449C113.108 91.0449 113.663 90.9667 114.18 90.8105C114.703 90.6477 115.171 90.4101 115.584 90.0976C116.004 89.7851 116.356 89.401 116.64 88.9452C116.931 88.4896 117.131 87.9687 117.241 87.3827L120.863 87.4024C120.728 88.3529 120.434 89.2448 119.982 90.0781C119.536 90.9115 118.952 91.6471 118.229 92.2851C117.505 92.9166 116.66 93.4115 115.691 93.7695C114.722 94.1211 113.647 94.2969 112.465 94.2969C110.722 94.2969 109.166 93.89 107.797 93.0761C106.428 92.2624 105.349 91.0873 104.562 89.5508C103.774 88.0144 103.38 86.1719 103.38 84.0235C103.38 81.8685 103.777 80.026 104.571 78.4961C105.366 76.9596 106.447 75.7845 107.816 74.9708C109.185 74.1569 110.735 73.75 112.465 73.75C113.57 73.75 114.596 73.9062 115.546 74.2188C116.495 74.5312 117.341 74.9903 118.083 75.5958C118.826 76.1946 119.436 76.9304 119.914 77.8027C120.398 78.6686 120.715 79.6583 120.863 80.7715Z" fill="#F1F1F1"/>
<path d="M172.935 80.7715H169.312C169.209 80.1725 169.019 79.6419 168.742 79.1797C168.464 78.711 168.118 78.3137 167.705 77.9882C167.291 77.6627 166.82 77.4186 166.291 77.2559C165.767 77.0866 165.202 77.002 164.596 77.002C163.517 77.002 162.561 77.2754 161.728 77.8223C160.895 78.3626 160.243 79.1569 159.772 80.2051C159.301 81.2468 159.065 82.5195 159.065 84.0235C159.065 85.5534 159.301 86.8425 159.772 87.8906C160.25 88.9323 160.902 89.72 161.728 90.2539C162.561 90.7813 163.513 91.0449 164.586 91.0449C165.18 91.0449 165.735 90.9667 166.252 90.8105C166.775 90.6477 167.243 90.4101 167.657 90.0976C168.076 89.7851 168.428 89.401 168.712 88.9452C169.003 88.4896 169.203 87.9687 169.312 87.3827L172.935 87.4024C172.8 88.3529 172.506 89.2448 172.053 90.0781C171.608 90.9115 171.024 91.6471 170.3 92.2851C169.577 92.9166 168.732 93.4115 167.762 93.7695C166.794 94.1211 165.719 94.2969 164.538 94.2969C162.794 94.2969 161.237 93.89 159.868 93.0761C158.5 92.2624 157.421 91.0873 156.634 89.5508C155.846 88.0144 155.452 86.1719 155.452 84.0235C155.452 81.8685 155.849 80.026 156.644 78.4961C157.437 76.9596 158.519 75.7845 159.888 74.9708C161.257 74.1569 162.807 73.75 164.538 73.75C165.642 73.75 166.669 73.9062 167.617 74.2188C168.567 74.5312 169.413 74.9903 170.155 75.5958C170.898 76.1946 171.508 76.9304 171.986 77.8027C172.47 78.6686 172.787 79.6583 172.935 80.7715Z" fill="#F1F1F1"/>
<path d="M207.524 73.75H211.089V87.3827H211.272L220.601 73.75H223.826V93.75H220.233V80.127H220.068L210.711 93.75H207.524V73.75Z" fill="#F1F1F1"/>
<path d="M273.525 93.75H269.922V76.7774H266.629C265.738 76.7774 265.005 76.9107 264.43 77.1777C263.862 77.4381 263.439 77.8223 263.162 78.3301C262.89 78.8314 262.755 79.4369 262.755 80.1465C262.755 80.8561 262.89 81.4551 263.162 81.9434C263.433 82.4251 263.852 82.793 264.42 83.0469C264.995 83.2942 265.726 83.418 266.61 83.418H271.434V86.4258H266.125C264.601 86.4258 263.317 86.1719 262.27 85.664C261.224 85.1497 260.43 84.4239 259.887 83.4864C259.352 82.5424 259.084 81.429 259.084 80.1465C259.084 78.8705 259.348 77.7539 259.877 76.7969C260.414 75.8334 261.202 75.0846 262.242 74.5507C263.281 74.0169 264.559 73.75 266.077 73.75H273.525V93.75ZM263.268 84.6875H267.191L262.367 93.75H258.357L263.268 84.6875Z" fill="#F1F1F1"/>
</svg>
