<svg width="221" height="76" viewBox="0 0 221 76" fill="none" xmlns="http://www.w3.org/2000/svg">
<g clip-path="url(#clip0_190_10708)">
<path d="M128.443 48H116.353L132.057 1.45459H147.034L162.739 48H150.648L139.716 13.1819H139.353L128.443 48ZM126.83 29.6819H152.103V38.2273H126.83V29.6819Z" fill="#0B0B0B"/>
<path d="M51.665 1.45459H62.6196V39.1819H74.9832V1.45459H85.8469V39.1819H97.9832V1.45459H108.87V48H51.665V1.45459Z" fill="#0B0B0B"/>
<path d="M42.75 18.3184H31.3864C31.2348 17.1517 30.9242 16.0987 30.4545 15.1593C29.9848 14.2199 29.3636 13.4168 28.5909 12.7502C27.8182 12.0835 26.9015 11.5759 25.8409 11.2275C24.7955 10.8638 23.6364 10.682 22.3636 10.682C20.1061 10.682 18.1591 11.235 16.5227 12.3411C14.9015 13.4471 13.6515 15.0456 12.7727 17.1365C11.9091 19.2275 11.4773 21.7578 11.4773 24.7275C11.4773 27.8184 11.9167 30.4093 12.7955 32.5002C13.6894 34.5759 14.9394 36.1441 16.5455 37.2047C18.1667 38.2502 20.0833 38.7729 22.2955 38.7729C23.5379 38.7729 24.6667 38.6138 25.6818 38.2956C26.7121 37.9775 27.6136 37.5153 28.3864 36.9093C29.1742 36.2881 29.8182 35.5381 30.3182 34.6593C30.8333 33.7653 31.1894 32.7578 31.3864 31.6365L42.75 31.7047C42.553 33.7653 41.9545 35.7956 40.9545 37.7956C39.9697 39.7956 38.6136 41.6214 36.8864 43.2729C35.1591 44.9093 33.053 46.2123 30.5682 47.182C28.0985 48.1517 25.2652 48.6365 22.0682 48.6365C17.8561 48.6365 14.0833 47.7123 10.75 45.8638C7.43182 44.0002 4.81061 41.2881 2.88636 37.7275C0.962121 34.1668 0 29.8335 0 24.7275C0 19.6062 0.977273 15.2653 2.93182 11.7047C4.88636 8.14412 7.5303 5.43957 10.8636 3.59109C14.197 1.7426 17.9318 0.818359 22.0682 0.818359C24.8864 0.818359 27.4924 1.2123 29.8864 2.00018C32.2803 2.7729 34.3864 3.90927 36.2045 5.40927C38.0227 6.89412 39.5 8.71988 40.6364 10.8865C41.7727 13.0532 42.4773 15.5305 42.75 18.3184Z" fill="#0B0B0B"/>
<mask id="mask0_190_10708" style="mask-type:luminance" maskUnits="userSpaceOnUse" x="173" y="1" width="48" height="48">
<path d="M221 1H173V49H221V1Z" fill="white"/>
</mask>
<g mask="url(#mask0_190_10708)">
<path d="M221 1H173V49H221V1Z" fill="#F1F1F1"/>
<mask id="mask1_190_10708" style="mask-type:luminance" maskUnits="userSpaceOnUse" x="173" y="1" width="48" height="48">
<path d="M221 1H173V49H221V1Z" fill="white"/>
</mask>
<g mask="url(#mask1_190_10708)">
<path d="M221 1H173V49H221V1Z" fill="#0932FF"/>
<path d="M202.041 24.6959C200.199 24.6959 198.611 24.2594 197.277 23.3864C195.944 22.5066 194.916 21.2453 194.194 19.6025C193.473 17.9528 193.115 15.9698 193.122 13.6534C193.129 11.337 193.49 9.37111 194.205 7.75581C194.926 6.13364 195.951 4.89983 197.277 4.05438C198.611 3.20204 200.199 2.77588 202.041 2.77588C203.883 2.77588 205.471 3.20204 206.804 4.05438C208.145 4.89983 209.175 6.13364 209.897 7.75581C210.619 9.37797 210.976 11.3438 210.97 13.6534C210.97 15.9767 210.609 17.9631 209.887 19.6128C209.165 21.2625 208.138 22.5238 206.804 23.3967C205.477 24.2628 203.89 24.6959 202.041 24.6959ZM202.041 20.5201C203.14 20.5201 204.031 19.9599 204.711 18.8395C205.391 17.7122 205.728 15.9835 205.722 13.6534C205.722 12.1274 205.567 10.8696 205.258 9.87975C204.948 8.88308 204.519 8.14075 203.969 7.65271C203.419 7.16468 202.776 6.92068 202.041 6.92068C200.948 6.92068 200.065 7.47399 199.391 8.58064C198.717 9.68042 198.377 11.3713 198.37 13.6534C198.363 15.1999 198.511 16.4819 198.814 17.4992C199.123 18.5164 199.556 19.276 200.113 19.7778C200.669 20.2727 201.312 20.5201 202.041 20.5201Z" fill="#F1F1F1"/>
<path d="M174.793 24.1803V20.5098L182.495 13.7668C183.072 13.2444 183.563 12.7667 183.969 12.3337C184.375 11.8937 184.684 11.4538 184.897 11.0139C185.11 10.5671 185.217 10.0825 185.217 9.56014C185.217 8.97587 185.089 8.47754 184.835 8.06512C184.581 7.64583 184.23 7.32278 183.783 7.09594C183.337 6.86912 182.825 6.7557 182.247 6.7557C181.663 6.7557 181.151 6.87598 180.711 7.11657C180.271 7.35027 179.927 7.69051 179.68 8.1373C179.439 8.58408 179.319 9.12711 179.319 9.76635H174.483C174.483 8.32975 174.806 7.08908 175.453 6.04429C176.099 4.99948 177.006 4.19529 178.175 3.63165C179.35 3.06113 180.714 2.77588 182.268 2.77588C183.869 2.77588 185.261 3.04395 186.443 3.58009C187.626 4.11624 188.54 4.86546 189.186 5.82775C189.839 6.78319 190.166 7.89328 190.166 9.15804C190.166 9.96224 190.004 10.7596 189.681 11.5501C189.358 12.3405 188.777 13.2135 187.939 14.1689C187.107 15.1243 185.925 16.2688 184.392 17.6023L181.866 19.9324V20.0665H190.423V24.1803H174.793Z" fill="#F1F1F1"/>
<path d="M221 1V49H173L221 1Z" fill="#FC0106"/>
<path d="M202.004 43.8555V39.8755L210.654 26.2451H214.191V31.6478H212.139L207.077 39.6694V39.8343H219.604V43.8555H202.004ZM212.201 47.3609V42.6389L212.304 40.8964V26.2451H217.078V47.3609H212.201Z" fill="#F1F1F1"/>
<path d="M184.2 47.361V43.6906L191.902 36.9476C192.479 36.4252 192.971 35.9473 193.376 35.5144C193.782 35.0744 194.091 34.6345 194.304 34.1947C194.517 33.748 194.624 33.2633 194.624 32.7409C194.624 32.1567 194.497 31.6582 194.242 31.2459C193.988 30.8266 193.637 30.5034 193.191 30.2768C192.744 30.0499 192.232 29.9366 191.654 29.9366C191.07 29.9366 190.558 30.0567 190.118 30.2974C189.678 30.5311 189.335 30.8713 189.087 31.318C188.846 31.7648 188.726 32.3078 188.726 32.9472H183.891C183.891 31.5105 184.214 30.2698 184.86 29.225C185.506 28.1802 186.413 27.3759 187.582 26.8123C188.757 26.242 190.122 25.9565 191.675 25.9565C193.277 25.9565 194.668 26.2246 195.851 26.7608C197.033 27.297 197.947 28.0463 198.593 29.0086C199.246 29.964 199.573 31.074 199.573 32.3389C199.573 33.143 199.411 33.9405 199.088 34.7307C198.765 35.5212 198.184 36.3943 197.346 37.3496C196.514 38.3052 195.332 39.4495 193.799 40.7829L191.273 43.1131V43.2473H199.83V47.361H184.2Z" fill="#F1F1F1"/>
</g>
</g>
<path d="M0.382812 75V59H6.38281C7.61198 59 8.64323 59.2292 9.47656 59.6875C10.3151 60.1458 10.9479 60.776 11.375 61.5781C11.8073 62.375 12.0234 63.2813 12.0234 64.2969C12.0234 65.3229 11.8073 66.2344 11.375 67.0312C10.9427 67.8281 10.3047 68.4557 9.46094 68.9141C8.61719 69.3672 7.57813 69.5938 6.34375 69.5938H2.36719V67.2109H5.95313C6.67188 67.2109 7.26042 67.0859 7.71875 66.8359C8.17708 66.5859 8.51563 66.2422 8.73438 65.8047C8.95833 65.3672 9.07031 64.8646 9.07031 64.2969C9.07031 63.7292 8.95833 63.2292 8.73438 62.7969C8.51563 62.3646 8.17448 62.0286 7.71094 61.7891C7.2526 61.5443 6.66146 61.4219 5.9375 61.4219H3.28125V75H0.382812Z" fill="#0B0B0B"/>
<path d="M55.0859 67.2188C55.0859 68.9427 54.763 70.4193 54.1172 71.6484C53.4766 72.8724 52.6016 73.8099 51.4922 74.4609C50.388 75.112 49.1354 75.4375 47.7344 75.4375C46.3333 75.4375 45.0781 75.112 43.9688 74.4609C42.8646 73.8047 41.9896 72.8646 41.3438 71.6406C40.7031 70.4115 40.3828 68.9375 40.3828 67.2188C40.3828 65.4948 40.7031 64.0208 41.3438 62.7969C41.9896 61.5677 42.8646 60.6276 43.9688 59.9766C45.0781 59.3255 46.3333 59 47.7344 59C49.1354 59 50.388 59.3255 51.4922 59.9766C52.6016 60.6276 53.4766 61.5677 54.1172 62.7969C54.763 64.0208 55.0859 65.4948 55.0859 67.2188ZM52.1719 67.2188C52.1719 66.0052 51.9818 64.9818 51.6016 64.1484C51.2266 63.3099 50.7057 62.6771 50.0391 62.25C49.3724 61.8177 48.6042 61.6016 47.7344 61.6016C46.8646 61.6016 46.0964 61.8177 45.4297 62.25C44.763 62.6771 44.2396 63.3099 43.8594 64.1484C43.4844 64.9818 43.2969 66.0052 43.2969 67.2188C43.2969 68.4323 43.4844 69.4583 43.8594 70.2969C44.2396 71.1302 44.763 71.763 45.4297 72.1953C46.0964 72.6224 46.8646 72.8359 47.7344 72.8359C48.6042 72.8359 49.3724 72.6224 50.0391 72.1953C50.7057 71.763 51.2266 71.1302 51.6016 70.2969C51.9818 69.4583 52.1719 68.4323 52.1719 67.2188Z" fill="#0B0B0B"/>
<path d="M97.4844 64.6172H94.5625C94.4792 64.138 94.3255 63.7135 94.1016 63.3438C93.8776 62.9688 93.599 62.651 93.2656 62.3906C92.9323 62.1302 92.5521 61.9349 92.125 61.8047C91.7031 61.6693 91.2474 61.6016 90.7578 61.6016C89.888 61.6016 89.1172 61.8203 88.4453 62.2578C87.7734 62.6901 87.2474 63.3255 86.8672 64.1641C86.487 64.9974 86.2969 66.0156 86.2969 67.2188C86.2969 68.4427 86.487 69.474 86.8672 70.3125C87.2526 71.1458 87.7786 71.776 88.4453 72.2031C89.1172 72.625 89.8854 72.8359 90.75 72.8359C91.2292 72.8359 91.6771 72.7734 92.0938 72.6484C92.5156 72.5182 92.8932 72.3281 93.2266 72.0781C93.5651 71.8281 93.849 71.5208 94.0781 71.1562C94.3125 70.7917 94.474 70.375 94.5625 69.9062L97.4844 69.9219C97.375 70.6823 97.138 71.3958 96.7734 72.0625C96.4141 72.7292 95.9427 73.3177 95.3594 73.8281C94.776 74.3333 94.0938 74.7292 93.3125 75.0156C92.5313 75.2969 91.6641 75.4375 90.7109 75.4375C89.3047 75.4375 88.0495 75.112 86.9453 74.4609C85.8411 73.8099 84.9714 72.8698 84.3359 71.6406C83.7005 70.4115 83.3828 68.9375 83.3828 67.2188C83.3828 65.4948 83.7031 64.0208 84.3438 62.7969C84.9844 61.5677 85.8568 60.6276 86.9609 59.9766C88.0651 59.3255 89.3151 59 90.7109 59C91.6016 59 92.4297 59.125 93.1953 59.375C93.9609 59.625 94.6432 59.9922 95.2422 60.4766C95.8411 60.9557 96.3333 61.5443 96.7188 62.2422C97.1094 62.9349 97.3646 63.7266 97.4844 64.6172Z" fill="#0B0B0B"/>
<path d="M139.484 64.6172H136.562C136.479 64.138 136.326 63.7135 136.102 63.3438C135.878 62.9688 135.599 62.651 135.266 62.3906C134.932 62.1302 134.552 61.9349 134.125 61.8047C133.703 61.6693 133.247 61.6016 132.758 61.6016C131.888 61.6016 131.117 61.8203 130.445 62.2578C129.773 62.6901 129.247 63.3255 128.867 64.1641C128.487 64.9974 128.297 66.0156 128.297 67.2188C128.297 68.4427 128.487 69.474 128.867 70.3125C129.253 71.1458 129.779 71.776 130.445 72.2031C131.117 72.625 131.885 72.8359 132.75 72.8359C133.229 72.8359 133.677 72.7734 134.094 72.6484C134.516 72.5182 134.893 72.3281 135.227 72.0781C135.565 71.8281 135.849 71.5208 136.078 71.1562C136.313 70.7917 136.474 70.375 136.562 69.9062L139.484 69.9219C139.375 70.6823 139.138 71.3958 138.773 72.0625C138.414 72.7292 137.943 73.3177 137.359 73.8281C136.776 74.3333 136.094 74.7292 135.312 75.0156C134.531 75.2969 133.664 75.4375 132.711 75.4375C131.305 75.4375 130.049 75.112 128.945 74.4609C127.841 73.8099 126.971 72.8698 126.336 71.6406C125.701 70.4115 125.383 68.9375 125.383 67.2188C125.383 65.4948 125.703 64.0208 126.344 62.7969C126.984 61.5677 127.857 60.6276 128.961 59.9766C130.065 59.3255 131.315 59 132.711 59C133.602 59 134.43 59.125 135.195 59.375C135.961 59.625 136.643 59.9922 137.242 60.4766C137.841 60.9557 138.333 61.5443 138.719 62.2422C139.109 62.9349 139.365 63.7266 139.484 64.6172Z" fill="#0B0B0B"/>
<path d="M167.383 59H170.258V69.9062H170.406L177.93 59H180.531V75H177.633V64.1016H177.5L169.953 75H167.383V59Z" fill="#0B0B0B"/>
<path d="M220.617 75H217.711V61.4219H215.055C214.336 61.4219 213.745 61.5286 213.281 61.7422C212.823 61.9505 212.482 62.2578 212.258 62.6641C212.039 63.0651 211.93 63.5495 211.93 64.1172C211.93 64.6849 212.039 65.1641 212.258 65.5547C212.477 65.9401 212.815 66.2344 213.273 66.4375C213.737 66.6354 214.326 66.7344 215.039 66.7344H218.93V69.1406H214.648C213.419 69.1406 212.383 68.9375 211.539 68.5312C210.695 68.1198 210.055 67.5391 209.617 66.7891C209.185 66.0339 208.969 65.1432 208.969 64.1172C208.969 63.0964 209.182 62.2031 209.609 61.4375C210.042 60.6667 210.677 60.0677 211.516 59.6406C212.354 59.2135 213.385 59 214.609 59H220.617V75ZM212.344 67.75H215.508L211.617 75H208.383L212.344 67.75Z" fill="#0B0B0B"/>
</g>
<defs>
<clipPath id="clip0_190_10708">
<rect width="221" height="76" fill="white"/>
</clipPath>
</defs>
</svg>
