<svg width="191" height="75" viewBox="0 0 191 75" fill="none" xmlns="http://www.w3.org/2000/svg">
<g clip-path="url(#clip0_190_10734)">
<path d="M97.3185 47.2955H85.2275L100.932 0.75H115.909L131.614 47.2955H119.523L108.591 12.4773H108.228L97.3185 47.2955ZM95.7048 28.9773H120.978V37.5227H95.7048V28.9773Z" fill="black"/>
<path d="M71.5967 14.7047C71.4452 13.038 70.7709 11.7426 69.5739 10.8183C68.3921 9.87892 66.7027 9.40923 64.5058 9.40923C63.0512 9.40923 61.8391 9.59862 60.8694 9.97741C59.8997 10.3562 59.1724 10.8789 58.6876 11.5456C58.2027 12.1971 57.9527 12.9471 57.9376 13.7956C57.9073 14.4926 58.0436 15.1062 58.3467 15.6365C58.6649 16.1668 59.1194 16.6365 59.7103 17.0456C60.3164 17.4395 61.0436 17.788 61.8921 18.091C62.7406 18.3941 63.6952 18.6592 64.7558 18.8865L68.7558 19.7956C71.0588 20.2956 73.0891 20.9623 74.8467 21.7956C76.6194 22.6289 78.1043 23.6213 79.3012 24.7729C80.5134 25.9244 81.43 27.2501 82.0512 28.7501C82.6724 30.2501 82.9906 31.932 83.0058 33.7956C82.9906 36.735 82.2482 39.2577 80.7785 41.3638C79.3088 43.4698 77.1952 45.0835 74.4376 46.2047C71.6952 47.3259 68.3846 47.8865 64.5058 47.8865C60.6118 47.8865 57.2179 47.3032 54.324 46.1365C51.43 44.9698 49.18 43.1971 47.574 40.8183C45.9679 38.4395 45.1421 35.432 45.0967 31.7956H55.8694C55.9603 33.2956 56.3618 34.5456 57.074 35.5456C57.7861 36.5456 58.7633 37.3032 60.0058 37.8183C61.2633 38.3335 62.7179 38.591 64.3694 38.591C65.8846 38.591 67.1724 38.3865 68.233 37.9774C69.3088 37.5683 70.1346 37.0001 70.7103 36.2729C71.2861 35.5456 71.5815 34.7123 71.5967 33.7729C71.5815 32.8941 71.3088 32.1441 70.7785 31.5229C70.2482 30.8865 69.43 30.341 68.3239 29.8865C67.233 29.4168 65.8391 28.985 64.1421 28.591L59.2785 27.4547C55.2482 26.5304 52.0739 25.038 49.7558 22.9774C47.4376 20.9016 46.2861 18.0986 46.3012 14.5683C46.2861 11.6895 47.0588 9.1668 48.6194 7.00013C50.18 4.83347 52.3391 3.14407 55.0967 1.93195C57.8543 0.719831 60.9982 0.11377 64.5285 0.11377C68.1346 0.11377 71.2633 0.727406 73.9149 1.95468C76.5815 3.1668 78.6497 4.87135 80.1194 7.06832C81.5891 9.26529 82.3391 11.8107 82.3694 14.7047H71.5967Z" fill="black"/>
<path d="M28.1591 0.75H39.3864V30.7727C39.3864 34.2424 38.5606 37.2652 36.9091 39.8409C35.2576 42.4015 32.9545 44.3864 30 45.7955C27.0455 47.1894 23.6136 47.8864 19.7045 47.8864C15.75 47.8864 12.2955 47.1894 9.34091 45.7955C6.38636 44.3864 4.09091 42.4015 2.45455 39.8409C0.818182 37.2652 0 34.2424 0 30.7727V0.75H11.25V29.7955C11.25 31.4015 11.5985 32.8333 12.2955 34.0909C13.0076 35.3485 14 36.3333 15.2727 37.0455C16.5455 37.7576 18.0227 38.1136 19.7045 38.1136C21.3864 38.1136 22.8561 37.7576 24.1136 37.0455C25.3864 36.3333 26.3788 35.3485 27.0909 34.0909C27.803 32.8333 28.1591 31.4015 28.1591 29.7955V0.75Z" fill="black"/>
<mask id="mask0_190_10734" style="mask-type:luminance" maskUnits="userSpaceOnUse" x="141" y="0" width="49" height="48">
<path d="M189.613 0H141.613V48H189.613V0Z" fill="white"/>
</mask>
<g mask="url(#mask0_190_10734)">
<path d="M189.613 0H141.613V48H189.613V0Z" fill="white"/>
<mask id="mask1_190_10734" style="mask-type:luminance" maskUnits="userSpaceOnUse" x="141" y="0" width="49" height="48">
<path d="M189.613 0H141.613V48H189.613V0Z" fill="white"/>
</mask>
<g mask="url(#mask1_190_10734)">
<path d="M189.613 0H141.613V48H189.613V0Z" fill="#0932FF"/>
<path d="M170.654 23.6959C168.812 23.6959 167.224 23.2594 165.891 22.3864C164.557 21.5066 163.529 20.2453 162.808 18.6025C162.086 16.9528 161.729 14.9698 161.735 12.6534C161.742 10.337 162.103 8.37111 162.818 6.75581C163.54 5.13364 164.564 3.89983 165.891 3.05438C167.224 2.20204 168.812 1.77588 170.654 1.77588C172.496 1.77588 174.084 2.20204 175.417 3.05438C176.758 3.89983 177.789 5.13364 178.51 6.75581C179.232 8.37797 179.59 10.3438 179.583 12.6534C179.583 14.9767 179.222 16.9631 178.5 18.6128C177.778 20.2625 176.751 21.5238 175.417 22.3967C174.091 23.2628 172.503 23.6959 170.654 23.6959ZM170.654 19.5201C171.754 19.5201 172.644 18.9599 173.324 17.8395C174.005 16.7122 174.342 14.9835 174.335 12.6534C174.335 11.1274 174.18 9.86956 173.871 8.87975C173.562 7.88308 173.132 7.14075 172.582 6.65271C172.032 6.16468 171.39 5.92068 170.654 5.92068C169.561 5.92068 168.678 6.47399 168.004 7.58064C167.331 8.68042 166.99 10.3713 166.983 12.6534C166.977 14.1999 167.124 15.4819 167.427 16.4992C167.736 17.5164 168.169 18.276 168.726 18.7778C169.283 19.2727 169.925 19.5201 170.654 19.5201Z" fill="white"/>
<path d="M143.407 23.1803V19.5098L151.109 12.7668C151.686 12.2444 152.178 11.7667 152.583 11.3337C152.989 10.8937 153.298 10.4538 153.511 10.0139C153.724 9.56711 153.831 9.08252 153.831 8.56014C153.831 7.97587 153.704 7.47754 153.449 7.06512C153.195 6.64583 152.844 6.32278 152.398 6.09594C151.951 5.86912 151.439 5.7557 150.861 5.7557C150.277 5.7557 149.765 5.87598 149.325 6.11657C148.885 6.35027 148.542 6.69051 148.294 7.1373C148.054 7.58408 147.933 8.12711 147.933 8.76635H143.098C143.098 7.32975 143.421 6.08908 144.067 5.04429C144.713 3.99948 145.62 3.19529 146.789 2.63165C147.964 2.06113 149.329 1.77588 150.882 1.77588C152.484 1.77588 153.876 2.04395 155.058 2.58009C156.24 3.11624 157.154 3.86546 157.8 4.82775C158.453 5.78319 158.78 6.89328 158.78 8.15804C158.78 8.96224 158.618 9.75958 158.295 10.5501C157.972 11.3405 157.391 12.2135 156.553 13.1689C155.721 14.1243 154.539 15.2688 153.006 16.6023L150.48 18.9324V19.0665H159.038V23.1803H143.407Z" fill="white"/>
<path d="M189.613 0V48H141.613L189.613 0Z" fill="#FC0106"/>
<path d="M170.617 42.8555V38.8755L179.268 25.2451H182.804V30.6478H180.752L175.69 38.6694V38.8343H188.217V42.8555H170.617ZM180.814 46.3609V41.6389L180.917 39.8964V25.2451H185.691V46.3609H180.814Z" fill="white"/>
<path d="M152.813 46.361V42.6906L160.515 35.9476C161.092 35.4252 161.584 34.9473 161.989 34.5144C162.395 34.0744 162.704 33.6345 162.917 33.1947C163.13 32.748 163.237 32.2633 163.237 31.7409C163.237 31.1567 163.11 30.6582 162.856 30.2459C162.601 29.8266 162.251 29.5034 161.804 29.2768C161.357 29.0499 160.845 28.9366 160.268 28.9366C159.683 28.9366 159.171 29.0567 158.731 29.2974C158.291 29.5311 157.948 29.8713 157.7 30.318C157.46 30.7648 157.339 31.3078 157.339 31.9472H152.504C152.504 30.5105 152.827 29.2698 153.473 28.225C154.119 27.1802 155.027 26.3759 156.195 25.8123C157.37 25.242 158.735 24.9565 160.288 24.9565C161.89 24.9565 163.282 25.2246 164.464 25.7608C165.646 26.297 166.56 27.0463 167.206 28.0086C167.86 28.964 168.186 30.074 168.186 31.3389C168.186 32.143 168.025 32.9405 167.701 33.7307C167.378 34.5212 166.798 35.3943 165.959 36.3496C165.127 37.3052 163.945 38.4495 162.412 39.7829L159.886 42.1131V42.2473H168.444V46.361H152.813Z" fill="white"/>
</g>
</g>
<path d="M178.266 74H175.172L180.805 58H184.383L190.023 74H186.93L182.656 61.2813H182.531L178.266 74ZM178.367 67.7266H186.805V70.0547H178.367V67.7266Z" fill="black"/>
<path d="M150.672 58V74H147.773V58H150.672Z" fill="black"/>
<path d="M120.266 62.6172C120.193 61.9349 119.885 61.4036 119.344 61.0234C118.807 60.6432 118.109 60.4531 117.25 60.4531C116.646 60.4531 116.128 60.5443 115.695 60.7266C115.263 60.9089 114.932 61.1562 114.703 61.4687C114.474 61.7813 114.357 62.138 114.352 62.5391C114.352 62.8724 114.427 63.1615 114.578 63.4063C114.734 63.651 114.945 63.8594 115.211 64.0313C115.477 64.1979 115.771 64.3385 116.094 64.4531C116.417 64.5677 116.742 64.6641 117.07 64.7422L118.57 65.1172C119.174 65.2578 119.755 65.4479 120.312 65.6875C120.875 65.9271 121.378 66.2292 121.82 66.5938C122.268 66.9583 122.622 67.3984 122.883 67.9141C123.143 68.4297 123.273 69.0339 123.273 69.7266C123.273 70.6641 123.034 71.4896 122.555 72.2031C122.076 72.9115 121.383 73.4661 120.477 73.8672C119.576 74.263 118.484 74.4609 117.203 74.4609C115.958 74.4609 114.878 74.2682 113.961 73.8828C113.049 73.4974 112.336 72.9349 111.82 72.1953C111.31 71.4557 111.034 70.5547 110.992 69.4922H113.844C113.885 70.0495 114.057 70.513 114.359 70.8828C114.661 71.2526 115.055 71.5286 115.539 71.7109C116.029 71.8932 116.576 71.9844 117.18 71.9844C117.81 71.9844 118.362 71.8906 118.836 71.7031C119.315 71.5104 119.69 71.2448 119.961 70.9062C120.232 70.5625 120.37 70.1615 120.375 69.7031C120.37 69.2865 120.247 68.9427 120.008 68.6719C119.768 68.3958 119.432 68.1667 119 67.9844C118.573 67.7969 118.073 67.6302 117.5 67.4844L115.68 67.0156C114.362 66.6771 113.32 66.1641 112.555 65.4766C111.794 64.7839 111.414 63.8646 111.414 62.7187C111.414 61.776 111.669 60.9505 112.18 60.2422C112.695 59.5339 113.396 58.9844 114.281 58.5937C115.167 58.1979 116.169 58 117.289 58C118.424 58 119.419 58.1979 120.273 58.5937C121.133 58.9844 121.807 59.5286 122.297 60.2266C122.786 60.9193 123.039 61.7161 123.055 62.6172H120.266Z" fill="black"/>
<path d="M83.4844 62.6172C83.4115 61.9349 83.1042 61.4036 82.5625 61.0234C82.026 60.6432 81.3281 60.4531 80.4688 60.4531C79.8646 60.4531 79.3464 60.5443 78.9141 60.7266C78.4818 60.9089 78.151 61.1562 77.9219 61.4687C77.6927 61.7813 77.5755 62.138 77.5703 62.5391C77.5703 62.8724 77.6458 63.1615 77.7969 63.4063C77.9531 63.651 78.1641 63.8594 78.4297 64.0313C78.6953 64.1979 78.9896 64.3385 79.3125 64.4531C79.6354 64.5677 79.9609 64.6641 80.2891 64.7422L81.7891 65.1172C82.3932 65.2578 82.974 65.4479 83.5312 65.6875C84.0937 65.9271 84.5964 66.2292 85.0391 66.5938C85.487 66.9583 85.8411 67.3984 86.1016 67.9141C86.362 68.4297 86.4922 69.0339 86.4922 69.7266C86.4922 70.6641 86.2526 71.4896 85.7734 72.2031C85.2943 72.9115 84.6016 73.4661 83.6953 73.8672C82.7943 74.263 81.7031 74.4609 80.4219 74.4609C79.1771 74.4609 78.0964 74.2682 77.1797 73.8828C76.2682 73.4974 75.5547 72.9349 75.0391 72.1953C74.5286 71.4557 74.2526 70.5547 74.2109 69.4922H77.0625C77.1042 70.0495 77.276 70.513 77.5781 70.8828C77.8802 71.2526 78.2734 71.5286 78.7578 71.7109C79.2474 71.8932 79.7943 71.9844 80.3984 71.9844C81.0286 71.9844 81.5807 71.8906 82.0547 71.7031C82.5339 71.5104 82.9089 71.2448 83.1797 70.9062C83.4505 70.5625 83.5885 70.1615 83.5938 69.7031C83.5885 69.2865 83.4661 68.9427 83.2266 68.6719C82.987 68.3958 82.651 68.1667 82.2188 67.9844C81.7917 67.7969 81.2917 67.6302 80.7188 67.4844L78.8984 67.0156C77.5807 66.6771 76.5391 66.1641 75.7734 65.4766C75.013 64.7839 74.6328 63.8646 74.6328 62.7187C74.6328 61.776 74.888 60.9505 75.3984 60.2422C75.9141 59.5339 76.6146 58.9844 77.5 58.5937C78.3854 58.1979 79.388 58 80.5078 58C81.6432 58 82.638 58.1979 83.4922 58.5937C84.3516 58.9844 85.026 59.5286 85.5156 60.2266C86.0052 60.9193 86.2578 61.7161 86.2734 62.6172H83.4844Z" fill="black"/>
<path d="M46.8125 58H49.7109V68.4531C49.7109 69.599 49.4401 70.6068 48.8984 71.4766C48.362 72.3464 47.6068 73.026 46.6328 73.5156C45.6589 74 44.5208 74.2422 43.2188 74.2422C41.9115 74.2422 40.7708 74 39.7969 73.5156C38.8229 73.026 38.0677 72.3464 37.5312 71.4766C36.9948 70.6068 36.7266 69.599 36.7266 68.4531V58H39.625V68.2109C39.625 68.8776 39.7708 69.4714 40.0625 69.9922C40.3594 70.513 40.776 70.9219 41.3125 71.2188C41.849 71.5104 42.4844 71.6562 43.2188 71.6562C43.9531 71.6562 44.5885 71.5104 45.125 71.2188C45.6667 70.9219 46.0833 70.513 46.375 69.9922C46.6667 69.4714 46.8125 68.8776 46.8125 68.2109V58Z" fill="black"/>
<path d="M0 74V58H6C7.22917 58 8.26042 58.2135 9.09375 58.6406C9.93229 59.0677 10.5651 59.6667 10.9922 60.4375C11.4245 61.2031 11.6406 62.0964 11.6406 63.1172C11.6406 64.1432 11.4219 65.0339 10.9844 65.7891C10.5521 66.5391 9.91406 67.1198 9.07031 67.5312C8.22656 67.9375 7.1901 68.1406 5.96094 68.1406H1.6875V65.7344H5.57031C6.28906 65.7344 6.8776 65.6354 7.33594 65.4375C7.79427 65.2344 8.13281 64.9401 8.35156 64.5547C8.57552 64.1641 8.6875 63.6849 8.6875 63.1172C8.6875 62.5495 8.57552 62.0651 8.35156 61.6641C8.1276 61.2578 7.78646 60.9505 7.32812 60.7422C6.86979 60.5286 6.27865 60.4219 5.55469 60.4219H2.89844V74H0ZM8.26562 66.75L12.2266 74H8.99219L5.10156 66.75H8.26562Z" fill="black"/>
</g>
<defs>
<clipPath id="clip0_190_10734">
<rect width="191" height="75" fill="white"/>
</clipPath>
</defs>
</svg>
