<svg width="178" height="178" viewBox="0 0 178 178" fill="none" xmlns="http://www.w3.org/2000/svg">
<g clip-path="url(#clip0_219_13978)">
<mask id="mask0_219_13978" style="mask-type:luminance" maskUnits="userSpaceOnUse" x="0" y="0" width="178" height="178">
<path d="M178 0H0V178H178V0Z" fill="white"/>
</mask>
<g mask="url(#mask0_219_13978)">
<path d="M178 0H0V178H178V0Z" fill="#F1F1F1"/>
<mask id="mask1_219_13978" style="mask-type:luminance" maskUnits="userSpaceOnUse" x="0" y="0" width="178" height="178">
<path d="M178 0H0V178H178V0Z" fill="white"/>
</mask>
<g mask="url(#mask1_219_13978)">
<path d="M178 0H0V178H178V0Z" fill="#0932FF"/>
<path d="M107.694 87.8722C100.863 87.8722 94.9746 86.2535 90.0276 83.0161C85.0844 79.7535 81.2723 75.0762 78.5949 68.9842C75.9212 62.8665 74.5936 55.5129 74.6195 46.9229C74.6455 38.3329 75.9842 31.0428 78.6357 25.0527C81.3094 19.0371 85.1104 14.4618 90.0276 11.3266C94.9746 8.16579 100.863 6.58545 107.694 6.58545C114.525 6.58545 120.414 8.16579 125.357 11.3266C130.33 14.4618 134.149 19.0371 136.827 25.0527C139.504 31.0682 140.828 38.3582 140.806 46.9229C140.806 55.5385 139.467 62.9047 136.79 69.0224C134.112 75.14 130.304 79.8173 125.357 83.0543C120.436 86.2661 114.551 87.8722 107.694 87.8722ZM107.694 72.3869C111.77 72.3869 115.074 70.3095 117.595 66.1547C120.117 61.9743 121.367 55.5637 121.345 46.9229C121.345 41.264 120.77 36.5997 119.624 32.929C118.474 29.233 116.883 26.4802 114.844 24.6704C112.804 22.8606 110.42 21.9557 107.694 21.9557C103.641 21.9557 100.367 24.0076 97.8671 28.1114C95.3677 32.1898 94.1068 38.4601 94.0809 46.9229C94.0549 52.6579 94.6037 57.4119 95.7274 61.1844C96.8732 64.9565 98.479 67.7734 100.545 69.6342C102.606 71.4695 104.991 72.3869 107.694 72.3869Z" fill="#F1F1F1"/>
<path d="M6.65055 85.9602V72.3487L35.2121 47.3434C37.3518 45.4062 39.1726 43.6347 40.6782 42.029C42.1838 40.3974 43.3297 38.7661 44.1196 37.1348C44.9094 35.4779 45.3062 33.6808 45.3062 31.7437C45.3062 29.5771 44.8316 27.7291 43.8897 26.1997C42.9477 24.6448 41.6461 23.4469 39.9885 22.6057C38.3346 21.7645 36.4359 21.3439 34.2924 21.3439C32.1268 21.3439 30.2281 21.79 28.5965 22.6822C26.9648 23.5488 25.6891 24.8105 24.7732 26.4674C23.8794 28.1242 23.4345 30.1379 23.4345 32.5084H5.50098C5.50098 27.181 6.69877 22.5802 9.09806 18.7058C11.4936 14.8313 14.8571 11.8491 19.1921 9.75893C23.5494 7.64325 28.6076 6.58545 34.3704 6.58545C40.3074 6.58545 45.4694 7.57954 49.8526 9.56773C54.2396 11.556 57.629 14.3343 60.0246 17.9028C62.4462 21.4459 63.6588 25.5625 63.6588 30.2526C63.6588 33.2349 63.058 36.1917 61.8602 39.1232C60.6624 42.0542 58.5079 45.2916 55.4003 48.8346C52.315 52.3775 47.9317 56.6217 42.2468 61.5668L32.8796 70.2075V70.7048H64.6118V85.9602H6.65055Z" fill="#F1F1F1"/>
<path d="M178 0V178H0L178 0Z" fill="#FC0106"/>
<path d="M107.557 158.922V144.163L139.634 93.6172H152.75V113.652H145.141L126.369 143.399V144.01H172.823V158.922H107.557ZM145.371 171.922V154.411L145.752 147.949V93.6172H163.456V171.922H145.371Z" fill="#F1F1F1"/>
<path d="M41.5316 171.922V158.311L70.0932 133.306C72.2329 131.369 74.0574 129.597 75.5593 127.991C77.0649 126.36 78.2107 124.728 79.0006 123.097C79.7905 121.441 80.1872 119.643 80.1872 117.706C80.1872 115.54 79.7163 113.691 78.7707 112.162C77.8288 110.607 76.5271 109.409 74.8732 108.568C73.2156 107.727 71.317 107.307 69.1735 107.307C67.0079 107.307 65.1092 107.752 63.4775 108.645C61.8458 109.512 60.5739 110.773 59.6542 112.43C58.7605 114.086 58.3155 116.1 58.3155 118.471H40.3857C40.3857 113.143 41.5835 108.543 43.9791 104.668C46.3747 100.794 49.7381 97.811 54.0732 95.721C58.4305 93.6061 63.4924 92.5474 69.2514 92.5474C75.1921 92.5474 80.3504 93.5416 84.7374 95.53C89.1206 97.5184 92.5101 100.297 94.9056 103.866C97.3272 107.409 98.5398 111.525 98.5398 116.215C98.5398 119.197 97.939 122.155 96.7413 125.085C95.5435 128.016 93.3889 131.254 90.2813 134.797C87.196 138.34 82.8127 142.584 77.1279 147.529L67.7606 156.17V156.667H99.4929V171.922H41.5316Z" fill="#F1F1F1"/>
</g>
</g>
</g>
<defs>
<clipPath id="clip0_219_13978">
<rect width="178" height="178" rx="10" fill="white"/>
</clipPath>
</defs>
</svg>
