<svg width="78" height="78" viewBox="0 0 78 78" fill="none" xmlns="http://www.w3.org/2000/svg">
<rect x="12.0303" y="20" width="52" height="40" fill="#F1F1F1"/>
<path d="M39 0.5C17.4608 0.5 0 17.737 0 39C0 60.263 17.4608 77.5 39 77.5C60.5392 77.5 78 60.263 78 39C78 17.737 60.5392 0.5 39 0.5ZM57.0771 26.6831C56.4902 32.7709 53.9507 47.5442 52.6582 54.3627C52.1115 57.2478 51.035 58.2152 49.993 58.3098C47.7285 58.5156 46.0084 56.8323 43.8148 55.4128C40.3823 53.1916 38.4431 51.8089 35.1112 49.6414C31.2607 47.1365 33.7569 45.7603 35.9512 43.5093C36.5255 42.9205 46.5044 33.9604 46.6975 33.1475C46.7215 33.0459 46.7446 32.6663 46.516 32.467C46.2873 32.2676 45.9514 32.3352 45.7085 32.3893C45.3643 32.4665 39.8808 36.0445 29.258 43.1231C27.7017 44.1781 26.2919 44.6922 25.0287 44.6652C23.6362 44.6356 20.9576 43.8881 18.9663 43.249C16.5239 42.4653 14.5827 42.051 14.7517 40.7199C14.8398 40.0265 15.807 39.3176 17.6532 38.5931C29.0225 33.7032 36.6038 30.4793 40.3971 28.9215C51.2278 24.4743 53.4783 23.7018 54.9452 23.6761C55.2679 23.6708 55.9892 23.7497 56.4564 24.1239C56.7672 24.3906 56.9653 24.7626 57.0116 25.1665C57.0907 25.6681 57.1127 26.1768 57.0771 26.6831Z" fill="#218ECD"/>
</svg>
