<svg id="Слой_1" data-name="Слой 1" xmlns="http://www.w3.org/2000/svg" viewBox="0 0 180 210"><defs><style>.cls-1{fill:#fff;}.cls-1,.cls-3{fill-rule:evenodd;}.cls-2{fill:#ac2927;}</style></defs><title>Монтажная область 25</title><path class="cls-1" d="M130.91,183.64c-23.43,0-33.72,6-40.91,14.37-7.28-8.38-17.62-14.37-40.91-14.37C31,183.64,19,179.09,19,157.3V22H161V157.3C161,179.09,148.86,183.64,130.91,183.64Z"/><path class="cls-2" d="M19,22V157.3c0,21.79,12,26.34,30.08,26.34,23.29,0,33.63,6,40.91,14.37,7.19-8.38,17.48-14.37,40.91-14.37,18,0,30.08-4.55,30.08-26.34V22ZM155,158.5c0,11.62-4.69,14.59-6,15.56-3.36,2.46-8.27,3.6-16.85,3.6-18.6,0-32.51,4-42.11,12-9.6-8-23.51-12-42.11-12-8.58,0-13.49-1.14-16.85-3.6-1.32-1-6-3.94-6-15.56V28H155Z"/><polygon class="cls-2" points="110.67 169.54 115.96 169.88 121.7 148.46 114.12 142.79 110.67 169.54"/><polygon class="cls-2" points="53.86 125.82 67.6 129.26 61.66 115.91 48.8 116.29 41.88 141.68 46.19 142.83 53.86 125.82"/><path class="cls-2" d="M75.09,88.42l-9.91,21.73c0,7.81,2.77,15.42,8.74,20.33l4.47,39.32,4.94.21.35-34,23.82-.14,19.55,11.23,4.53,22.26,4.79.19-1.52-26.17c-8.19-8.41-10-19.65-5.44-26.66l5.58.69c0-9.92-8.17-14.91-17.47-14.91-8.3,0-29.93.43-29.93.43l0-22.82c5.63-1.11,9.71-4.45,9.32-8.86l-26.48-.66c0,3.32-4.64,5.69-10.22,5.69C60.17,76.25,55.69,88.42,75.09,88.42Z"/><path class="cls-3" d="M103.86,39.25c.27,13.87-4.59,24.92-18.77,36l-4.37-3.13a65.45,65.45,0,0,0,8.49-7.49,52.45,52.45,0,0,0-4.14-6.89l1.48-1s3.84,2.56,5.45,4.78a46.54,46.54,0,0,0,5-7.43,45.06,45.06,0,0,0-4.91-5l1-1.18a23.59,23.59,0,0,1,5.45,2.82,23.49,23.49,0,0,0,2-11.36ZM70.41,70.61a20.81,20.81,0,0,1-2.67-5.68,51.62,51.62,0,0,0-7-3.79l.76-1.65a33.77,33.77,0,0,1,5,.71,47,47,0,0,1-.76-7.15,45.46,45.46,0,0,0-5.56-4.35l.87-1.3a28.45,28.45,0,0,1,4.68,1.52,69.43,69.43,0,0,1,.94-9l3.4.76c-1.31,5.92,1.17,20.11,6.77,30Z"/></svg>